<mxfile host="app.diagrams.net" agent="Mozilla/5.0 (Windows NT 10.0; Win64; x64; rv:136.0) Gecko/20100101 Firefox/136.0" version="26.1.0">
  <diagram name="Page-1" id="75xw-QX9Bj4ABoNTQgsj">
    <mxGraphModel dx="3013" dy="1811" grid="1" gridSize="10" guides="1" tooltips="1" connect="1" arrows="1" fold="1" page="1" pageScale="1" pageWidth="850" pageHeight="1100" math="0" shadow="0">
      <root>
        <mxCell id="0" />
        <mxCell id="1" parent="0" />
        <UserObject label="" plantUmlData="{&#xa;  &quot;data&quot;: &quot;@startuml Airline Management System - Use Case Diagram\nleft to right direction\nskinparam actorStyle awesome\n\nactor \&quot;User\&quot; as USER\nactor \&quot;Admin\&quot; as ADMIN\nactor \&quot;System\&quot; as SYS\n\nrectangle \&quot;Airline Management System\&quot; {\n  usecase \&quot;Login\&quot; as UC1\n  usecase \&quot;Search Flights\&quot; as UC2\n  usecase \&quot;Book Tickets\&quot; as UC3\n  usecase \&quot;Select Seats\&quot; as UC4\n  usecase \&quot;Cancel Tickets\&quot; as UC5\n  usecase \&quot;Ticket Payment\&quot; as UC6\n  usecase \&quot;View Ticket Details\&quot; as UC7\n  usecase \&quot;General Enquiries\&quot; as UC8\n  usecase \&quot;Provide Flight Updates\&quot; as UC9\n}\n\n&#39; User relationships\nUSER -- UC1\nUSER -- UC2\nUSER -- UC3\nUSER -- UC8\nUSER -- UC5\nUSER -- UC7\n\n&#39; Admin relationships\nADMIN -- UC1\nADMIN -- UC9\nADMIN -- UC7\n\n&#39; System relationships\nSYS -- UC9\n\n&#39; Include/Extend relationships\nUC3 ..&gt; UC4 : &lt;&lt;includes&gt;&gt;\nUC3 ..&gt; UC6 : &lt;&lt;includes&gt;&gt;\nUC5 ..&gt; UC7 : &lt;&lt;extends&gt;&gt;\nUC2 ..&gt; UC7 : &lt;&lt;extends&gt;&gt;\n\n@enduml&quot;,&#xa;  &quot;format&quot;: &quot;svg&quot;&#xa;}" id="7hjEcoK-xNjLgvXYdvap-2">
          <mxCell style="shape=image;noLabel=1;verticalAlign=top;aspect=fixed;imageAspect=0;image=data:image/svg+xml,PD94bWwgdmVyc2lvbj0iMS4wIiBlbmNvZGluZz0idXMtYXNjaWkiIHN0YW5kYWxvbmU9Im5vIj8+PHN2ZyB4bWxucz0iaHR0cDovL3d3dy53My5vcmcvMjAwMC9zdmciIHhtbG5zOnhsaW5rPSJodHRwOi8vd3d3LnczLm9yZy8xOTk5L3hsaW5rIiBjb250ZW50U3R5bGVUeXBlPSJ0ZXh0L2NzcyIgaGVpZ2h0PSI1MTZweCIgcHJlc2VydmVBc3BlY3RSYXRpbz0ibm9uZSIgc3R5bGU9IndpZHRoOjYzM3B4O2hlaWdodDo1MTZweDtiYWNrZ3JvdW5kOiNGRkZGRkY7IiB2ZXJzaW9uPSIxLjEiIHZpZXdCb3g9IjAgMCA2MzMgNTE2IiB3aWR0aD0iNjMzcHgiIHpvb21BbmRQYW49Im1hZ25pZnkiPjxkZWZzLz48Zz48IS0tY2x1c3RlciBBaXJsaW5lIE1hbmFnZW1lbnQgU3lzdGVtLS0+PGcgaWQ9ImNsdXN0ZXJfQWlybGluZSBNYW5hZ2VtZW50IFN5c3RlbSI+PHJlY3QgZmlsbD0ibm9uZSIgaGVpZ2h0PSI0MjciIHJ4PSIyLjUiIHJ5PSIyLjUiIHN0eWxlPSJzdHJva2U6IzE4MTgxODtzdHJva2Utd2lkdGg6MS4wOyIgd2lkdGg9IjUyMCIgeD0iMTA3LjUiIHk9IjMyLjkzIi8+PHRleHQgZmlsbD0iIzAwMDAwMCIgZm9udC1mYW1pbHk9InNhbnMtc2VyaWYiIGZvbnQtc2l6ZT0iMTQiIGZvbnQtd2VpZ2h0PSJib2xkIiBsZW5ndGhBZGp1c3Q9InNwYWNpbmciIHRleHRMZW5ndGg9IjE3NyIgeD0iMjc5IiB5PSI0OC4xNjQ0Ij5BaXJsaW5lIE1hbmFnZW1lbnQgU3lzdGVtPC90ZXh0PjwvZz48ZyBpZD0iZWxlbV9VQzEiPjxlbGxpcHNlIGN4PSIyMTcuNzM0IiBjeT0iMTU3LjAyNTYiIGZpbGw9IiNGMUYxRjEiIHJ4PSIzNi4yMzQiIHJ5PSIxMy41OTU2IiBzdHlsZT0ic3Ryb2tlOiMxODE4MTg7c3Ryb2tlLXdpZHRoOjAuNTsiLz48dGV4dCBmaWxsPSIjMDAwMDAwIiBmb250LWZhbWlseT0ic2Fucy1zZXJpZiIgZm9udC1zaXplPSIxNCIgbGVuZ3RoQWRqdXN0PSJzcGFjaW5nIiB0ZXh0TGVuZ3RoPSIzNSIgeD0iMjAwLjIzNCIgeT0iMTYwLjc2NzciPkxvZ2luPC90ZXh0PjwvZz48ZyBpZD0iZWxlbV9VQzIiPjxlbGxpcHNlIGN4PSIyMTcuNTQ1NiIgY3k9IjIyMS43MzkxIiBmaWxsPSIjRjFGMUYxIiByeD0iNjkuNTQ1NiIgcnk9IjE2LjMwOTEiIHN0eWxlPSJzdHJva2U6IzE4MTgxODtzdHJva2Utd2lkdGg6MC41OyIvPjx0ZXh0IGZpbGw9IiMwMDAwMDAiIGZvbnQtZmFtaWx5PSJzYW5zLXNlcmlmIiBmb250LXNpemU9IjE0IiBsZW5ndGhBZGp1c3Q9InNwYWNpbmciIHRleHRMZW5ndGg9Ijk4IiB4PSIxNjguNTQ1NiIgeT0iMjI1LjQ4MTMiPlNlYXJjaCBGbGlnaHRzPC90ZXh0PjwvZz48ZyBpZD0iZWxlbV9VQzMiPjxlbGxpcHNlIGN4PSIyMTcuMzg3OCIgY3k9IjQyOS4xMDc2IiBmaWxsPSIjRjFGMUYxIiByeD0iNjMuODg3OCIgcnk9IjE1LjE3NzYiIHN0eWxlPSJzdHJva2U6IzE4MTgxODtzdHJva2Utd2lkdGg6MC41OyIvPjx0ZXh0IGZpbGw9IiMwMDAwMDAiIGZvbnQtZmFtaWx5PSJzYW5zLXNlcmlmIiBmb250LXNpemU9IjE0IiBsZW5ndGhBZGp1c3Q9InNwYWNpbmciIHRleHRMZW5ndGg9Ijg0IiB4PSIxNzUuMzg3OCIgeT0iNDMyLjg0OTciPkJvb2sgVGlja2V0czwvdGV4dD48L2c+PGcgaWQ9ImVsZW1fVUM0Ij48ZWxsaXBzZSBjeD0iNTI2LjM4NzgiIGN5PSIzNTIuMTA3NiIgZmlsbD0iI0YxRjFGMSIgcng9IjYzLjg4NzgiIHJ5PSIxNS4xNzc2IiBzdHlsZT0ic3Ryb2tlOiMxODE4MTg7c3Ryb2tlLXdpZHRoOjAuNTsiLz48dGV4dCBmaWxsPSIjMDAwMDAwIiBmb250LWZhbWlseT0ic2Fucy1zZXJpZiIgZm9udC1zaXplPSIxNCIgbGVuZ3RoQWRqdXN0PSJzcGFjaW5nIiB0ZXh0TGVuZ3RoPSI4NCIgeD0iNDg0LjM4NzgiIHk9IjM1NS44NDk3Ij5TZWxlY3QgU2VhdHM8L3RleHQ+PC9nPjxnIGlkPSJlbGVtX1VDNSI+PGVsbGlwc2UgY3g9IjIxNy41NDU2IiBjeT0iMzYxLjczOTEiIGZpbGw9IiNGMUYxRjEiIHJ4PSI2OS41NDU2IiByeT0iMTYuMzA5MSIgc3R5bGU9InN0cm9rZTojMTgxODE4O3N0cm9rZS13aWR0aDowLjU7Ii8+PHRleHQgZmlsbD0iIzAwMDAwMCIgZm9udC1mYW1pbHk9InNhbnMtc2VyaWYiIGZvbnQtc2l6ZT0iMTQiIGxlbmd0aEFkanVzdD0ic3BhY2luZyIgdGV4dExlbmd0aD0iOTgiIHg9IjE2OC41NDU2IiB5PSIzNjUuNDgxMyI+Q2FuY2VsIFRpY2tldHM8L3RleHQ+PC9nPjxnIGlkPSJlbGVtX1VDNiI+PGVsbGlwc2UgY3g9IjUyNi40NTk1IiBjeT0iNDE4LjgyMTkiIGZpbGw9IiNGMUYxRjEiIHJ4PSI2OS45NTk1IiByeT0iMTYuMzkxOSIgc3R5bGU9InN0cm9rZTojMTgxODE4O3N0cm9rZS13aWR0aDowLjU7Ii8+PHRleHQgZmlsbD0iIzAwMDAwMCIgZm9udC1mYW1pbHk9InNhbnMtc2VyaWYiIGZvbnQtc2l6ZT0iMTQiIGxlbmd0aEFkanVzdD0ic3BhY2luZyIgdGV4dExlbmd0aD0iOTkiIHg9IjQ3Ni45NTk1IiB5PSI0MjIuNTY0MSI+VGlja2V0IFBheW1lbnQ8L3RleHQ+PC9nPjxnIGlkPSJlbGVtX1VDNyI+PGVsbGlwc2UgY3g9IjUyNi41NTA3IiBjeT0iMjc5Ljg0MDEiIGZpbGw9IiNGMUYxRjEiIHJ4PSI4NS4wNTA3IiByeT0iMTkuNDEwMSIgc3R5bGU9InN0cm9rZTojMTgxODE4O3N0cm9rZS13aWR0aDowLjU7Ii8+PHRleHQgZmlsbD0iIzAwMDAwMCIgZm9udC1mYW1pbHk9InNhbnMtc2VyaWYiIGZvbnQtc2l6ZT0iMTQiIGxlbmd0aEFkanVzdD0ic3BhY2luZyIgdGV4dExlbmd0aD0iMTM0IiB4PSI0NTkuNTUwNyIgeT0iMjgzLjU4MjMiPlZpZXcgVGlja2V0IERldGFpbHM8L3RleHQ+PC9nPjxnIGlkPSJlbGVtX1VDOCI+PGVsbGlwc2UgY3g9IjIxNy40NTU4IiBjeT0iMjkyLjAyMTIiIGZpbGw9IiNGMUYxRjEiIHJ4PSI3OC40NTU4IiByeT0iMTguMDkxMiIgc3R5bGU9InN0cm9rZTojMTgxODE4O3N0cm9rZS13aWR0aDowLjU7Ii8+PHRleHQgZmlsbD0iIzAwMDAwMCIgZm9udC1mYW1pbHk9InNhbnMtc2VyaWYiIGZvbnQtc2l6ZT0iMTQiIGxlbmd0aEFkanVzdD0ic3BhY2luZyIgdGV4dExlbmd0aD0iMTE5IiB4PSIxNTcuOTU1OCIgeT0iMjk1Ljc2MzMiPkdlbmVyYWwgRW5xdWlyaWVzPC90ZXh0PjwvZz48ZyBpZD0iZWxlbV9VQzkiPjxlbGxpcHNlIGN4PSIyMTcuNTYyMiIgY3k9Ijg3LjE0MjQiIGZpbGw9IiNGMUYxRjEiIHJ4PSI5NC4wNjIyIiByeT0iMjEuMjEyNCIgc3R5bGU9InN0cm9rZTojMTgxODE4O3N0cm9rZS13aWR0aDowLjU7Ii8+PHRleHQgZmlsbD0iIzAwMDAwMCIgZm9udC1mYW1pbHk9InNhbnMtc2VyaWYiIGZvbnQtc2l6ZT0iMTQiIGxlbmd0aEFkanVzdD0ic3BhY2luZyIgdGV4dExlbmd0aD0iMTU0IiB4PSIxNDAuNTYyMiIgeT0iOTAuODg0NiI+UHJvdmlkZSBGbGlnaHQgVXBkYXRlczwvdGV4dD48L2c+PCEtLWVudGl0eSBVU0VSLS0+PGcgaWQ9ImVsZW1fVVNFUiI+PGVsbGlwc2UgY3g9IjMzIiBjeT0iMzEyLjQzIiBmaWxsPSIjRjFGMUYxIiByeD0iMTYiIHJ5PSIxNiIgc3R5bGU9InN0cm9rZTojMTgxODE4O3N0cm9rZS13aWR0aDowLjU7Ii8+PHBhdGggZD0iTTMzLDMzMi40MyBDMzcsMzMyLjQzIDQwLDMzMi40MyA0NCwzMjguNDMgQzUyLDMyOC40MyA2MCwzMzYuNDMgNjAsMzQ0LjQzIEw2MCwzNDguNDMgQzYwLDM1Mi40MyA1NiwzNTYuNDMgNTIsMzU2LjQzIEwxNCwzNTYuNDMgQzEwLDM1Ni40MyA2LDM1Mi40MyA2LDM0OC40MyBMNiwzNDQuNDMgQzYsMzM2LjQzIDE0LDMyOC40MyAyMiwzMjguNDMgQzI2LDMzMi40MyAyOSwzMzIuNDMgMzMsMzMyLjQzICIgZmlsbD0iI0YxRjFGMSIgc3R5bGU9InN0cm9rZTojMTgxODE4O3N0cm9rZS13aWR0aDowLjU7Ii8+PHRleHQgZmlsbD0iIzAwMDAwMCIgZm9udC1mYW1pbHk9InNhbnMtc2VyaWYiIGZvbnQtc2l6ZT0iMTQiIGxlbmd0aEFkanVzdD0ic3BhY2luZyIgdGV4dExlbmd0aD0iMjgiIHg9IjE5IiB5PSIzNzAuMTY0NCI+VXNlcjwvdGV4dD48L2c+PCEtLWVudGl0eSBBRE1JTi0tPjxnIGlkPSJlbGVtX0FETUlOIj48ZWxsaXBzZSBjeD0iMzMiIGN5PSIyNy40MyIgZmlsbD0iI0YxRjFGMSIgcng9IjE2IiByeT0iMTYiIHN0eWxlPSJzdHJva2U6IzE4MTgxODtzdHJva2Utd2lkdGg6MC41OyIvPjxwYXRoIGQ9Ik0zMyw0Ny40MyBDMzcsNDcuNDMgNDAsNDcuNDMgNDQsNDMuNDMgQzUyLDQzLjQzIDYwLDUxLjQzIDYwLDU5LjQzIEw2MCw2My40MyBDNjAsNjcuNDMgNTYsNzEuNDMgNTIsNzEuNDMgTDE0LDcxLjQzIEMxMCw3MS40MyA2LDY3LjQzIDYsNjMuNDMgTDYsNTkuNDMgQzYsNTEuNDMgMTQsNDMuNDMgMjIsNDMuNDMgQzI2LDQ3LjQzIDI5LDQ3LjQzIDMzLDQ3LjQzICIgZmlsbD0iI0YxRjFGMSIgc3R5bGU9InN0cm9rZTojMTgxODE4O3N0cm9rZS13aWR0aDowLjU7Ii8+PHRleHQgZmlsbD0iIzAwMDAwMCIgZm9udC1mYW1pbHk9InNhbnMtc2VyaWYiIGZvbnQtc2l6ZT0iMTQiIGxlbmd0aEFkanVzdD0ic3BhY2luZyIgdGV4dExlbmd0aD0iMzYiIHg9IjE1IiB5PSI4NS4xNjQ0Ij5BZG1pbjwvdGV4dD48L2c+PCEtLWVudGl0eSBTWVMtLT48ZyBpZD0iZWxlbV9TWVMiPjxlbGxpcHNlIGN4PSIzMyIgY3k9IjEzOC40MyIgZmlsbD0iI0YxRjFGMSIgcng9IjE2IiByeT0iMTYiIHN0eWxlPSJzdHJva2U6IzE4MTgxODtzdHJva2Utd2lkdGg6MC41OyIvPjxwYXRoIGQ9Ik0zMywxNTguNDMgQzM3LDE1OC40MyA0MCwxNTguNDMgNDQsMTU0LjQzIEM1MiwxNTQuNDMgNjAsMTYyLjQzIDYwLDE3MC40MyBMNjAsMTc0LjQzIEM2MCwxNzguNDMgNTYsMTgyLjQzIDUyLDE4Mi40MyBMMTQsMTgyLjQzIEMxMCwxODIuNDMgNiwxNzguNDMgNiwxNzQuNDMgTDYsMTcwLjQzIEM2LDE2Mi40MyAxNCwxNTQuNDMgMjIsMTU0LjQzIEMyNiwxNTguNDMgMjksMTU4LjQzIDMzLDE1OC40MyAiIGZpbGw9IiNGMUYxRjEiIHN0eWxlPSJzdHJva2U6IzE4MTgxODtzdHJva2Utd2lkdGg6MC41OyIvPjx0ZXh0IGZpbGw9IiMwMDAwMDAiIGZvbnQtZmFtaWx5PSJzYW5zLXNlcmlmIiBmb250LXNpemU9IjE0IiBsZW5ndGhBZGp1c3Q9InNwYWNpbmciIHRleHRMZW5ndGg9IjQzIiB4PSIxMS41IiB5PSIxOTYuMTY0NCI+U3lzdGVtPC90ZXh0PjwvZz48IS0tbGluayBVU0VSIHRvIFVDMS0tPjxnIGlkPSJsaW5rX1VTRVJfVUMxIj48cGF0aCBkPSJNNDEuNDYsMjk1Ljc0IEM0OS45MiwyNjIuNTMgNjcsMjE1LjU0IDk5LjUsMTg3LjkzIEMxMjIuNCwxNjguNDggMTU2LjIzLDE2MS4wOSAxODEuNjIsMTU4LjM1ICIgZmlsbD0ibm9uZSIgaWQ9IlVTRVItVUMxIiBzdHlsZT0ic3Ryb2tlOiMxODE4MTg7c3Ryb2tlLXdpZHRoOjEuMDsiLz48L2c+PCEtLWxpbmsgVVNFUiB0byBVQzItLT48ZyBpZD0ibGlua19VU0VSX1VDMiI+PHBhdGggZD0iTTU4LjYzLDI5NS45MiBDNjkuNiwyODEuNTkgODMuNjUsMjY2LjI2IDk5LjUsMjU1LjkzIEMxMTcuNTgsMjQ0LjE1IDEzOS44MiwyMzYuMzYgMTYwLjA1LDIzMS4yNSAiIGZpbGw9Im5vbmUiIGlkPSJVU0VSLVVDMiIgc3R5bGU9InN0cm9rZTojMTgxODE4O3N0cm9rZS13aWR0aDoxLjA7Ii8+PC9nPjwhLS1saW5rIFVTRVIgdG8gVUMzLS0+PGcgaWQ9ImxpbmtfVVNFUl9VQzMiPjxwYXRoIGQ9Ik02MC41NiwzNjQuNzMgQzcxLjYyLDM3NS45MyA4NS4yLDM4Ny44MiA5OS41LDM5NS45MyBDMTE5LjY5LDQwNy40IDE0NC4xMyw0MTUuMSAxNjUuNDQsNDIwLjE2ICIgZmlsbD0ibm9uZSIgaWQ9IlVTRVItVUMzIiBzdHlsZT0ic3Ryb2tlOiMxODE4MTg7c3Ryb2tlLXdpZHRoOjEuMDsiLz48L2c+PCEtLWxpbmsgVVNFUiB0byBVQzgtLT48ZyBpZD0ibGlua19VU0VSX1VDOCI+PHBhdGggZD0iTTYwLjU0LDMyNy44MyBDODYuODMsMzIxLjc4IDEyNy45LDMxMi4zMiAxNjEuMywzMDQuNjQgIiBmaWxsPSJub25lIiBpZD0iVVNFUi1VQzgiIHN0eWxlPSJzdHJva2U6IzE4MTgxODtzdHJva2Utd2lkdGg6MS4wOyIvPjwvZz48IS0tbGluayBVU0VSIHRvIFVDNS0tPjxnIGlkPSJsaW5rX1VTRVJfVUM1Ij48cGF0aCBkPSJNNjAuNTQsMzM4LjAxIEM4Ni4xNCwzNDEuOTMgMTI1Ljc1LDM0OC4wMSAxNTguNjUsMzUzLjA2ICIgZmlsbD0ibm9uZSIgaWQ9IlVTRVItVUM1IiBzdHlsZT0ic3Ryb2tlOiMxODE4MTg7c3Ryb2tlLXdpZHRoOjEuMDsiLz48L2c+PCEtLWxpbmsgVVNFUiB0byBVQzctLT48ZyBpZD0ibGlua19VU0VSX1VDNyI+PHBhdGggZD0iTTQyLjMxLDM3Mi4xNyBDNTEuMDQsNDAyLjEgNjguMDQsNDQxLjc2IDk5LjUsNDYwLjkzIEMxNzkuOTYsNTA5Ljk3IDIxOC4xNSw0NzMuNzYgMzExLjUsNDYwLjkzIEMzNTcuMjIsNDU0LjY1IDM3OS4xMiw0NjUuODMgNDExLjUsNDMyLjkzIEM0NDguMjUsMzk1LjYgNDA3Ljg4LDM1OS4xMiA0NDEuNSwzMTguOTMgQzQ1MC4wNiwzMDguNyA0NjEuOSwzMDEgNDc0LDI5NS4yNyAiIGZpbGw9Im5vbmUiIGlkPSJVU0VSLVVDNyIgc3R5bGU9InN0cm9rZTojMTgxODE4O3N0cm9rZS13aWR0aDoxLjA7Ii8+PC9nPjwhLS1saW5rIEFETUlOIHRvIFVDMS0tPjxnIGlkPSJsaW5rX0FETUlOX1VDMSI+PHBhdGggZD0iTTU5LjY1LDg3LjI3IEM3MC41LDEwMC45MSA4NC4xOCwxMTUuMjYgOTkuNSwxMjQuOTMgQzEyNC44NywxNDAuOTYgMTU4LjI1LDE0OS4wNiAxODIuODYsMTUzLjA5ICIgZmlsbD0ibm9uZSIgaWQ9IkFETUlOLVVDMSIgc3R5bGU9InN0cm9rZTojMTgxODE4O3N0cm9rZS13aWR0aDoxLjA7Ii8+PC9nPjwhLS1saW5rIEFETUlOIHRvIFVDOS0tPjxnIGlkPSJsaW5rX0FETUlOX1VDOSI+PHBhdGggZD0iTTYwLjU0LDU0LjQ2IEM4My40Nyw1OS4yNCAxMTcuNjUsNjYuMzUgMTQ4LjE2LDcyLjcxICIgZmlsbD0ibm9uZSIgaWQ9IkFETUlOLVVDOSIgc3R5bGU9InN0cm9rZTojMTgxODE4O3N0cm9rZS13aWR0aDoxLjA7Ii8+PC9nPjwhLS1saW5rIEFETUlOIHRvIFVDNy0tPjxnIGlkPSJsaW5rX0FETUlOX1VDNyI+PHBhdGggZD0iTTYwLjU5LDM5LjM0IEM3MC4yMSwzNi43IDgxLjIzLDM0LjYzIDkxLjUsMzQuOTMgQzE4OS40MSwzNy44MiAyMjIuOTgsNiAzMTEuNSw0Ny45MyBDNDEyLjAzLDk1LjU1IDQ4Ny42OSwyMTMuNTMgNTE0LjcxLDI2MC4zNCAiIGZpbGw9Im5vbmUiIGlkPSJBRE1JTi1VQzciIHN0eWxlPSJzdHJva2U6IzE4MTgxODtzdHJva2Utd2lkdGg6MS4wOyIvPjwvZz48IS0tbGluayBTWVMgdG8gVUM5LS0+PGcgaWQ9ImxpbmtfU1lTX1VDOSI+PHBhdGggZD0iTTYwLjYzLDE0NC45IEM3Mi4zNSwxMzguNiA4Ni40LDEzMS40OCA5OS41LDEyNS45MyBDMTE4LjkyLDExNy43MiAxNDAuNzIsMTEwLjA1IDE2MC4xOSwxMDMuNzIgIiBmaWxsPSJub25lIiBpZD0iU1lTLVVDOSIgc3R5bGU9InN0cm9rZTojMTgxODE4O3N0cm9rZS13aWR0aDoxLjA7Ii8+PC9nPjwhLS1saW5rIFVDMyB0byBVQzQtLT48ZyBpZD0ibGlua19VQzNfVUM0Ij48cGF0aCBkPSJNMjYxLjgzLDQxOC4wNyBDMzIwLjE4LDQwMy40MyA0MTcuNTgwMywzNzguOTk5NyA0NzYuMDcwMywzNjQuMzI5NyAiIGZpbGw9Im5vbmUiIGlkPSJVQzMtdG8tVUM0IiBzdHlsZT0ic3Ryb2tlOiMxODE4MTg7c3Ryb2tlLXdpZHRoOjEuMDtzdHJva2UtZGFzaGFycmF5OjcuMCw3LjA7Ii8+PHBvbHlnb24gZmlsbD0iIzE4MTgxOCIgcG9pbnRzPSI0ODEuODksMzYyLjg3LDQ3Mi4xODczLDM2MS4xNzk3LDQ3Ny4wNDAyLDM2NC4wODY0LDQ3NC4xMzM1LDM2OC45MzkzLDQ4MS44OSwzNjIuODciIHN0eWxlPSJzdHJva2U6IzE4MTgxODtzdHJva2Utd2lkdGg6MS4wOyIvPjx0ZXh0IGZpbGw9IiMwMDAwMDAiIGZvbnQtZmFtaWx5PSJzYW5zLXNlcmlmIiBmb250LXNpemU9IjEzIiBsZW5ndGhBZGp1c3Q9InNwYWNpbmciIHRleHRMZW5ndGg9IjY4IiB4PSIzNDIuNSIgeT0iMzgwLjIxOTEiPiYjMTcxO2luY2x1ZGVzJiMxODc7PC90ZXh0PjwvZz48IS0tbGluayBVQzMgdG8gVUM2LS0+PGcgaWQ9ImxpbmtfVUMzX1VDNiI+PHBhdGggZD0iTTI4MSw0MjYuOSBDMzMyLjEsNDI1LjIzIDM5OC4yNzMyLDQyMy4wNzQ3IDQ1MC45NTMyLDQyMS4zNjQ3ICIgZmlsbD0ibm9uZSIgaWQ9IlVDMy10by1VQzYiIHN0eWxlPSJzdHJva2U6IzE4MTgxODtzdHJva2Utd2lkdGg6MS4wO3N0cm9rZS1kYXNoYXJyYXk6Ny4wLDcuMDsiLz48cG9seWdvbiBmaWxsPSIjMTgxODE4IiBwb2ludHM9IjQ1Ni45NSw0MjEuMTcsNDQ3LjgyNSw0MTcuNDY0MSw0NTEuOTUyNiw0MjEuMzMyMiw0NDguMDg0NSw0MjUuNDU5OSw0NTYuOTUsNDIxLjE3IiBzdHlsZT0ic3Ryb2tlOiMxODE4MTg7c3Ryb2tlLXdpZHRoOjEuMDsiLz48dGV4dCBmaWxsPSIjMDAwMDAwIiBmb250LWZhbWlseT0ic2Fucy1zZXJpZiIgZm9udC1zaXplPSIxMyIgbGVuZ3RoQWRqdXN0PSJzcGFjaW5nIiB0ZXh0TGVuZ3RoPSI2OCIgeD0iMzQyLjUiIHk9IjQyMS4yMTkxIj4mIzE3MTtpbmNsdWRlcyYjMTg3OzwvdGV4dD48L2c+PCEtLWxpbmsgVUM1IHRvIFVDNy0tPjxnIGlkPSJsaW5rX1VDNV9VQzciPjxwYXRoIGQ9Ik0yNjQuNDYsMzQ5LjY2IEMzMTkuNDksMzM0Ljk2IDQwNS43OTMxLDMxMS45MDc4IDQ2NC41OTMxLDI5Ni4yMDc4ICIgZmlsbD0ibm9uZSIgaWQ9IlVDNS10by1VQzciIHN0eWxlPSJzdHJva2U6IzE4MTgxODtzdHJva2Utd2lkdGg6MS4wO3N0cm9rZS1kYXNoYXJyYXk6Ny4wLDcuMDsiLz48cG9seWdvbiBmaWxsPSIjMTgxODE4IiBwb2ludHM9IjQ3MC4zOSwyOTQuNjYsNDYwLjY2MjcsMjkzLjExNzEsNDY1LjU1OTIsMjk1Ljk0OTgsNDYyLjcyNjUsMzAwLjg0NjMsNDcwLjM5LDI5NC42NiIgc3R5bGU9InN0cm9rZTojMTgxODE4O3N0cm9rZS13aWR0aDoxLjA7Ii8+PHRleHQgZmlsbD0iIzAwMDAwMCIgZm9udC1mYW1pbHk9InNhbnMtc2VyaWYiIGZvbnQtc2l6ZT0iMTMiIGxlbmd0aEFkanVzdD0ic3BhY2luZyIgdGV4dExlbmd0aD0iNjIiIHg9IjM0NS41IiB5PSIzMTAuMjE5MSI+JiMxNzE7ZXh0ZW5kcyYjMTg3OzwvdGV4dD48L2c+PCEtLWxpbmsgVUMyIHRvIFVDNy0tPjxnIGlkPSJsaW5rX1VDMl9VQzciPjxwYXRoIGQ9Ik0yNzIuMzMsMjMyLjEgQzMyNC42OSwyNDIgMzk4LjQyNDMsMjU1LjkyNiA0NTQuMzY0MywyNjYuNDk2ICIgZmlsbD0ibm9uZSIgaWQ9IlVDMi10by1VQzciIHN0eWxlPSJzdHJva2U6IzE4MTgxODtzdHJva2Utd2lkdGg6MS4wO3N0cm9rZS1kYXNoYXJyYXk6Ny4wLDcuMDsiLz48cG9seWdvbiBmaWxsPSIjMTgxODE4IiBwb2ludHM9IjQ2MC4yNiwyNjcuNjEsNDUyLjE1OTIsMjYyLjAwODUsNDU1LjM0NjksMjY2LjY4MTcsNDUwLjY3MzgsMjY5Ljg2OTQsNDYwLjI2LDI2Ny42MSIgc3R5bGU9InN0cm9rZTojMTgxODE4O3N0cm9rZS13aWR0aDoxLjA7Ii8+PHRleHQgZmlsbD0iIzAwMDAwMCIgZm9udC1mYW1pbHk9InNhbnMtc2VyaWYiIGZvbnQtc2l6ZT0iMTMiIGxlbmd0aEFkanVzdD0ic3BhY2luZyIgdGV4dExlbmd0aD0iNjIiIHg9IjM0NS41IiB5PSIyNDQuMjE5MSI+JiMxNzE7ZXh0ZW5kcyYjMTg3OzwvdGV4dD48L2c+PCEtLVNSQz1bUlA5Vkp5OG01Q05WLW9ia1VGNDlaMjNfMzI1MUc0Q1luWlhkdWtGRFRYcUROT2pqNE9kbmt4anM2elJmcy1xdmx2eGp4YXBHZ21NaEdGRGlPbzdiY1hCQmJNSGNvLUtFRFVRMFlMS3dpYVQxVzBTb0FZVjZsMFFqczkxazBIZzhlLUxaQlN4SWQ0a2xwWFJock5xakhxVFpBVlR3ejE4bnZYdzRDWWpJTXBFazFQUzRRdklPS0t4SUdhcl9DZTJ6ZUdIRG1Uc2ZoNGdFdm5VWDRIN2dQMEN0bVlyWEFnOFI0alRBUlU2OTlyaXctUnRWMlE5dTdvWTJKbHZid0N6SDlZR1EyVnNHQTJydW1BRFJlMjg2OFY3Q3dMMGJtODhpU2I0NzNLRmliWUhmNUIyS1J0a2tFVE5HQThHVWo3aGRBTEtoR3huQnFQeDhDVmpZeDBuU0V3MTllMmxLUkZaRUNEU0pqRGwtIC1fdEN0TTNrMVZDZWNGbDFGN0pmbGtQNmwyLXlwV3lFdV8zV1J2VnpEZ3VOX3FORDV5WEE5Y0FWcWxkb212OUNjdWxDVXozZko1ckRTME1KMkl6WEN2cTZyazJsclEtaWVSVjhIdlRFenRfZDZtMDBdLS0+PC9nPjwvc3ZnPg==;" vertex="1" parent="1">
            <mxGeometry x="-700" y="-160" width="633" height="516" as="geometry" />
          </mxCell>
        </UserObject>
        <UserObject label="" plantUmlData="{&#xa;  &quot;data&quot;: &quot;@startuml Airline Management System - Class Diagram\n\npackage \&quot;Model\&quot; {\n  class User {\n    -userId: String\n    -username: String\n    -password: String\n    -email: String\n    -phoneNumber: String\n    +login(): boolean\n    +register(): boolean\n    +updateProfile(): boolean\n  }\n  \n  class Customer extends User {\n    -bookingHistory: List&lt;Booking&gt;\n    +searchFlights(criteria: SearchCriteria): List&lt;Flight&gt;\n    +bookTicket(flight: Flight): Booking\n    +cancelTicket(booking: Booking): boolean\n    +viewTicketDetails(bookingId: String): Booking\n  }\n  \n  class Admin extends User {\n    -adminRole: String\n    +updateFlightInfo(flight: Flight): boolean\n    +generateReports(): Report\n    +provideFlightUpdates(flight: Flight, update: String): boolean\n  }\n  \n  class Flight {\n    -flightId: String\n    -flightNumber: String\n    -source: Airport\n    -destination: Airport\n    -departureTime: DateTime\n    -arrivalTime: DateTime\n    -status: FlightStatus\n    -availableSeats: Map&lt;SeatCategory, Integer&gt;\n    -price: Map&lt;SeatCategory, Double&gt;\n    +getAvailableSeats(): int\n    +updateStatus(status: FlightStatus): void\n  }\n  \n  class Booking {\n    -bookingId: String\n    -flight: Flight\n    -customer: Customer\n    -seats: List&lt;Seat&gt;\n    -bookingDate: DateTime\n    -status: BookingStatus\n    -totalAmount: double\n    -paymentStatus: PaymentStatus\n    +calculateFare(): double\n    +confirmBooking(): boolean\n    +cancelBooking(): boolean\n    +generateTicket(): Ticket\n  }\n  \n  class Seat {\n    -seatNumber: String\n    -category: SeatCategory\n    -price: double\n    -isBooked: boolean\n    +book(): boolean\n    +unbook(): boolean\n  }\n  \n  class Airport {\n    -code: String\n    -name: String\n    -city: String\n    -country: String\n  }\n  \n  class Payment {\n    -paymentId: String\n    -booking: Booking\n    -amount: double\n    -paymentMethod: PaymentMethod\n    -paymentDate: DateTime\n    -status: PaymentStatus\n    +processPayment(): boolean\n    +generateReceipt(): Receipt\n  }\n  \n  class Ticket {\n    -ticketId: String\n    -booking: Booking\n    -passengerName: String\n    -seatNumber: String\n    -boardingTime: DateTime\n    -gate: String\n    -status: TicketStatus\n    +displayTicket(): void\n    +cancelTicket(): boolean\n  }\n  \n  enum FlightStatus {\n    SCHEDULED\n    DELAYED\n    BOARDING\n    IN_AIR\n    LANDED\n    CANCELLED\n  }\n  \n  enum BookingStatus {\n    PENDING\n    CONFIRMED\n    CANCELLED\n  }\n  \n  enum SeatCategory {\n    ECONOMY\n    BUSINESS\n    FIRST_CLASS\n  }\n  \n  enum PaymentStatus {\n    PENDING\n    COMPLETED\n    FAILED\n    REFUNDED\n  }\n  \n  enum PaymentMethod {\n    CREDIT_CARD\n    DEBIT_CARD\n    NET_BANKING\n    WALLET\n  }\n  \n  enum TicketStatus {\n    VALID\n    CHECKED_IN\n    USED\n    CANCELLED\n  }\n}\n\npackage \&quot;View\&quot; {\n  class LoginView\n  class FlightSearchView\n  class BookingView\n  class SeatSelectionView\n  class PaymentView\n  class TicketView\n  class BookingHistoryView\n  class AdminDashboardView\n}\n\npackage \&quot;Controller\&quot; {\n  class UserController {\n    +authenticateUser(username: String, password: String): User\n    +registerUser(userData: Map&lt;String, String&gt;): boolean\n  }\n  \n  class FlightController {\n    +searchFlights(source: String, destination: String, date: Date): List&lt;Flight&gt;\n    +getFlightDetails(flightId: String): Flight\n    +updateFlightStatus(flightId: String, status: FlightStatus): boolean\n  }\n  \n  class BookingController {\n    +createBooking(customerId: String, flightId: String): Booking\n    +selectSeats(bookingId: String, seatNumbers: List&lt;String&gt;): boolean\n    +confirmBooking(bookingId: String): boolean\n    +cancelBooking(bookingId: String): boolean\n    +getBookingDetails(bookingId: String): Booking\n  }\n  \n  class PaymentController {\n    +processPayment(bookingId: String, paymentMethod: PaymentMethod): boolean\n    +verifyPayment(paymentId: String): boolean\n    +initiateRefund(bookingId: String): boolean\n  }\n}\n\n&#39; Relationships\nCustomer \&quot;1\&quot; -- \&quot;*\&quot; Booking : makes\nBooking \&quot;*\&quot; -- \&quot;1\&quot; Flight : for\nBooking \&quot;1\&quot; -- \&quot;1\&quot; Payment : has\nBooking \&quot;1\&quot; -- \&quot;*\&quot; Ticket : generates\nFlight \&quot;*\&quot; -- \&quot;2\&quot; Airport : connects\nBooking \&quot;*\&quot; -- \&quot;*\&quot; Seat : includes\nUser &lt;|-- Customer\nUser &lt;|-- Admin\n\n&#39; MVC Relationships\nUserController -- LoginView\nUserController -- User\nFlightController -- FlightSearchView\nFlightController -- Flight\nBookingController -- BookingView\nBookingController -- SeatSelectionView\nBookingController -- BookingHistoryView\nBookingController -- Booking\nPaymentController -- PaymentView\nPaymentController -- Payment\n\n@enduml&quot;,&#xa;  &quot;format&quot;: &quot;svg&quot;&#xa;}" id="7hjEcoK-xNjLgvXYdvap-3">
          <mxCell style="shape=image;noLabel=1;verticalAlign=top;aspect=fixed;imageAspect=0;image=data:image/svg+xml,PD94bWwgdmVyc2lvbj0iMS4wIiBlbmNvZGluZz0idXMtYXNjaWkiIHN0YW5kYWxvbmU9Im5vIj8+PHN2ZyB4bWxucz0iaHR0cDovL3d3dy53My5vcmcvMjAwMC9zdmciIHhtbG5zOnhsaW5rPSJodHRwOi8vd3d3LnczLm9yZy8xOTk5L3hsaW5rIiBjb250ZW50U3R5bGVUeXBlPSJ0ZXh0L2NzcyIgaGVpZ2h0PSIxMzkzcHgiIHByZXNlcnZlQXNwZWN0UmF0aW89Im5vbmUiIHN0eWxlPSJ3aWR0aDozMjAxcHg7aGVpZ2h0OjEzOTNweDtiYWNrZ3JvdW5kOiNGRkZGRkY7IiB2ZXJzaW9uPSIxLjEiIHZpZXdCb3g9IjAgMCAzMjAxIDEzOTMiIHdpZHRoPSIzMjAxcHgiIHpvb21BbmRQYW49Im1hZ25pZnkiPjxkZWZzLz48Zz48IS0tY2x1c3RlciBNb2RlbC0tPjxnIGlkPSJjbHVzdGVyX01vZGVsIj48cGF0aCBkPSJNNDYuNSwyMTEgTDgyLjUsMjExIEEzLjc1LDMuNzUgMCAwIDEgODUsMjEzLjUgTDkyLDIzMS45ODQ0IEwxNDMwLjUsMjMxLjk4NDQgQTIuNSwyLjUgMCAwIDEgMTQzMywyMzQuNDg0NCBMMTQzMywxMzgzLjUgQTIuNSwyLjUgMCAwIDEgMTQzMC41LDEzODYgTDQ2LjUsMTM4NiBBMi41LDIuNSAwIDAgMSA0NCwxMzgzLjUgTDQ0LDIxMy41IEEyLjUsMi41IDAgMCAxIDQ2LjUsMjExICIgZmlsbD0ibm9uZSIgc3R5bGU9InN0cm9rZTojMDAwMDAwO3N0cm9rZS13aWR0aDoxLjU7Ii8+PGxpbmUgc3R5bGU9InN0cm9rZTojMDAwMDAwO3N0cm9rZS13aWR0aDoxLjU7IiB4MT0iNDQiIHgyPSI5MiIgeTE9IjIzMS45ODQ0IiB5Mj0iMjMxLjk4NDQiLz48dGV4dCBmaWxsPSIjMDAwMDAwIiBmb250LWZhbWlseT0ic2Fucy1zZXJpZiIgZm9udC1zaXplPSIxNCIgZm9udC13ZWlnaHQ9ImJvbGQiIGxlbmd0aEFkanVzdD0ic3BhY2luZyIgdGV4dExlbmd0aD0iMzUiIHg9IjQ4IiB5PSIyMjYuMjM0NCI+TW9kZWw8L3RleHQ+PC9nPjwhLS1jbHVzdGVyIFZpZXctLT48ZyBpZD0iY2x1c3Rlcl9WaWV3Ij48cGF0aCBkPSJNMTQ1OS41LDI3MSBMMTQ4OS41LDI3MSBBMy43NSwzLjc1IDAgMCAxIDE0OTIsMjczLjUgTDE0OTksMjkxLjk4NDQgTDI3NjguNSwyOTEuOTg0NCBBMi41LDIuNSAwIDAgMSAyNzcxLDI5NC40ODQ0IEwyNzcxLDM2NS41IEEyLjUsMi41IDAgMCAxIDI3NjguNSwzNjggTDE0NTkuNSwzNjggQTIuNSwyLjUgMCAwIDEgMTQ1NywzNjUuNSBMMTQ1NywyNzMuNSBBMi41LDIuNSAwIDAgMSAxNDU5LjUsMjcxICIgZmlsbD0ibm9uZSIgc3R5bGU9InN0cm9rZTojMDAwMDAwO3N0cm9rZS13aWR0aDoxLjU7Ii8+PGxpbmUgc3R5bGU9InN0cm9rZTojMDAwMDAwO3N0cm9rZS13aWR0aDoxLjU7IiB4MT0iMTQ1NyIgeDI9IjE0OTkiIHkxPSIyOTEuOTg0NCIgeTI9IjI5MS45ODQ0Ii8+PHRleHQgZmlsbD0iIzAwMDAwMCIgZm9udC1mYW1pbHk9InNhbnMtc2VyaWYiIGZvbnQtc2l6ZT0iMTQiIGZvbnQtd2VpZ2h0PSJib2xkIiBsZW5ndGhBZGp1c3Q9InNwYWNpbmciIHRleHRMZW5ndGg9IjI5IiB4PSIxNDYxIiB5PSIyODYuMjM0NCI+VmlldzwvdGV4dD48L2c+PCEtLWNsdXN0ZXIgQ29udHJvbGxlci0tPjxnIGlkPSJjbHVzdGVyX0NvbnRyb2xsZXIiPjxwYXRoIGQ9Ik0xMDM2LjUsNiBMMTEwNy41LDYgQTMuNzUsMy43NSAwIDAgMSAxMTEwLDguNSBMMTExNywyNi45ODQ0IEwzMTkxLjUsMjYuOTg0NCBBMi41LDIuNSAwIDAgMSAzMTk0LDI5LjQ4NDQgTDMxOTQsMTc1LjUgQTIuNSwyLjUgMCAwIDEgMzE5MS41LDE3OCBMMTAzNi41LDE3OCBBMi41LDIuNSAwIDAgMSAxMDM0LDE3NS41IEwxMDM0LDguNSBBMi41LDIuNSAwIDAgMSAxMDM2LjUsNiAiIGZpbGw9Im5vbmUiIHN0eWxlPSJzdHJva2U6IzAwMDAwMDtzdHJva2Utd2lkdGg6MS41OyIvPjxsaW5lIHN0eWxlPSJzdHJva2U6IzAwMDAwMDtzdHJva2Utd2lkdGg6MS41OyIgeDE9IjEwMzQiIHgyPSIxMTE3IiB5MT0iMjYuOTg0NCIgeTI9IjI2Ljk4NDQiLz48dGV4dCBmaWxsPSIjMDAwMDAwIiBmb250LWZhbWlseT0ic2Fucy1zZXJpZiIgZm9udC1zaXplPSIxNCIgZm9udC13ZWlnaHQ9ImJvbGQiIGxlbmd0aEFkanVzdD0ic3BhY2luZyIgdGV4dExlbmd0aD0iNzAiIHg9IjEwMzgiIHk9IjIxLjIzNDQiPkNvbnRyb2xsZXI8L3RleHQ+PC9nPjwhLS1jbGFzcyBVc2VyLS0+PGcgaWQ9ImVsZW1fVXNlciI+PHJlY3QgY29kZUxpbmU9IjIiIGZpbGw9IiNGMUYxRjEiIGhlaWdodD0iMTY3Ljg3NSIgaWQ9IlVzZXIiIHJ4PSIyLjUiIHJ5PSIyLjUiIHN0eWxlPSJzdHJva2U6IzE4MTgxODtzdHJva2Utd2lkdGg6MC41OyIgd2lkdGg9IjE5NiIgeD0iNjUxIiB5PSIyNDQiLz48ZWxsaXBzZSBjeD0iNzMwLjc1IiBjeT0iMjYwIiBmaWxsPSIjQUREMUIyIiByeD0iMTEiIHJ5PSIxMSIgc3R5bGU9InN0cm9rZTojMTgxODE4O3N0cm9rZS13aWR0aDoxLjA7Ii8+PHBhdGggZD0iTTcyOC4zNzUsMjY0LjI1IEw3MjguMzc1LDI2NiBMNzMzLjMxMjUsMjY2IEw3MzMuMzEyNSwyNjQuMjUgTDcyOC4zNzUsMjY0LjI1IFogTTcyOS4wNjI1LDI2NC45Mzc1IFE3MjkuMDYyNSwyNjQuOTM3NSA3MjkuMDYyNSwyNTUuNzUgTDcyNy4zMTI1LDI1NS43NSBRNzI3LjMxMjUsMjU1Ljc1IDcyNy4zMTI1LDI2NC45Mzc1IEw3MjkuMDYyNSwyNjQuOTM3NSBaIE03MzIuNjI1LDI2NC45Mzc1IEw3MzQuMzc1LDI2NC45Mzc1IFE3MzQuMzc1LDI2NC45Mzc1IDczNC4zNzUsMjYyLjEyNSBMNzMyLjYyNSwyNjIuMTI1IFE3MzIuNjI1LDI2Mi4xMjUgNzMyLjYyNSwyNjQuOTM3NSBaIE03MzIuNjI1LDI1NS43NSBRNzMyLjYyNSwyNTUuNzUgNzMyLjYyNSwyNTguNTYyNSBMNzM0LjM3NSwyNTguNTYyNSBRNzM0LjM3NSwyNTguNTYyNSA3MzQuMzc1LDI1NS43NSBMNzMyLjYyNSwyNTUuNzUgWiBNNzI4LjM3NSwyNTYuNDM3NSBMNzMzLjMxMjUsMjU2LjQzNzUgTDczMy4zMTI1LDI1NC42ODc1IEw3MjguMzc1LDI1NC42ODc1IEw3MjguMzc1LDI1Ni40Mzc1IFogIiBmaWxsPSIjMDAwMDAwIi8+PHRleHQgZmlsbD0iIzAwMDAwMCIgZm9udC1mYW1pbHk9InNhbnMtc2VyaWYiIGZvbnQtc2l6ZT0iMTQiIGxlbmd0aEFkanVzdD0ic3BhY2luZyIgdGV4dExlbmd0aD0iMjgiIHg9Ijc1MS4yNSIgeT0iMjY1Ljc0MjIiPlVzZXI8L3RleHQ+PGxpbmUgc3R5bGU9InN0cm9rZTojMTgxODE4O3N0cm9rZS13aWR0aDowLjU7IiB4MT0iNjUyIiB4Mj0iODQ2IiB5MT0iMjc2IiB5Mj0iMjc2Ii8+PHJlY3QgZmlsbD0ibm9uZSIgaGVpZ2h0PSI2IiBzdHlsZT0ic3Ryb2tlOiNDODI5MzA7c3Ryb2tlLXdpZHRoOjEuMDsiIHdpZHRoPSI2IiB4PSI2NTkiIHk9IjI4NS45OTIyIi8+PHRleHQgZmlsbD0iIzAwMDAwMCIgZm9udC1mYW1pbHk9InNhbnMtc2VyaWYiIGZvbnQtc2l6ZT0iMTQiIGxlbmd0aEFkanVzdD0ic3BhY2luZyIgdGV4dExlbmd0aD0iOTgiIHg9IjY3MSIgeT0iMjkzLjIzNDQiPnVzZXJJZDogU3RyaW5nPC90ZXh0PjxyZWN0IGZpbGw9Im5vbmUiIGhlaWdodD0iNiIgc3R5bGU9InN0cm9rZTojQzgyOTMwO3N0cm9rZS13aWR0aDoxLjA7IiB3aWR0aD0iNiIgeD0iNjU5IiB5PSIzMDAuOTc2NiIvPjx0ZXh0IGZpbGw9IiMwMDAwMDAiIGZvbnQtZmFtaWx5PSJzYW5zLXNlcmlmIiBmb250LXNpemU9IjE0IiBsZW5ndGhBZGp1c3Q9InNwYWNpbmciIHRleHRMZW5ndGg9IjExMyIgeD0iNjcxIiB5PSIzMDguMjE4OCI+dXNlcm5hbWU6IFN0cmluZzwvdGV4dD48cmVjdCBmaWxsPSJub25lIiBoZWlnaHQ9IjYiIHN0eWxlPSJzdHJva2U6I0M4MjkzMDtzdHJva2Utd2lkdGg6MS4wOyIgd2lkdGg9IjYiIHg9IjY1OSIgeT0iMzE1Ljk2MDkiLz48dGV4dCBmaWxsPSIjMDAwMDAwIiBmb250LWZhbWlseT0ic2Fucy1zZXJpZiIgZm9udC1zaXplPSIxNCIgbGVuZ3RoQWRqdXN0PSJzcGFjaW5nIiB0ZXh0TGVuZ3RoPSIxMTMiIHg9IjY3MSIgeT0iMzIzLjIwMzEiPnBhc3N3b3JkOiBTdHJpbmc8L3RleHQ+PHJlY3QgZmlsbD0ibm9uZSIgaGVpZ2h0PSI2IiBzdHlsZT0ic3Ryb2tlOiNDODI5MzA7c3Ryb2tlLXdpZHRoOjEuMDsiIHdpZHRoPSI2IiB4PSI2NTkiIHk9IjMzMC45NDUzIi8+PHRleHQgZmlsbD0iIzAwMDAwMCIgZm9udC1mYW1pbHk9InNhbnMtc2VyaWYiIGZvbnQtc2l6ZT0iMTQiIGxlbmd0aEFkanVzdD0ic3BhY2luZyIgdGV4dExlbmd0aD0iOTIiIHg9IjY3MSIgeT0iMzM4LjE4NzUiPmVtYWlsOiBTdHJpbmc8L3RleHQ+PHJlY3QgZmlsbD0ibm9uZSIgaGVpZ2h0PSI2IiBzdHlsZT0ic3Ryb2tlOiNDODI5MzA7c3Ryb2tlLXdpZHRoOjEuMDsiIHdpZHRoPSI2IiB4PSI2NTkiIHk9IjM0NS45Mjk3Ii8+PHRleHQgZmlsbD0iIzAwMDAwMCIgZm9udC1mYW1pbHk9InNhbnMtc2VyaWYiIGZvbnQtc2l6ZT0iMTQiIGxlbmd0aEFkanVzdD0ic3BhY2luZyIgdGV4dExlbmd0aD0iMTM0IiB4PSI2NzEiIHk9IjM1My4xNzE5Ij5waG9uZU51bWJlcjogU3RyaW5nPC90ZXh0PjxsaW5lIHN0eWxlPSJzdHJva2U6IzE4MTgxODtzdHJva2Utd2lkdGg6MC41OyIgeDE9IjY1MiIgeDI9Ijg0NiIgeTE9IjM1OC45MjE5IiB5Mj0iMzU4LjkyMTkiLz48ZWxsaXBzZSBjeD0iNjYyIiBjeT0iMzcxLjkxNDEiIGZpbGw9IiM4NEJFODQiIHJ4PSIzIiByeT0iMyIgc3R5bGU9InN0cm9rZTojMDM4MDQ4O3N0cm9rZS13aWR0aDoxLjA7Ii8+PHRleHQgZmlsbD0iIzAwMDAwMCIgZm9udC1mYW1pbHk9InNhbnMtc2VyaWYiIGZvbnQtc2l6ZT0iMTQiIGxlbmd0aEFkanVzdD0ic3BhY2luZyIgdGV4dExlbmd0aD0iMTE0IiB4PSI2NzEiIHk9IjM3Ni4xNTYzIj5sb2dpbigpOiBib29sZWFuPC90ZXh0PjxlbGxpcHNlIGN4PSI2NjIiIGN5PSIzODYuODk4NCIgZmlsbD0iIzg0QkU4NCIgcng9IjMiIHJ5PSIzIiBzdHlsZT0ic3Ryb2tlOiMwMzgwNDg7c3Ryb2tlLXdpZHRoOjEuMDsiLz48dGV4dCBmaWxsPSIjMDAwMDAwIiBmb250LWZhbWlseT0ic2Fucy1zZXJpZiIgZm9udC1zaXplPSIxNCIgbGVuZ3RoQWRqdXN0PSJzcGFjaW5nIiB0ZXh0TGVuZ3RoPSIxMzUiIHg9IjY3MSIgeT0iMzkxLjE0MDYiPnJlZ2lzdGVyKCk6IGJvb2xlYW48L3RleHQ+PGVsbGlwc2UgY3g9IjY2MiIgY3k9IjQwMS44ODI4IiBmaWxsPSIjODRCRTg0IiByeD0iMyIgcnk9IjMiIHN0eWxlPSJzdHJva2U6IzAzODA0ODtzdHJva2Utd2lkdGg6MS4wOyIvPjx0ZXh0IGZpbGw9IiMwMDAwMDAiIGZvbnQtZmFtaWx5PSJzYW5zLXNlcmlmIiBmb250LXNpemU9IjE0IiBsZW5ndGhBZGp1c3Q9InNwYWNpbmciIHRleHRMZW5ndGg9IjE3MCIgeD0iNjcxIiB5PSI0MDYuMTI1Ij51cGRhdGVQcm9maWxlKCk6IGJvb2xlYW48L3RleHQ+PC9nPjwhLS1jbGFzcyBDdXN0b21lci0tPjxnIGlkPSJlbGVtX0N1c3RvbWVyIj48cmVjdCBjb2RlTGluZT0iMTMiIGZpbGw9IiNGMUYxRjEiIGhlaWdodD0iMTIyLjkyMTkiIGlkPSJDdXN0b21lciIgcng9IjIuNSIgcnk9IjIuNSIgc3R5bGU9InN0cm9rZTojMTgxODE4O3N0cm9rZS13aWR0aDowLjU7IiB3aWR0aD0iMzk5IiB4PSI1NDkuNSIgeT0iNDczIi8+PGVsbGlwc2UgY3g9IjcxNi4yNSIgY3k9IjQ4OSIgZmlsbD0iI0FERDFCMiIgcng9IjExIiByeT0iMTEiIHN0eWxlPSJzdHJva2U6IzE4MTgxODtzdHJva2Utd2lkdGg6MS4wOyIvPjxwYXRoIGQ9Ik03MTMuODc1LDQ5My4yNSBMNzEzLjg3NSw0OTUgTDcxOC44MTI1LDQ5NSBMNzE4LjgxMjUsNDkzLjI1IEw3MTMuODc1LDQ5My4yNSBaIE03MTQuNTYyNSw0OTMuOTM3NSBRNzE0LjU2MjUsNDkzLjkzNzUgNzE0LjU2MjUsNDg0Ljc1IEw3MTIuODEyNSw0ODQuNzUgUTcxMi44MTI1LDQ4NC43NSA3MTIuODEyNSw0OTMuOTM3NSBMNzE0LjU2MjUsNDkzLjkzNzUgWiBNNzE4LjEyNSw0OTMuOTM3NSBMNzE5Ljg3NSw0OTMuOTM3NSBRNzE5Ljg3NSw0OTMuOTM3NSA3MTkuODc1LDQ5MS4xMjUgTDcxOC4xMjUsNDkxLjEyNSBRNzE4LjEyNSw0OTEuMTI1IDcxOC4xMjUsNDkzLjkzNzUgWiBNNzE4LjEyNSw0ODQuNzUgUTcxOC4xMjUsNDg0Ljc1IDcxOC4xMjUsNDg3LjU2MjUgTDcxOS44NzUsNDg3LjU2MjUgUTcxOS44NzUsNDg3LjU2MjUgNzE5Ljg3NSw0ODQuNzUgTDcxOC4xMjUsNDg0Ljc1IFogTTcxMy44NzUsNDg1LjQzNzUgTDcxOC44MTI1LDQ4NS40Mzc1IEw3MTguODEyNSw0ODMuNjg3NSBMNzEzLjg3NSw0ODMuNjg3NSBMNzEzLjg3NSw0ODUuNDM3NSBaICIgZmlsbD0iIzAwMDAwMCIvPjx0ZXh0IGZpbGw9IiMwMDAwMDAiIGZvbnQtZmFtaWx5PSJzYW5zLXNlcmlmIiBmb250LXNpemU9IjE0IiBsZW5ndGhBZGp1c3Q9InNwYWNpbmciIHRleHRMZW5ndGg9IjU3IiB4PSI3MzYuNzUiIHk9IjQ5NC43NDIyIj5DdXN0b21lcjwvdGV4dD48bGluZSBzdHlsZT0ic3Ryb2tlOiMxODE4MTg7c3Ryb2tlLXdpZHRoOjAuNTsiIHgxPSI1NTAuNSIgeDI9Ijk0Ny41IiB5MT0iNTA1IiB5Mj0iNTA1Ii8+PHJlY3QgZmlsbD0ibm9uZSIgaGVpZ2h0PSI2IiBzdHlsZT0ic3Ryb2tlOiNDODI5MzA7c3Ryb2tlLXdpZHRoOjEuMDsiIHdpZHRoPSI2IiB4PSI1NTcuNSIgeT0iNTE0Ljk5MjIiLz48dGV4dCBmaWxsPSIjMDAwMDAwIiBmb250LWZhbWlseT0ic2Fucy1zZXJpZiIgZm9udC1zaXplPSIxNCIgbGVuZ3RoQWRqdXN0PSJzcGFjaW5nIiB0ZXh0TGVuZ3RoPSIyMDMiIHg9IjU2OS41IiB5PSI1MjIuMjM0NCI+Ym9va2luZ0hpc3Rvcnk6IExpc3QmbHQ7Qm9va2luZyZndDs8L3RleHQ+PGxpbmUgc3R5bGU9InN0cm9rZTojMTgxODE4O3N0cm9rZS13aWR0aDowLjU7IiB4MT0iNTUwLjUiIHgyPSI5NDcuNSIgeTE9IjUyNy45ODQ0IiB5Mj0iNTI3Ljk4NDQiLz48ZWxsaXBzZSBjeD0iNTYwLjUiIGN5PSI1NDAuOTc2NiIgZmlsbD0iIzg0QkU4NCIgcng9IjMiIHJ5PSIzIiBzdHlsZT0ic3Ryb2tlOiMwMzgwNDg7c3Ryb2tlLXdpZHRoOjEuMDsiLz48dGV4dCBmaWxsPSIjMDAwMDAwIiBmb250LWZhbWlseT0ic2Fucy1zZXJpZiIgZm9udC1zaXplPSIxNCIgbGVuZ3RoQWRqdXN0PSJzcGFjaW5nIiB0ZXh0TGVuZ3RoPSIzNzMiIHg9IjU2OS41IiB5PSI1NDUuMjE4OCI+c2VhcmNoRmxpZ2h0cyhjcml0ZXJpYTogU2VhcmNoQ3JpdGVyaWEpOiBMaXN0Jmx0O0ZsaWdodCZndDs8L3RleHQ+PGVsbGlwc2UgY3g9IjU2MC41IiBjeT0iNTU1Ljk2MDkiIGZpbGw9IiM4NEJFODQiIHJ4PSIzIiByeT0iMyIgc3R5bGU9InN0cm9rZTojMDM4MDQ4O3N0cm9rZS13aWR0aDoxLjA7Ii8+PHRleHQgZmlsbD0iIzAwMDAwMCIgZm9udC1mYW1pbHk9InNhbnMtc2VyaWYiIGZvbnQtc2l6ZT0iMTQiIGxlbmd0aEFkanVzdD0ic3BhY2luZyIgdGV4dExlbmd0aD0iMjQ3IiB4PSI1NjkuNSIgeT0iNTYwLjIwMzEiPmJvb2tUaWNrZXQoZmxpZ2h0OiBGbGlnaHQpOiBCb29raW5nPC90ZXh0PjxlbGxpcHNlIGN4PSI1NjAuNSIgY3k9IjU3MC45NDUzIiBmaWxsPSIjODRCRTg0IiByeD0iMyIgcnk9IjMiIHN0eWxlPSJzdHJva2U6IzAzODA0ODtzdHJva2Utd2lkdGg6MS4wOyIvPjx0ZXh0IGZpbGw9IiMwMDAwMDAiIGZvbnQtZmFtaWx5PSJzYW5zLXNlcmlmIiBmb250LXNpemU9IjE0IiBsZW5ndGhBZGp1c3Q9InNwYWNpbmciIHRleHRMZW5ndGg9IjI3NSIgeD0iNTY5LjUiIHk9IjU3NS4xODc1Ij5jYW5jZWxUaWNrZXQoYm9va2luZzogQm9va2luZyk6IGJvb2xlYW48L3RleHQ+PGVsbGlwc2UgY3g9IjU2MC41IiBjeT0iNTg1LjkyOTciIGZpbGw9IiM4NEJFODQiIHJ4PSIzIiByeT0iMyIgc3R5bGU9InN0cm9rZTojMDM4MDQ4O3N0cm9rZS13aWR0aDoxLjA7Ii8+PHRleHQgZmlsbD0iIzAwMDAwMCIgZm9udC1mYW1pbHk9InNhbnMtc2VyaWYiIGZvbnQtc2l6ZT0iMTQiIGxlbmd0aEFkanVzdD0ic3BhY2luZyIgdGV4dExlbmd0aD0iMzE4IiB4PSI1NjkuNSIgeT0iNTkwLjE3MTkiPnZpZXdUaWNrZXREZXRhaWxzKGJvb2tpbmdJZDogU3RyaW5nKTogQm9va2luZzwvdGV4dD48L2c+PCEtLWNsYXNzIEFkbWluLS0+PGcgaWQ9ImVsZW1fQWRtaW4iPjxyZWN0IGNvZGVMaW5lPSIyMSIgZmlsbD0iI0YxRjFGMSIgaGVpZ2h0PSIxMDcuOTM3NSIgaWQ9IkFkbWluIiByeD0iMi41IiByeT0iMi41IiBzdHlsZT0ic3Ryb2tlOiMxODE4MTg7c3Ryb2tlLXdpZHRoOjAuNTsiIHdpZHRoPSI0NTUiIHg9IjU5LjUiIHk9IjQ4MC41Ii8+PGVsbGlwc2UgY3g9IjI2NC43NSIgY3k9IjQ5Ni41IiBmaWxsPSIjQUREMUIyIiByeD0iMTEiIHJ5PSIxMSIgc3R5bGU9InN0cm9rZTojMTgxODE4O3N0cm9rZS13aWR0aDoxLjA7Ii8+PHBhdGggZD0iTTI2Mi4zNzUsNTAwLjc1IEwyNjIuMzc1LDUwMi41IEwyNjcuMzEyNSw1MDIuNSBMMjY3LjMxMjUsNTAwLjc1IEwyNjIuMzc1LDUwMC43NSBaIE0yNjMuMDYyNSw1MDEuNDM3NSBRMjYzLjA2MjUsNTAxLjQzNzUgMjYzLjA2MjUsNDkyLjI1IEwyNjEuMzEyNSw0OTIuMjUgUTI2MS4zMTI1LDQ5Mi4yNSAyNjEuMzEyNSw1MDEuNDM3NSBMMjYzLjA2MjUsNTAxLjQzNzUgWiBNMjY2LjYyNSw1MDEuNDM3NSBMMjY4LjM3NSw1MDEuNDM3NSBRMjY4LjM3NSw1MDEuNDM3NSAyNjguMzc1LDQ5OC42MjUgTDI2Ni42MjUsNDk4LjYyNSBRMjY2LjYyNSw0OTguNjI1IDI2Ni42MjUsNTAxLjQzNzUgWiBNMjY2LjYyNSw0OTIuMjUgUTI2Ni42MjUsNDkyLjI1IDI2Ni42MjUsNDk1LjA2MjUgTDI2OC4zNzUsNDk1LjA2MjUgUTI2OC4zNzUsNDk1LjA2MjUgMjY4LjM3NSw0OTIuMjUgTDI2Ni42MjUsNDkyLjI1IFogTTI2Mi4zNzUsNDkyLjkzNzUgTDI2Ny4zMTI1LDQ5Mi45Mzc1IEwyNjcuMzEyNSw0OTEuMTg3NSBMMjYyLjM3NSw0OTEuMTg3NSBMMjYyLjM3NSw0OTIuOTM3NSBaICIgZmlsbD0iIzAwMDAwMCIvPjx0ZXh0IGZpbGw9IiMwMDAwMDAiIGZvbnQtZmFtaWx5PSJzYW5zLXNlcmlmIiBmb250LXNpemU9IjE0IiBsZW5ndGhBZGp1c3Q9InNwYWNpbmciIHRleHRMZW5ndGg9IjM2IiB4PSIyODUuMjUiIHk9IjUwMi4yNDIyIj5BZG1pbjwvdGV4dD48bGluZSBzdHlsZT0ic3Ryb2tlOiMxODE4MTg7c3Ryb2tlLXdpZHRoOjAuNTsiIHgxPSI2MC41IiB4Mj0iNTEzLjUiIHkxPSI1MTIuNSIgeTI9IjUxMi41Ii8+PHJlY3QgZmlsbD0ibm9uZSIgaGVpZ2h0PSI2IiBzdHlsZT0ic3Ryb2tlOiNDODI5MzA7c3Ryb2tlLXdpZHRoOjEuMDsiIHdpZHRoPSI2IiB4PSI2Ny41IiB5PSI1MjIuNDkyMiIvPjx0ZXh0IGZpbGw9IiMwMDAwMDAiIGZvbnQtZmFtaWx5PSJzYW5zLXNlcmlmIiBmb250LXNpemU9IjE0IiBsZW5ndGhBZGp1c3Q9InNwYWNpbmciIHRleHRMZW5ndGg9IjEyMCIgeD0iNzkuNSIgeT0iNTI5LjczNDQiPmFkbWluUm9sZTogU3RyaW5nPC90ZXh0PjxsaW5lIHN0eWxlPSJzdHJva2U6IzE4MTgxODtzdHJva2Utd2lkdGg6MC41OyIgeDE9IjYwLjUiIHgyPSI1MTMuNSIgeTE9IjUzNS40ODQ0IiB5Mj0iNTM1LjQ4NDQiLz48ZWxsaXBzZSBjeD0iNzAuNSIgY3k9IjU0OC40NzY2IiBmaWxsPSIjODRCRTg0IiByeD0iMyIgcnk9IjMiIHN0eWxlPSJzdHJva2U6IzAzODA0ODtzdHJva2Utd2lkdGg6MS4wOyIvPjx0ZXh0IGZpbGw9IiMwMDAwMDAiIGZvbnQtZmFtaWx5PSJzYW5zLXNlcmlmIiBmb250LXNpemU9IjE0IiBsZW5ndGhBZGp1c3Q9InNwYWNpbmciIHRleHRMZW5ndGg9IjI4OSIgeD0iNzkuNSIgeT0iNTUyLjcxODgiPnVwZGF0ZUZsaWdodEluZm8oZmxpZ2h0OiBGbGlnaHQpOiBib29sZWFuPC90ZXh0PjxlbGxpcHNlIGN4PSI3MC41IiBjeT0iNTYzLjQ2MDkiIGZpbGw9IiM4NEJFODQiIHJ4PSIzIiByeT0iMyIgc3R5bGU9InN0cm9rZTojMDM4MDQ4O3N0cm9rZS13aWR0aDoxLjA7Ii8+PHRleHQgZmlsbD0iIzAwMDAwMCIgZm9udC1mYW1pbHk9InNhbnMtc2VyaWYiIGZvbnQtc2l6ZT0iMTQiIGxlbmd0aEFkanVzdD0ic3BhY2luZyIgdGV4dExlbmd0aD0iMTc3IiB4PSI3OS41IiB5PSI1NjcuNzAzMSI+Z2VuZXJhdGVSZXBvcnRzKCk6IFJlcG9ydDwvdGV4dD48ZWxsaXBzZSBjeD0iNzAuNSIgY3k9IjU3OC40NDUzIiBmaWxsPSIjODRCRTg0IiByeD0iMyIgcnk9IjMiIHN0eWxlPSJzdHJva2U6IzAzODA0ODtzdHJva2Utd2lkdGg6MS4wOyIvPjx0ZXh0IGZpbGw9IiMwMDAwMDAiIGZvbnQtZmFtaWx5PSJzYW5zLXNlcmlmIiBmb250LXNpemU9IjE0IiBsZW5ndGhBZGp1c3Q9InNwYWNpbmciIHRleHRMZW5ndGg9IjQyOSIgeD0iNzkuNSIgeT0iNTgyLjY4NzUiPnByb3ZpZGVGbGlnaHRVcGRhdGVzKGZsaWdodDogRmxpZ2h0LCB1cGRhdGU6IFN0cmluZyk6IGJvb2xlYW48L3RleHQ+PC9nPjwhLS1jbGFzcyBGbGlnaHQtLT48ZyBpZD0iZWxlbV9GbGlnaHQiPjxyZWN0IGNvZGVMaW5lPSIyOCIgZmlsbD0iI0YxRjFGMSIgaGVpZ2h0PSIyMTIuODI4MSIgaWQ9IkZsaWdodCIgcng9IjIuNSIgcnk9IjIuNSIgc3R5bGU9InN0cm9rZTojMTgxODE4O3N0cm9rZS13aWR0aDowLjU7IiB3aWR0aD0iMzIwIiB4PSIxNDIiIHk9Ijk3NCIvPjxlbGxpcHNlIGN4PSIyNzYuNzUiIGN5PSI5OTAiIGZpbGw9IiNBREQxQjIiIHJ4PSIxMSIgcnk9IjExIiBzdHlsZT0ic3Ryb2tlOiMxODE4MTg7c3Ryb2tlLXdpZHRoOjEuMDsiLz48cGF0aCBkPSJNMjc0LjM3NSw5OTQuMjUgTDI3NC4zNzUsOTk2IEwyNzkuMzEyNSw5OTYgTDI3OS4zMTI1LDk5NC4yNSBMMjc0LjM3NSw5OTQuMjUgWiBNMjc1LjA2MjUsOTk0LjkzNzUgUTI3NS4wNjI1LDk5NC45Mzc1IDI3NS4wNjI1LDk4NS43NSBMMjczLjMxMjUsOTg1Ljc1IFEyNzMuMzEyNSw5ODUuNzUgMjczLjMxMjUsOTk0LjkzNzUgTDI3NS4wNjI1LDk5NC45Mzc1IFogTTI3OC42MjUsOTk0LjkzNzUgTDI4MC4zNzUsOTk0LjkzNzUgUTI4MC4zNzUsOTk0LjkzNzUgMjgwLjM3NSw5OTIuMTI1IEwyNzguNjI1LDk5Mi4xMjUgUTI3OC42MjUsOTkyLjEyNSAyNzguNjI1LDk5NC45Mzc1IFogTTI3OC42MjUsOTg1Ljc1IFEyNzguNjI1LDk4NS43NSAyNzguNjI1LDk4OC41NjI1IEwyODAuMzc1LDk4OC41NjI1IFEyODAuMzc1LDk4OC41NjI1IDI4MC4zNzUsOTg1Ljc1IEwyNzguNjI1LDk4NS43NSBaIE0yNzQuMzc1LDk4Ni40Mzc1IEwyNzkuMzEyNSw5ODYuNDM3NSBMMjc5LjMxMjUsOTg0LjY4NzUgTDI3NC4zNzUsOTg0LjY4NzUgTDI3NC4zNzUsOTg2LjQzNzUgWiAiIGZpbGw9IiMwMDAwMDAiLz48dGV4dCBmaWxsPSIjMDAwMDAwIiBmb250LWZhbWlseT0ic2Fucy1zZXJpZiIgZm9udC1zaXplPSIxNCIgbGVuZ3RoQWRqdXN0PSJzcGFjaW5nIiB0ZXh0TGVuZ3RoPSI0MiIgeD0iMjk3LjI1IiB5PSI5OTUuNzQyMiI+RmxpZ2h0PC90ZXh0PjxsaW5lIHN0eWxlPSJzdHJva2U6IzE4MTgxODtzdHJva2Utd2lkdGg6MC41OyIgeDE9IjE0MyIgeDI9IjQ2MSIgeTE9IjEwMDYiIHkyPSIxMDA2Ii8+PHJlY3QgZmlsbD0ibm9uZSIgaGVpZ2h0PSI2IiBzdHlsZT0ic3Ryb2tlOiNDODI5MzA7c3Ryb2tlLXdpZHRoOjEuMDsiIHdpZHRoPSI2IiB4PSIxNTAiIHk9IjEwMTUuOTkyMiIvPjx0ZXh0IGZpbGw9IiMwMDAwMDAiIGZvbnQtZmFtaWx5PSJzYW5zLXNlcmlmIiBmb250LXNpemU9IjE0IiBsZW5ndGhBZGp1c3Q9InNwYWNpbmciIHRleHRMZW5ndGg9IjExMiIgeD0iMTYyIiB5PSIxMDIzLjIzNDQiPmZsaWdodElkOiBTdHJpbmc8L3RleHQ+PHJlY3QgZmlsbD0ibm9uZSIgaGVpZ2h0PSI2IiBzdHlsZT0ic3Ryb2tlOiNDODI5MzA7c3Ryb2tlLXdpZHRoOjEuMDsiIHdpZHRoPSI2IiB4PSIxNTAiIHk9IjEwMzAuOTc2NiIvPjx0ZXh0IGZpbGw9IiMwMDAwMDAiIGZvbnQtZmFtaWx5PSJzYW5zLXNlcmlmIiBmb250LXNpemU9IjE0IiBsZW5ndGhBZGp1c3Q9InNwYWNpbmciIHRleHRMZW5ndGg9IjE0MSIgeD0iMTYyIiB5PSIxMDM4LjIxODgiPmZsaWdodE51bWJlcjogU3RyaW5nPC90ZXh0PjxyZWN0IGZpbGw9Im5vbmUiIGhlaWdodD0iNiIgc3R5bGU9InN0cm9rZTojQzgyOTMwO3N0cm9rZS13aWR0aDoxLjA7IiB3aWR0aD0iNiIgeD0iMTUwIiB5PSIxMDQ1Ljk2MDkiLz48dGV4dCBmaWxsPSIjMDAwMDAwIiBmb250LWZhbWlseT0ic2Fucy1zZXJpZiIgZm9udC1zaXplPSIxNCIgbGVuZ3RoQWRqdXN0PSJzcGFjaW5nIiB0ZXh0TGVuZ3RoPSIxMDUiIHg9IjE2MiIgeT0iMTA1My4yMDMxIj5zb3VyY2U6IEFpcnBvcnQ8L3RleHQ+PHJlY3QgZmlsbD0ibm9uZSIgaGVpZ2h0PSI2IiBzdHlsZT0ic3Ryb2tlOiNDODI5MzA7c3Ryb2tlLXdpZHRoOjEuMDsiIHdpZHRoPSI2IiB4PSIxNTAiIHk9IjEwNjAuOTQ1MyIvPjx0ZXh0IGZpbGw9IiMwMDAwMDAiIGZvbnQtZmFtaWx5PSJzYW5zLXNlcmlmIiBmb250LXNpemU9IjE0IiBsZW5ndGhBZGp1c3Q9InNwYWNpbmciIHRleHRMZW5ndGg9IjE0MCIgeD0iMTYyIiB5PSIxMDY4LjE4NzUiPmRlc3RpbmF0aW9uOiBBaXJwb3J0PC90ZXh0PjxyZWN0IGZpbGw9Im5vbmUiIGhlaWdodD0iNiIgc3R5bGU9InN0cm9rZTojQzgyOTMwO3N0cm9rZS13aWR0aDoxLjA7IiB3aWR0aD0iNiIgeD0iMTUwIiB5PSIxMDc1LjkyOTciLz48dGV4dCBmaWxsPSIjMDAwMDAwIiBmb250LWZhbWlseT0ic2Fucy1zZXJpZiIgZm9udC1zaXplPSIxNCIgbGVuZ3RoQWRqdXN0PSJzcGFjaW5nIiB0ZXh0TGVuZ3RoPSIxNjMiIHg9IjE2MiIgeT0iMTA4My4xNzE5Ij5kZXBhcnR1cmVUaW1lOiBEYXRlVGltZTwvdGV4dD48cmVjdCBmaWxsPSJub25lIiBoZWlnaHQ9IjYiIHN0eWxlPSJzdHJva2U6I0M4MjkzMDtzdHJva2Utd2lkdGg6MS4wOyIgd2lkdGg9IjYiIHg9IjE1MCIgeT0iMTA5MC45MTQxIi8+PHRleHQgZmlsbD0iIzAwMDAwMCIgZm9udC1mYW1pbHk9InNhbnMtc2VyaWYiIGZvbnQtc2l6ZT0iMTQiIGxlbmd0aEFkanVzdD0ic3BhY2luZyIgdGV4dExlbmd0aD0iMTQ5IiB4PSIxNjIiIHk9IjEwOTguMTU2MyI+YXJyaXZhbFRpbWU6IERhdGVUaW1lPC90ZXh0PjxyZWN0IGZpbGw9Im5vbmUiIGhlaWdodD0iNiIgc3R5bGU9InN0cm9rZTojQzgyOTMwO3N0cm9rZS13aWR0aDoxLjA7IiB3aWR0aD0iNiIgeD0iMTUwIiB5PSIxMTA1Ljg5ODQiLz48dGV4dCBmaWxsPSIjMDAwMDAwIiBmb250LWZhbWlseT0ic2Fucy1zZXJpZiIgZm9udC1zaXplPSIxNCIgbGVuZ3RoQWRqdXN0PSJzcGFjaW5nIiB0ZXh0TGVuZ3RoPSIxNDAiIHg9IjE2MiIgeT0iMTExMy4xNDA2Ij5zdGF0dXM6IEZsaWdodFN0YXR1czwvdGV4dD48cmVjdCBmaWxsPSJub25lIiBoZWlnaHQ9IjYiIHN0eWxlPSJzdHJva2U6I0M4MjkzMDtzdHJva2Utd2lkdGg6MS4wOyIgd2lkdGg9IjYiIHg9IjE1MCIgeT0iMTEyMC44ODI4Ii8+PHRleHQgZmlsbD0iIzAwMDAwMCIgZm9udC1mYW1pbHk9InNhbnMtc2VyaWYiIGZvbnQtc2l6ZT0iMTQiIGxlbmd0aEFkanVzdD0ic3BhY2luZyIgdGV4dExlbmd0aD0iMjk0IiB4PSIxNjIiIHk9IjExMjguMTI1Ij5hdmFpbGFibGVTZWF0czogTWFwJmx0O1NlYXRDYXRlZ29yeSwgSW50ZWdlciZndDs8L3RleHQ+PHJlY3QgZmlsbD0ibm9uZSIgaGVpZ2h0PSI2IiBzdHlsZT0ic3Ryb2tlOiNDODI5MzA7c3Ryb2tlLXdpZHRoOjEuMDsiIHdpZHRoPSI2IiB4PSIxNTAiIHk9IjExMzUuODY3MiIvPjx0ZXh0IGZpbGw9IiMwMDAwMDAiIGZvbnQtZmFtaWx5PSJzYW5zLXNlcmlmIiBmb250LXNpemU9IjE0IiBsZW5ndGhBZGp1c3Q9InNwYWNpbmciIHRleHRMZW5ndGg9IjIyNCIgeD0iMTYyIiB5PSIxMTQzLjEwOTQiPnByaWNlOiBNYXAmbHQ7U2VhdENhdGVnb3J5LCBEb3VibGUmZ3Q7PC90ZXh0PjxsaW5lIHN0eWxlPSJzdHJva2U6IzE4MTgxODtzdHJva2Utd2lkdGg6MC41OyIgeDE9IjE0MyIgeDI9IjQ2MSIgeTE9IjExNDguODU5NCIgeTI9IjExNDguODU5NCIvPjxlbGxpcHNlIGN4PSIxNTMiIGN5PSIxMTYxLjg1MTYiIGZpbGw9IiM4NEJFODQiIHJ4PSIzIiByeT0iMyIgc3R5bGU9InN0cm9rZTojMDM4MDQ4O3N0cm9rZS13aWR0aDoxLjA7Ii8+PHRleHQgZmlsbD0iIzAwMDAwMCIgZm9udC1mYW1pbHk9InNhbnMtc2VyaWYiIGZvbnQtc2l6ZT0iMTQiIGxlbmd0aEFkanVzdD0ic3BhY2luZyIgdGV4dExlbmd0aD0iMTcwIiB4PSIxNjIiIHk9IjExNjYuMDkzOCI+Z2V0QXZhaWxhYmxlU2VhdHMoKTogaW50PC90ZXh0PjxlbGxpcHNlIGN4PSIxNTMiIGN5PSIxMTc2LjgzNTkiIGZpbGw9IiM4NEJFODQiIHJ4PSIzIiByeT0iMyIgc3R5bGU9InN0cm9rZTojMDM4MDQ4O3N0cm9rZS13aWR0aDoxLjA7Ii8+PHRleHQgZmlsbD0iIzAwMDAwMCIgZm9udC1mYW1pbHk9InNhbnMtc2VyaWYiIGZvbnQtc2l6ZT0iMTQiIGxlbmd0aEFkanVzdD0ic3BhY2luZyIgdGV4dExlbmd0aD0iMjgyIiB4PSIxNjIiIHk9IjExODEuMDc4MSI+dXBkYXRlU3RhdHVzKHN0YXR1czogRmxpZ2h0U3RhdHVzKTogdm9pZDwvdGV4dD48L2c+PCEtLWNsYXNzIEJvb2tpbmctLT48ZyBpZD0iZWxlbV9Cb29raW5nIj48cmVjdCBjb2RlTGluZT0iNDIiIGZpbGw9IiNGMUYxRjEiIGhlaWdodD0iMjI3LjgxMjUiIGlkPSJCb29raW5nIiByeD0iMi41IiByeT0iMi41IiBzdHlsZT0ic3Ryb2tlOiMxODE4MTg7c3Ryb2tlLXdpZHRoOjAuNTsiIHdpZHRoPSIyMjQiIHg9IjcyNSIgeT0iNjcxIi8+PGVsbGlwc2UgY3g9IjgwOC4yNSIgY3k9IjY4NyIgZmlsbD0iI0FERDFCMiIgcng9IjExIiByeT0iMTEiIHN0eWxlPSJzdHJva2U6IzE4MTgxODtzdHJva2Utd2lkdGg6MS4wOyIvPjxwYXRoIGQ9Ik04MDUuODc1LDY5MS4yNSBMODA1Ljg3NSw2OTMgTDgxMC44MTI1LDY5MyBMODEwLjgxMjUsNjkxLjI1IEw4MDUuODc1LDY5MS4yNSBaIE04MDYuNTYyNSw2OTEuOTM3NSBRODA2LjU2MjUsNjkxLjkzNzUgODA2LjU2MjUsNjgyLjc1IEw4MDQuODEyNSw2ODIuNzUgUTgwNC44MTI1LDY4Mi43NSA4MDQuODEyNSw2OTEuOTM3NSBMODA2LjU2MjUsNjkxLjkzNzUgWiBNODEwLjEyNSw2OTEuOTM3NSBMODExLjg3NSw2OTEuOTM3NSBRODExLjg3NSw2OTEuOTM3NSA4MTEuODc1LDY4OS4xMjUgTDgxMC4xMjUsNjg5LjEyNSBRODEwLjEyNSw2ODkuMTI1IDgxMC4xMjUsNjkxLjkzNzUgWiBNODEwLjEyNSw2ODIuNzUgUTgxMC4xMjUsNjgyLjc1IDgxMC4xMjUsNjg1LjU2MjUgTDgxMS44NzUsNjg1LjU2MjUgUTgxMS44NzUsNjg1LjU2MjUgODExLjg3NSw2ODIuNzUgTDgxMC4xMjUsNjgyLjc1IFogTTgwNS44NzUsNjgzLjQzNzUgTDgxMC44MTI1LDY4My40Mzc1IEw4MTAuODEyNSw2ODEuNjg3NSBMODA1Ljg3NSw2ODEuNjg3NSBMODA1Ljg3NSw2ODMuNDM3NSBaICIgZmlsbD0iIzAwMDAwMCIvPjx0ZXh0IGZpbGw9IiMwMDAwMDAiIGZvbnQtZmFtaWx5PSJzYW5zLXNlcmlmIiBmb250LXNpemU9IjE0IiBsZW5ndGhBZGp1c3Q9InNwYWNpbmciIHRleHRMZW5ndGg9IjQ5IiB4PSI4MjguNzUiIHk9IjY5Mi43NDIyIj5Cb29raW5nPC90ZXh0PjxsaW5lIHN0eWxlPSJzdHJva2U6IzE4MTgxODtzdHJva2Utd2lkdGg6MC41OyIgeDE9IjcyNiIgeDI9Ijk0OCIgeTE9IjcwMyIgeTI9IjcwMyIvPjxyZWN0IGZpbGw9Im5vbmUiIGhlaWdodD0iNiIgc3R5bGU9InN0cm9rZTojQzgyOTMwO3N0cm9rZS13aWR0aDoxLjA7IiB3aWR0aD0iNiIgeD0iNzMzIiB5PSI3MTIuOTkyMiIvPjx0ZXh0IGZpbGw9IiMwMDAwMDAiIGZvbnQtZmFtaWx5PSJzYW5zLXNlcmlmIiBmb250LXNpemU9IjE0IiBsZW5ndGhBZGp1c3Q9InNwYWNpbmciIHRleHRMZW5ndGg9IjExOSIgeD0iNzQ1IiB5PSI3MjAuMjM0NCI+Ym9va2luZ0lkOiBTdHJpbmc8L3RleHQ+PHJlY3QgZmlsbD0ibm9uZSIgaGVpZ2h0PSI2IiBzdHlsZT0ic3Ryb2tlOiNDODI5MzA7c3Ryb2tlLXdpZHRoOjEuMDsiIHdpZHRoPSI2IiB4PSI3MzMiIHk9IjcyNy45NzY2Ii8+PHRleHQgZmlsbD0iIzAwMDAwMCIgZm9udC1mYW1pbHk9InNhbnMtc2VyaWYiIGZvbnQtc2l6ZT0iMTQiIGxlbmd0aEFkanVzdD0ic3BhY2luZyIgdGV4dExlbmd0aD0iOTgiIHg9Ijc0NSIgeT0iNzM1LjIxODgiPmZsaWdodDogRmxpZ2h0PC90ZXh0PjxyZWN0IGZpbGw9Im5vbmUiIGhlaWdodD0iNiIgc3R5bGU9InN0cm9rZTojQzgyOTMwO3N0cm9rZS13aWR0aDoxLjA7IiB3aWR0aD0iNiIgeD0iNzMzIiB5PSI3NDIuOTYwOSIvPjx0ZXh0IGZpbGw9IiMwMDAwMDAiIGZvbnQtZmFtaWx5PSJzYW5zLXNlcmlmIiBmb250LXNpemU9IjE0IiBsZW5ndGhBZGp1c3Q9InNwYWNpbmciIHRleHRMZW5ndGg9IjEyOCIgeD0iNzQ1IiB5PSI3NTAuMjAzMSI+Y3VzdG9tZXI6IEN1c3RvbWVyPC90ZXh0PjxyZWN0IGZpbGw9Im5vbmUiIGhlaWdodD0iNiIgc3R5bGU9InN0cm9rZTojQzgyOTMwO3N0cm9rZS13aWR0aDoxLjA7IiB3aWR0aD0iNiIgeD0iNzMzIiB5PSI3NTcuOTQ1MyIvPjx0ZXh0IGZpbGw9IiMwMDAwMDAiIGZvbnQtZmFtaWx5PSJzYW5zLXNlcmlmIiBmb250LXNpemU9IjE0IiBsZW5ndGhBZGp1c3Q9InNwYWNpbmciIHRleHRMZW5ndGg9IjExOSIgeD0iNzQ1IiB5PSI3NjUuMTg3NSI+c2VhdHM6IExpc3QmbHQ7U2VhdCZndDs8L3RleHQ+PHJlY3QgZmlsbD0ibm9uZSIgaGVpZ2h0PSI2IiBzdHlsZT0ic3Ryb2tlOiNDODI5MzA7c3Ryb2tlLXdpZHRoOjEuMDsiIHdpZHRoPSI2IiB4PSI3MzMiIHk9Ijc3Mi45Mjk3Ii8+PHRleHQgZmlsbD0iIzAwMDAwMCIgZm9udC1mYW1pbHk9InNhbnMtc2VyaWYiIGZvbnQtc2l6ZT0iMTQiIGxlbmd0aEFkanVzdD0ic3BhY2luZyIgdGV4dExlbmd0aD0iMTQ4IiB4PSI3NDUiIHk9Ijc4MC4xNzE5Ij5ib29raW5nRGF0ZTogRGF0ZVRpbWU8L3RleHQ+PHJlY3QgZmlsbD0ibm9uZSIgaGVpZ2h0PSI2IiBzdHlsZT0ic3Ryb2tlOiNDODI5MzA7c3Ryb2tlLXdpZHRoOjEuMDsiIHdpZHRoPSI2IiB4PSI3MzMiIHk9Ijc4Ny45MTQxIi8+PHRleHQgZmlsbD0iIzAwMDAwMCIgZm9udC1mYW1pbHk9InNhbnMtc2VyaWYiIGZvbnQtc2l6ZT0iMTQiIGxlbmd0aEFkanVzdD0ic3BhY2luZyIgdGV4dExlbmd0aD0iMTQ3IiB4PSI3NDUiIHk9Ijc5NS4xNTYzIj5zdGF0dXM6IEJvb2tpbmdTdGF0dXM8L3RleHQ+PHJlY3QgZmlsbD0ibm9uZSIgaGVpZ2h0PSI2IiBzdHlsZT0ic3Ryb2tlOiNDODI5MzA7c3Ryb2tlLXdpZHRoOjEuMDsiIHdpZHRoPSI2IiB4PSI3MzMiIHk9IjgwMi44OTg0Ii8+PHRleHQgZmlsbD0iIzAwMDAwMCIgZm9udC1mYW1pbHk9InNhbnMtc2VyaWYiIGZvbnQtc2l6ZT0iMTQiIGxlbmd0aEFkanVzdD0ic3BhY2luZyIgdGV4dExlbmd0aD0iMTM0IiB4PSI3NDUiIHk9IjgxMC4xNDA2Ij50b3RhbEFtb3VudDogZG91YmxlPC90ZXh0PjxyZWN0IGZpbGw9Im5vbmUiIGhlaWdodD0iNiIgc3R5bGU9InN0cm9rZTojQzgyOTMwO3N0cm9rZS13aWR0aDoxLjA7IiB3aWR0aD0iNiIgeD0iNzMzIiB5PSI4MTcuODgyOCIvPjx0ZXh0IGZpbGw9IiMwMDAwMDAiIGZvbnQtZmFtaWx5PSJzYW5zLXNlcmlmIiBmb250LXNpemU9IjE0IiBsZW5ndGhBZGp1c3Q9InNwYWNpbmciIHRleHRMZW5ndGg9IjE5OCIgeD0iNzQ1IiB5PSI4MjUuMTI1Ij5wYXltZW50U3RhdHVzOiBQYXltZW50U3RhdHVzPC90ZXh0PjxsaW5lIHN0eWxlPSJzdHJva2U6IzE4MTgxODtzdHJva2Utd2lkdGg6MC41OyIgeDE9IjcyNiIgeDI9Ijk0OCIgeTE9IjgzMC44NzUiIHkyPSI4MzAuODc1Ii8+PGVsbGlwc2UgY3g9IjczNiIgY3k9Ijg0My44NjcyIiBmaWxsPSIjODRCRTg0IiByeD0iMyIgcnk9IjMiIHN0eWxlPSJzdHJva2U6IzAzODA0ODtzdHJva2Utd2lkdGg6MS4wOyIvPjx0ZXh0IGZpbGw9IiMwMDAwMDAiIGZvbnQtZmFtaWx5PSJzYW5zLXNlcmlmIiBmb250LXNpemU9IjE0IiBsZW5ndGhBZGp1c3Q9InNwYWNpbmciIHRleHRMZW5ndGg9IjE2MyIgeD0iNzQ1IiB5PSI4NDguMTA5NCI+Y2FsY3VsYXRlRmFyZSgpOiBkb3VibGU8L3RleHQ+PGVsbGlwc2UgY3g9IjczNiIgY3k9Ijg1OC44NTE2IiBmaWxsPSIjODRCRTg0IiByeD0iMyIgcnk9IjMiIHN0eWxlPSJzdHJva2U6IzAzODA0ODtzdHJva2Utd2lkdGg6MS4wOyIvPjx0ZXh0IGZpbGw9IiMwMDAwMDAiIGZvbnQtZmFtaWx5PSJzYW5zLXNlcmlmIiBmb250LXNpemU9IjE0IiBsZW5ndGhBZGp1c3Q9InNwYWNpbmciIHRleHRMZW5ndGg9IjE3OCIgeD0iNzQ1IiB5PSI4NjMuMDkzOCI+Y29uZmlybUJvb2tpbmcoKTogYm9vbGVhbjwvdGV4dD48ZWxsaXBzZSBjeD0iNzM2IiBjeT0iODczLjgzNTkiIGZpbGw9IiM4NEJFODQiIHJ4PSIzIiByeT0iMyIgc3R5bGU9InN0cm9rZTojMDM4MDQ4O3N0cm9rZS13aWR0aDoxLjA7Ii8+PHRleHQgZmlsbD0iIzAwMDAwMCIgZm9udC1mYW1pbHk9InNhbnMtc2VyaWYiIGZvbnQtc2l6ZT0iMTQiIGxlbmd0aEFkanVzdD0ic3BhY2luZyIgdGV4dExlbmd0aD0iMTcwIiB4PSI3NDUiIHk9Ijg3OC4wNzgxIj5jYW5jZWxCb29raW5nKCk6IGJvb2xlYW48L3RleHQ+PGVsbGlwc2UgY3g9IjczNiIgY3k9Ijg4OC44MjAzIiBmaWxsPSIjODRCRTg0IiByeD0iMyIgcnk9IjMiIHN0eWxlPSJzdHJva2U6IzAzODA0ODtzdHJva2Utd2lkdGg6MS4wOyIvPjx0ZXh0IGZpbGw9IiMwMDAwMDAiIGZvbnQtZmFtaWx5PSJzYW5zLXNlcmlmIiBmb250LXNpemU9IjE0IiBsZW5ndGhBZGp1c3Q9InNwYWNpbmciIHRleHRMZW5ndGg9IjE3MCIgeD0iNzQ1IiB5PSI4OTMuMDYyNSI+Z2VuZXJhdGVUaWNrZXQoKTogVGlja2V0PC90ZXh0PjwvZz48IS0tY2xhc3MgU2VhdC0tPjxnIGlkPSJlbGVtX1NlYXQiPjxyZWN0IGNvZGVMaW5lPSI1NyIgZmlsbD0iI0YxRjFGMSIgaGVpZ2h0PSIxMzcuOTA2MyIgaWQ9IlNlYXQiIHJ4PSIyLjUiIHJ5PSIyLjUiIHN0eWxlPSJzdHJva2U6IzE4MTgxODtzdHJva2Utd2lkdGg6MC41OyIgd2lkdGg9IjE4MCIgeD0iNjM3IiB5PSIxMDExLjUiLz48ZWxsaXBzZSBjeD0iNzA4Ljc1IiBjeT0iMTAyNy41IiBmaWxsPSIjQUREMUIyIiByeD0iMTEiIHJ5PSIxMSIgc3R5bGU9InN0cm9rZTojMTgxODE4O3N0cm9rZS13aWR0aDoxLjA7Ii8+PHBhdGggZD0iTTcwNi4zNzUsMTAzMS43NSBMNzA2LjM3NSwxMDMzLjUgTDcxMS4zMTI1LDEwMzMuNSBMNzExLjMxMjUsMTAzMS43NSBMNzA2LjM3NSwxMDMxLjc1IFogTTcwNy4wNjI1LDEwMzIuNDM3NSBRNzA3LjA2MjUsMTAzMi40Mzc1IDcwNy4wNjI1LDEwMjMuMjUgTDcwNS4zMTI1LDEwMjMuMjUgUTcwNS4zMTI1LDEwMjMuMjUgNzA1LjMxMjUsMTAzMi40Mzc1IEw3MDcuMDYyNSwxMDMyLjQzNzUgWiBNNzEwLjYyNSwxMDMyLjQzNzUgTDcxMi4zNzUsMTAzMi40Mzc1IFE3MTIuMzc1LDEwMzIuNDM3NSA3MTIuMzc1LDEwMjkuNjI1IEw3MTAuNjI1LDEwMjkuNjI1IFE3MTAuNjI1LDEwMjkuNjI1IDcxMC42MjUsMTAzMi40Mzc1IFogTTcxMC42MjUsMTAyMy4yNSBRNzEwLjYyNSwxMDIzLjI1IDcxMC42MjUsMTAyNi4wNjI1IEw3MTIuMzc1LDEwMjYuMDYyNSBRNzEyLjM3NSwxMDI2LjA2MjUgNzEyLjM3NSwxMDIzLjI1IEw3MTAuNjI1LDEwMjMuMjUgWiBNNzA2LjM3NSwxMDIzLjkzNzUgTDcxMS4zMTI1LDEwMjMuOTM3NSBMNzExLjMxMjUsMTAyMi4xODc1IEw3MDYuMzc1LDEwMjIuMTg3NSBMNzA2LjM3NSwxMDIzLjkzNzUgWiAiIGZpbGw9IiMwMDAwMDAiLz48dGV4dCBmaWxsPSIjMDAwMDAwIiBmb250LWZhbWlseT0ic2Fucy1zZXJpZiIgZm9udC1zaXplPSIxNCIgbGVuZ3RoQWRqdXN0PSJzcGFjaW5nIiB0ZXh0TGVuZ3RoPSIyOCIgeD0iNzI5LjI1IiB5PSIxMDMzLjI0MjIiPlNlYXQ8L3RleHQ+PGxpbmUgc3R5bGU9InN0cm9rZTojMTgxODE4O3N0cm9rZS13aWR0aDowLjU7IiB4MT0iNjM4IiB4Mj0iODE2IiB5MT0iMTA0My41IiB5Mj0iMTA0My41Ii8+PHJlY3QgZmlsbD0ibm9uZSIgaGVpZ2h0PSI2IiBzdHlsZT0ic3Ryb2tlOiNDODI5MzA7c3Ryb2tlLXdpZHRoOjEuMDsiIHdpZHRoPSI2IiB4PSI2NDUiIHk9IjEwNTMuNDkyMiIvPjx0ZXh0IGZpbGw9IiMwMDAwMDAiIGZvbnQtZmFtaWx5PSJzYW5zLXNlcmlmIiBmb250LXNpemU9IjE0IiBsZW5ndGhBZGp1c3Q9InNwYWNpbmciIHRleHRMZW5ndGg9IjEyNyIgeD0iNjU3IiB5PSIxMDYwLjczNDQiPnNlYXROdW1iZXI6IFN0cmluZzwvdGV4dD48cmVjdCBmaWxsPSJub25lIiBoZWlnaHQ9IjYiIHN0eWxlPSJzdHJva2U6I0M4MjkzMDtzdHJva2Utd2lkdGg6MS4wOyIgd2lkdGg9IjYiIHg9IjY0NSIgeT0iMTA2OC40NzY2Ii8+PHRleHQgZmlsbD0iIzAwMDAwMCIgZm9udC1mYW1pbHk9InNhbnMtc2VyaWYiIGZvbnQtc2l6ZT0iMTQiIGxlbmd0aEFkanVzdD0ic3BhY2luZyIgdGV4dExlbmd0aD0iMTU0IiB4PSI2NTciIHk9IjEwNzUuNzE4OCI+Y2F0ZWdvcnk6IFNlYXRDYXRlZ29yeTwvdGV4dD48cmVjdCBmaWxsPSJub25lIiBoZWlnaHQ9IjYiIHN0eWxlPSJzdHJva2U6I0M4MjkzMDtzdHJva2Utd2lkdGg6MS4wOyIgd2lkdGg9IjYiIHg9IjY0NSIgeT0iMTA4My40NjA5Ii8+PHRleHQgZmlsbD0iIzAwMDAwMCIgZm9udC1mYW1pbHk9InNhbnMtc2VyaWYiIGZvbnQtc2l6ZT0iMTQiIGxlbmd0aEFkanVzdD0ic3BhY2luZyIgdGV4dExlbmd0aD0iOTEiIHg9IjY1NyIgeT0iMTA5MC43MDMxIj5wcmljZTogZG91YmxlPC90ZXh0PjxyZWN0IGZpbGw9Im5vbmUiIGhlaWdodD0iNiIgc3R5bGU9InN0cm9rZTojQzgyOTMwO3N0cm9rZS13aWR0aDoxLjA7IiB3aWR0aD0iNiIgeD0iNjQ1IiB5PSIxMDk4LjQ0NTMiLz48dGV4dCBmaWxsPSIjMDAwMDAwIiBmb250LWZhbWlseT0ic2Fucy1zZXJpZiIgZm9udC1zaXplPSIxNCIgbGVuZ3RoQWRqdXN0PSJzcGFjaW5nIiB0ZXh0TGVuZ3RoPSIxMTkiIHg9IjY1NyIgeT0iMTEwNS42ODc1Ij5pc0Jvb2tlZDogYm9vbGVhbjwvdGV4dD48bGluZSBzdHlsZT0ic3Ryb2tlOiMxODE4MTg7c3Ryb2tlLXdpZHRoOjAuNTsiIHgxPSI2MzgiIHgyPSI4MTYiIHkxPSIxMTExLjQzNzUiIHkyPSIxMTExLjQzNzUiLz48ZWxsaXBzZSBjeD0iNjQ4IiBjeT0iMTEyNC40Mjk3IiBmaWxsPSIjODRCRTg0IiByeD0iMyIgcnk9IjMiIHN0eWxlPSJzdHJva2U6IzAzODA0ODtzdHJva2Utd2lkdGg6MS4wOyIvPjx0ZXh0IGZpbGw9IiMwMDAwMDAiIGZvbnQtZmFtaWx5PSJzYW5zLXNlcmlmIiBmb250LXNpemU9IjE0IiBsZW5ndGhBZGp1c3Q9InNwYWNpbmciIHRleHRMZW5ndGg9IjEwNyIgeD0iNjU3IiB5PSIxMTI4LjY3MTkiPmJvb2soKTogYm9vbGVhbjwvdGV4dD48ZWxsaXBzZSBjeD0iNjQ4IiBjeT0iMTEzOS40MTQxIiBmaWxsPSIjODRCRTg0IiByeD0iMyIgcnk9IjMiIHN0eWxlPSJzdHJva2U6IzAzODA0ODtzdHJva2Utd2lkdGg6MS4wOyIvPjx0ZXh0IGZpbGw9IiMwMDAwMDAiIGZvbnQtZmFtaWx5PSJzYW5zLXNlcmlmIiBmb250LXNpemU9IjE0IiBsZW5ndGhBZGp1c3Q9InNwYWNpbmciIHRleHRMZW5ndGg9IjEyMSIgeD0iNjU3IiB5PSIxMTQzLjY1NjMiPnVuYm9vaygpOiBib29sZWFuPC90ZXh0PjwvZz48IS0tY2xhc3MgQWlycG9ydC0tPjxnIGlkPSJlbGVtX0FpcnBvcnQiPjxyZWN0IGNvZGVMaW5lPSI2NiIgZmlsbD0iI0YxRjFGMSIgaGVpZ2h0PSIxMDcuOTM3NSIgaWQ9IkFpcnBvcnQiIHJ4PSIyLjUiIHJ5PSIyLjUiIHN0eWxlPSJzdHJva2U6IzE4MTgxODtzdHJva2Utd2lkdGg6MC41OyIgd2lkdGg9IjEzMSIgeD0iMjM2LjUiIHk9IjEyNjIiLz48ZWxsaXBzZSBjeD0iMjc0IiBjeT0iMTI3OCIgZmlsbD0iI0FERDFCMiIgcng9IjExIiByeT0iMTEiIHN0eWxlPSJzdHJva2U6IzE4MTgxODtzdHJva2Utd2lkdGg6MS4wOyIvPjxwYXRoIGQ9Ik0yNzEuNjI1LDEyODIuMjUgTDI3MS42MjUsMTI4NCBMMjc2LjU2MjUsMTI4NCBMMjc2LjU2MjUsMTI4Mi4yNSBMMjcxLjYyNSwxMjgyLjI1IFogTTI3Mi4zMTI1LDEyODIuOTM3NSBRMjcyLjMxMjUsMTI4Mi45Mzc1IDI3Mi4zMTI1LDEyNzMuNzUgTDI3MC41NjI1LDEyNzMuNzUgUTI3MC41NjI1LDEyNzMuNzUgMjcwLjU2MjUsMTI4Mi45Mzc1IEwyNzIuMzEyNSwxMjgyLjkzNzUgWiBNMjc1Ljg3NSwxMjgyLjkzNzUgTDI3Ny42MjUsMTI4Mi45Mzc1IFEyNzcuNjI1LDEyODIuOTM3NSAyNzcuNjI1LDEyODAuMTI1IEwyNzUuODc1LDEyODAuMTI1IFEyNzUuODc1LDEyODAuMTI1IDI3NS44NzUsMTI4Mi45Mzc1IFogTTI3NS44NzUsMTI3My43NSBRMjc1Ljg3NSwxMjczLjc1IDI3NS44NzUsMTI3Ni41NjI1IEwyNzcuNjI1LDEyNzYuNTYyNSBRMjc3LjYyNSwxMjc2LjU2MjUgMjc3LjYyNSwxMjczLjc1IEwyNzUuODc1LDEyNzMuNzUgWiBNMjcxLjYyNSwxMjc0LjQzNzUgTDI3Ni41NjI1LDEyNzQuNDM3NSBMMjc2LjU2MjUsMTI3Mi42ODc1IEwyNzEuNjI1LDEyNzIuNjg3NSBMMjcxLjYyNSwxMjc0LjQzNzUgWiAiIGZpbGw9IiMwMDAwMDAiLz48dGV4dCBmaWxsPSIjMDAwMDAwIiBmb250LWZhbWlseT0ic2Fucy1zZXJpZiIgZm9udC1zaXplPSIxNCIgbGVuZ3RoQWRqdXN0PSJzcGFjaW5nIiB0ZXh0TGVuZ3RoPSI0OSIgeD0iMjkzIiB5PSIxMjgzLjc0MjIiPkFpcnBvcnQ8L3RleHQ+PGxpbmUgc3R5bGU9InN0cm9rZTojMTgxODE4O3N0cm9rZS13aWR0aDowLjU7IiB4MT0iMjM3LjUiIHgyPSIzNjYuNSIgeTE9IjEyOTQiIHkyPSIxMjk0Ii8+PHJlY3QgZmlsbD0ibm9uZSIgaGVpZ2h0PSI2IiBzdHlsZT0ic3Ryb2tlOiNDODI5MzA7c3Ryb2tlLXdpZHRoOjEuMDsiIHdpZHRoPSI2IiB4PSIyNDQuNSIgeT0iMTMwMy45OTIyIi8+PHRleHQgZmlsbD0iIzAwMDAwMCIgZm9udC1mYW1pbHk9InNhbnMtc2VyaWYiIGZvbnQtc2l6ZT0iMTQiIGxlbmd0aEFkanVzdD0ic3BhY2luZyIgdGV4dExlbmd0aD0iODQiIHg9IjI1Ni41IiB5PSIxMzExLjIzNDQiPmNvZGU6IFN0cmluZzwvdGV4dD48cmVjdCBmaWxsPSJub25lIiBoZWlnaHQ9IjYiIHN0eWxlPSJzdHJva2U6I0M4MjkzMDtzdHJva2Utd2lkdGg6MS4wOyIgd2lkdGg9IjYiIHg9IjI0NC41IiB5PSIxMzE4Ljk3NjYiLz48dGV4dCBmaWxsPSIjMDAwMDAwIiBmb250LWZhbWlseT0ic2Fucy1zZXJpZiIgZm9udC1zaXplPSIxNCIgbGVuZ3RoQWRqdXN0PSJzcGFjaW5nIiB0ZXh0TGVuZ3RoPSI4NSIgeD0iMjU2LjUiIHk9IjEzMjYuMjE4OCI+bmFtZTogU3RyaW5nPC90ZXh0PjxyZWN0IGZpbGw9Im5vbmUiIGhlaWdodD0iNiIgc3R5bGU9InN0cm9rZTojQzgyOTMwO3N0cm9rZS13aWR0aDoxLjA7IiB3aWR0aD0iNiIgeD0iMjQ0LjUiIHk9IjEzMzMuOTYwOSIvPjx0ZXh0IGZpbGw9IiMwMDAwMDAiIGZvbnQtZmFtaWx5PSJzYW5zLXNlcmlmIiBmb250LXNpemU9IjE0IiBsZW5ndGhBZGp1c3Q9InNwYWNpbmciIHRleHRMZW5ndGg9Ijg0IiB4PSIyNTYuNSIgeT0iMTM0MS4yMDMxIj5jaXR5OiBTdHJpbmc8L3RleHQ+PHJlY3QgZmlsbD0ibm9uZSIgaGVpZ2h0PSI2IiBzdHlsZT0ic3Ryb2tlOiNDODI5MzA7c3Ryb2tlLXdpZHRoOjEuMDsiIHdpZHRoPSI2IiB4PSIyNDQuNSIgeT0iMTM0OC45NDUzIi8+PHRleHQgZmlsbD0iIzAwMDAwMCIgZm9udC1mYW1pbHk9InNhbnMtc2VyaWYiIGZvbnQtc2l6ZT0iMTQiIGxlbmd0aEFkanVzdD0ic3BhY2luZyIgdGV4dExlbmd0aD0iMTA1IiB4PSIyNTYuNSIgeT0iMTM1Ni4xODc1Ij5jb3VudHJ5OiBTdHJpbmc8L3RleHQ+PGxpbmUgc3R5bGU9InN0cm9rZTojMTgxODE4O3N0cm9rZS13aWR0aDowLjU7IiB4MT0iMjM3LjUiIHgyPSIzNjYuNSIgeTE9IjEzNjEuOTM3NSIgeTI9IjEzNjEuOTM3NSIvPjwvZz48IS0tY2xhc3MgUGF5bWVudC0tPjxnIGlkPSJlbGVtX1BheW1lbnQiPjxyZWN0IGNvZGVMaW5lPSI3MyIgZmlsbD0iI0YxRjFGMSIgaGVpZ2h0PSIxNjcuODc1IiBpZD0iUGF5bWVudCIgcng9IjIuNSIgcnk9IjIuNSIgc3R5bGU9InN0cm9rZTojMTgxODE4O3N0cm9rZS13aWR0aDowLjU7IiB3aWR0aD0iMjI0IiB4PSIxMTA3IiB5PSI5OTYuNSIvPjxlbGxpcHNlIGN4PSIxMTg5Ljc1IiBjeT0iMTAxMi41IiBmaWxsPSIjQUREMUIyIiByeD0iMTEiIHJ5PSIxMSIgc3R5bGU9InN0cm9rZTojMTgxODE4O3N0cm9rZS13aWR0aDoxLjA7Ii8+PHBhdGggZD0iTTExODcuMzc1LDEwMTYuNzUgTDExODcuMzc1LDEwMTguNSBMMTE5Mi4zMTI1LDEwMTguNSBMMTE5Mi4zMTI1LDEwMTYuNzUgTDExODcuMzc1LDEwMTYuNzUgWiBNMTE4OC4wNjI1LDEwMTcuNDM3NSBRMTE4OC4wNjI1LDEwMTcuNDM3NSAxMTg4LjA2MjUsMTAwOC4yNSBMMTE4Ni4zMTI1LDEwMDguMjUgUTExODYuMzEyNSwxMDA4LjI1IDExODYuMzEyNSwxMDE3LjQzNzUgTDExODguMDYyNSwxMDE3LjQzNzUgWiBNMTE5MS42MjUsMTAxNy40Mzc1IEwxMTkzLjM3NSwxMDE3LjQzNzUgUTExOTMuMzc1LDEwMTcuNDM3NSAxMTkzLjM3NSwxMDE0LjYyNSBMMTE5MS42MjUsMTAxNC42MjUgUTExOTEuNjI1LDEwMTQuNjI1IDExOTEuNjI1LDEwMTcuNDM3NSBaIE0xMTkxLjYyNSwxMDA4LjI1IFExMTkxLjYyNSwxMDA4LjI1IDExOTEuNjI1LDEwMTEuMDYyNSBMMTE5My4zNzUsMTAxMS4wNjI1IFExMTkzLjM3NSwxMDExLjA2MjUgMTE5My4zNzUsMTAwOC4yNSBMMTE5MS42MjUsMTAwOC4yNSBaIE0xMTg3LjM3NSwxMDA4LjkzNzUgTDExOTIuMzEyNSwxMDA4LjkzNzUgTDExOTIuMzEyNSwxMDA3LjE4NzUgTDExODcuMzc1LDEwMDcuMTg3NSBMMTE4Ny4zNzUsMTAwOC45Mzc1IFogIiBmaWxsPSIjMDAwMDAwIi8+PHRleHQgZmlsbD0iIzAwMDAwMCIgZm9udC1mYW1pbHk9InNhbnMtc2VyaWYiIGZvbnQtc2l6ZT0iMTQiIGxlbmd0aEFkanVzdD0ic3BhY2luZyIgdGV4dExlbmd0aD0iNTAiIHg9IjEyMTAuMjUiIHk9IjEwMTguMjQyMiI+UGF5bWVudDwvdGV4dD48bGluZSBzdHlsZT0ic3Ryb2tlOiMxODE4MTg7c3Ryb2tlLXdpZHRoOjAuNTsiIHgxPSIxMTA4IiB4Mj0iMTMzMCIgeTE9IjEwMjguNSIgeTI9IjEwMjguNSIvPjxyZWN0IGZpbGw9Im5vbmUiIGhlaWdodD0iNiIgc3R5bGU9InN0cm9rZTojQzgyOTMwO3N0cm9rZS13aWR0aDoxLjA7IiB3aWR0aD0iNiIgeD0iMTExNSIgeT0iMTAzOC40OTIyIi8+PHRleHQgZmlsbD0iIzAwMDAwMCIgZm9udC1mYW1pbHk9InNhbnMtc2VyaWYiIGZvbnQtc2l6ZT0iMTQiIGxlbmd0aEFkanVzdD0ic3BhY2luZyIgdGV4dExlbmd0aD0iMTIwIiB4PSIxMTI3IiB5PSIxMDQ1LjczNDQiPnBheW1lbnRJZDogU3RyaW5nPC90ZXh0PjxyZWN0IGZpbGw9Im5vbmUiIGhlaWdodD0iNiIgc3R5bGU9InN0cm9rZTojQzgyOTMwO3N0cm9rZS13aWR0aDoxLjA7IiB3aWR0aD0iNiIgeD0iMTExNSIgeT0iMTA1My40NzY2Ii8+PHRleHQgZmlsbD0iIzAwMDAwMCIgZm9udC1mYW1pbHk9InNhbnMtc2VyaWYiIGZvbnQtc2l6ZT0iMTQiIGxlbmd0aEFkanVzdD0ic3BhY2luZyIgdGV4dExlbmd0aD0iMTEyIiB4PSIxMTI3IiB5PSIxMDYwLjcxODgiPmJvb2tpbmc6IEJvb2tpbmc8L3RleHQ+PHJlY3QgZmlsbD0ibm9uZSIgaGVpZ2h0PSI2IiBzdHlsZT0ic3Ryb2tlOiNDODI5MzA7c3Ryb2tlLXdpZHRoOjEuMDsiIHdpZHRoPSI2IiB4PSIxMTE1IiB5PSIxMDY4LjQ2MDkiLz48dGV4dCBmaWxsPSIjMDAwMDAwIiBmb250LWZhbWlseT0ic2Fucy1zZXJpZiIgZm9udC1zaXplPSIxNCIgbGVuZ3RoQWRqdXN0PSJzcGFjaW5nIiB0ZXh0TGVuZ3RoPSI5OSIgeD0iMTEyNyIgeT0iMTA3NS43MDMxIj5hbW91bnQ6IGRvdWJsZTwvdGV4dD48cmVjdCBmaWxsPSJub25lIiBoZWlnaHQ9IjYiIHN0eWxlPSJzdHJva2U6I0M4MjkzMDtzdHJva2Utd2lkdGg6MS4wOyIgd2lkdGg9IjYiIHg9IjExMTUiIHk9IjEwODMuNDQ1MyIvPjx0ZXh0IGZpbGw9IiMwMDAwMDAiIGZvbnQtZmFtaWx5PSJzYW5zLXNlcmlmIiBmb250LXNpemU9IjE0IiBsZW5ndGhBZGp1c3Q9InNwYWNpbmciIHRleHRMZW5ndGg9IjE5OCIgeD0iMTEyNyIgeT0iMTA5MC42ODc1Ij5wYXltZW50TWV0aG9kOiBQYXltZW50TWV0aG9kPC90ZXh0PjxyZWN0IGZpbGw9Im5vbmUiIGhlaWdodD0iNiIgc3R5bGU9InN0cm9rZTojQzgyOTMwO3N0cm9rZS13aWR0aDoxLjA7IiB3aWR0aD0iNiIgeD0iMTExNSIgeT0iMTA5OC40Mjk3Ii8+PHRleHQgZmlsbD0iIzAwMDAwMCIgZm9udC1mYW1pbHk9InNhbnMtc2VyaWYiIGZvbnQtc2l6ZT0iMTQiIGxlbmd0aEFkanVzdD0ic3BhY2luZyIgdGV4dExlbmd0aD0iMTQ5IiB4PSIxMTI3IiB5PSIxMTA1LjY3MTkiPnBheW1lbnREYXRlOiBEYXRlVGltZTwvdGV4dD48cmVjdCBmaWxsPSJub25lIiBoZWlnaHQ9IjYiIHN0eWxlPSJzdHJva2U6I0M4MjkzMDtzdHJva2Utd2lkdGg6MS4wOyIgd2lkdGg9IjYiIHg9IjExMTUiIHk9IjExMTMuNDE0MSIvPjx0ZXh0IGZpbGw9IiMwMDAwMDAiIGZvbnQtZmFtaWx5PSJzYW5zLXNlcmlmIiBmb250LXNpemU9IjE0IiBsZW5ndGhBZGp1c3Q9InNwYWNpbmciIHRleHRMZW5ndGg9IjE0OCIgeD0iMTEyNyIgeT0iMTEyMC42NTYzIj5zdGF0dXM6IFBheW1lbnRTdGF0dXM8L3RleHQ+PGxpbmUgc3R5bGU9InN0cm9rZTojMTgxODE4O3N0cm9rZS13aWR0aDowLjU7IiB4MT0iMTEwOCIgeDI9IjEzMzAiIHkxPSIxMTI2LjQwNjMiIHkyPSIxMTI2LjQwNjMiLz48ZWxsaXBzZSBjeD0iMTExOCIgY3k9IjExMzkuMzk4NCIgZmlsbD0iIzg0QkU4NCIgcng9IjMiIHJ5PSIzIiBzdHlsZT0ic3Ryb2tlOiMwMzgwNDg7c3Ryb2tlLXdpZHRoOjEuMDsiLz48dGV4dCBmaWxsPSIjMDAwMDAwIiBmb250LWZhbWlseT0ic2Fucy1zZXJpZiIgZm9udC1zaXplPSIxNCIgbGVuZ3RoQWRqdXN0PSJzcGFjaW5nIiB0ZXh0TGVuZ3RoPSIxNzgiIHg9IjExMjciIHk9IjExNDMuNjQwNiI+cHJvY2Vzc1BheW1lbnQoKTogYm9vbGVhbjwvdGV4dD48ZWxsaXBzZSBjeD0iMTExOCIgY3k9IjExNTQuMzgyOCIgZmlsbD0iIzg0QkU4NCIgcng9IjMiIHJ5PSIzIiBzdHlsZT0ic3Ryb2tlOiMwMzgwNDg7c3Ryb2tlLXdpZHRoOjEuMDsiLz48dGV4dCBmaWxsPSIjMDAwMDAwIiBmb250LWZhbWlseT0ic2Fucy1zZXJpZiIgZm9udC1zaXplPSIxNCIgbGVuZ3RoQWRqdXN0PSJzcGFjaW5nIiB0ZXh0TGVuZ3RoPSIxODQiIHg9IjExMjciIHk9IjExNTguNjI1Ij5nZW5lcmF0ZVJlY2VpcHQoKTogUmVjZWlwdDwvdGV4dD48L2c+PCEtLWNsYXNzIFRpY2tldC0tPjxnIGlkPSJlbGVtX1RpY2tldCI+PHJlY3QgY29kZUxpbmU9Ijg0IiBmaWxsPSIjRjFGMUYxIiBoZWlnaHQ9IjE4Mi44NTk0IiBpZD0iVGlja2V0IiByeD0iMi41IiByeT0iMi41IiBzdHlsZT0ic3Ryb2tlOiMxODE4MTg7c3Ryb2tlLXdpZHRoOjAuNTsiIHdpZHRoPSIxODkiIHg9Ijg1Mi41IiB5PSI5ODkiLz48ZWxsaXBzZSBjeD0iOTIxLjc1IiBjeT0iMTAwNSIgZmlsbD0iI0FERDFCMiIgcng9IjExIiByeT0iMTEiIHN0eWxlPSJzdHJva2U6IzE4MTgxODtzdHJva2Utd2lkdGg6MS4wOyIvPjxwYXRoIGQ9Ik05MTkuMzc1LDEwMDkuMjUgTDkxOS4zNzUsMTAxMSBMOTI0LjMxMjUsMTAxMSBMOTI0LjMxMjUsMTAwOS4yNSBMOTE5LjM3NSwxMDA5LjI1IFogTTkyMC4wNjI1LDEwMDkuOTM3NSBROTIwLjA2MjUsMTAwOS45Mzc1IDkyMC4wNjI1LDEwMDAuNzUgTDkxOC4zMTI1LDEwMDAuNzUgUTkxOC4zMTI1LDEwMDAuNzUgOTE4LjMxMjUsMTAwOS45Mzc1IEw5MjAuMDYyNSwxMDA5LjkzNzUgWiBNOTIzLjYyNSwxMDA5LjkzNzUgTDkyNS4zNzUsMTAwOS45Mzc1IFE5MjUuMzc1LDEwMDkuOTM3NSA5MjUuMzc1LDEwMDcuMTI1IEw5MjMuNjI1LDEwMDcuMTI1IFE5MjMuNjI1LDEwMDcuMTI1IDkyMy42MjUsMTAwOS45Mzc1IFogTTkyMy42MjUsMTAwMC43NSBROTIzLjYyNSwxMDAwLjc1IDkyMy42MjUsMTAwMy41NjI1IEw5MjUuMzc1LDEwMDMuNTYyNSBROTI1LjM3NSwxMDAzLjU2MjUgOTI1LjM3NSwxMDAwLjc1IEw5MjMuNjI1LDEwMDAuNzUgWiBNOTE5LjM3NSwxMDAxLjQzNzUgTDkyNC4zMTI1LDEwMDEuNDM3NSBMOTI0LjMxMjUsOTk5LjY4NzUgTDkxOS4zNzUsOTk5LjY4NzUgTDkxOS4zNzUsMTAwMS40Mzc1IFogIiBmaWxsPSIjMDAwMDAwIi8+PHRleHQgZmlsbD0iIzAwMDAwMCIgZm9udC1mYW1pbHk9InNhbnMtc2VyaWYiIGZvbnQtc2l6ZT0iMTQiIGxlbmd0aEFkanVzdD0ic3BhY2luZyIgdGV4dExlbmd0aD0iNDIiIHg9Ijk0Mi4yNSIgeT0iMTAxMC43NDIyIj5UaWNrZXQ8L3RleHQ+PGxpbmUgc3R5bGU9InN0cm9rZTojMTgxODE4O3N0cm9rZS13aWR0aDowLjU7IiB4MT0iODUzLjUiIHgyPSIxMDQwLjUiIHkxPSIxMDIxIiB5Mj0iMTAyMSIvPjxyZWN0IGZpbGw9Im5vbmUiIGhlaWdodD0iNiIgc3R5bGU9InN0cm9rZTojQzgyOTMwO3N0cm9rZS13aWR0aDoxLjA7IiB3aWR0aD0iNiIgeD0iODYwLjUiIHk9IjEwMzAuOTkyMiIvPjx0ZXh0IGZpbGw9IiMwMDAwMDAiIGZvbnQtZmFtaWx5PSJzYW5zLXNlcmlmIiBmb250LXNpemU9IjE0IiBsZW5ndGhBZGp1c3Q9InNwYWNpbmciIHRleHRMZW5ndGg9IjExMiIgeD0iODcyLjUiIHk9IjEwMzguMjM0NCI+dGlja2V0SWQ6IFN0cmluZzwvdGV4dD48cmVjdCBmaWxsPSJub25lIiBoZWlnaHQ9IjYiIHN0eWxlPSJzdHJva2U6I0M4MjkzMDtzdHJva2Utd2lkdGg6MS4wOyIgd2lkdGg9IjYiIHg9Ijg2MC41IiB5PSIxMDQ1Ljk3NjYiLz48dGV4dCBmaWxsPSIjMDAwMDAwIiBmb250LWZhbWlseT0ic2Fucy1zZXJpZiIgZm9udC1zaXplPSIxNCIgbGVuZ3RoQWRqdXN0PSJzcGFjaW5nIiB0ZXh0TGVuZ3RoPSIxMTIiIHg9Ijg3Mi41IiB5PSIxMDUzLjIxODgiPmJvb2tpbmc6IEJvb2tpbmc8L3RleHQ+PHJlY3QgZmlsbD0ibm9uZSIgaGVpZ2h0PSI2IiBzdHlsZT0ic3Ryb2tlOiNDODI5MzA7c3Ryb2tlLXdpZHRoOjEuMDsiIHdpZHRoPSI2IiB4PSI4NjAuNSIgeT0iMTA2MC45NjA5Ii8+PHRleHQgZmlsbD0iIzAwMDAwMCIgZm9udC1mYW1pbHk9InNhbnMtc2VyaWYiIGZvbnQtc2l6ZT0iMTQiIGxlbmd0aEFkanVzdD0ic3BhY2luZyIgdGV4dExlbmd0aD0iMTQ4IiB4PSI4NzIuNSIgeT0iMTA2OC4yMDMxIj5wYXNzZW5nZXJOYW1lOiBTdHJpbmc8L3RleHQ+PHJlY3QgZmlsbD0ibm9uZSIgaGVpZ2h0PSI2IiBzdHlsZT0ic3Ryb2tlOiNDODI5MzA7c3Ryb2tlLXdpZHRoOjEuMDsiIHdpZHRoPSI2IiB4PSI4NjAuNSIgeT0iMTA3NS45NDUzIi8+PHRleHQgZmlsbD0iIzAwMDAwMCIgZm9udC1mYW1pbHk9InNhbnMtc2VyaWYiIGZvbnQtc2l6ZT0iMTQiIGxlbmd0aEFkanVzdD0ic3BhY2luZyIgdGV4dExlbmd0aD0iMTI3IiB4PSI4NzIuNSIgeT0iMTA4My4xODc1Ij5zZWF0TnVtYmVyOiBTdHJpbmc8L3RleHQ+PHJlY3QgZmlsbD0ibm9uZSIgaGVpZ2h0PSI2IiBzdHlsZT0ic3Ryb2tlOiNDODI5MzA7c3Ryb2tlLXdpZHRoOjEuMDsiIHdpZHRoPSI2IiB4PSI4NjAuNSIgeT0iMTA5MC45Mjk3Ii8+PHRleHQgZmlsbD0iIzAwMDAwMCIgZm9udC1mYW1pbHk9InNhbnMtc2VyaWYiIGZvbnQtc2l6ZT0iMTQiIGxlbmd0aEFkanVzdD0ic3BhY2luZyIgdGV4dExlbmd0aD0iMTU2IiB4PSI4NzIuNSIgeT0iMTA5OC4xNzE5Ij5ib2FyZGluZ1RpbWU6IERhdGVUaW1lPC90ZXh0PjxyZWN0IGZpbGw9Im5vbmUiIGhlaWdodD0iNiIgc3R5bGU9InN0cm9rZTojQzgyOTMwO3N0cm9rZS13aWR0aDoxLjA7IiB3aWR0aD0iNiIgeD0iODYwLjUiIHk9IjExMDUuOTE0MSIvPjx0ZXh0IGZpbGw9IiMwMDAwMDAiIGZvbnQtZmFtaWx5PSJzYW5zLXNlcmlmIiBmb250LXNpemU9IjE0IiBsZW5ndGhBZGp1c3Q9InNwYWNpbmciIHRleHRMZW5ndGg9Ijg0IiB4PSI4NzIuNSIgeT0iMTExMy4xNTYzIj5nYXRlOiBTdHJpbmc8L3RleHQ+PHJlY3QgZmlsbD0ibm9uZSIgaGVpZ2h0PSI2IiBzdHlsZT0ic3Ryb2tlOiNDODI5MzA7c3Ryb2tlLXdpZHRoOjEuMDsiIHdpZHRoPSI2IiB4PSI4NjAuNSIgeT0iMTEyMC44OTg0Ii8+PHRleHQgZmlsbD0iIzAwMDAwMCIgZm9udC1mYW1pbHk9InNhbnMtc2VyaWYiIGZvbnQtc2l6ZT0iMTQiIGxlbmd0aEFkanVzdD0ic3BhY2luZyIgdGV4dExlbmd0aD0iMTQwIiB4PSI4NzIuNSIgeT0iMTEyOC4xNDA2Ij5zdGF0dXM6IFRpY2tldFN0YXR1czwvdGV4dD48bGluZSBzdHlsZT0ic3Ryb2tlOiMxODE4MTg7c3Ryb2tlLXdpZHRoOjAuNTsiIHgxPSI4NTMuNSIgeDI9IjEwNDAuNSIgeTE9IjExMzMuODkwNiIgeTI9IjExMzMuODkwNiIvPjxlbGxpcHNlIGN4PSI4NjMuNSIgY3k9IjExNDYuODgyOCIgZmlsbD0iIzg0QkU4NCIgcng9IjMiIHJ5PSIzIiBzdHlsZT0ic3Ryb2tlOiMwMzgwNDg7c3Ryb2tlLXdpZHRoOjEuMDsiLz48dGV4dCBmaWxsPSIjMDAwMDAwIiBmb250LWZhbWlseT0ic2Fucy1zZXJpZiIgZm9udC1zaXplPSIxNCIgbGVuZ3RoQWRqdXN0PSJzcGFjaW5nIiB0ZXh0TGVuZ3RoPSIxNDkiIHg9Ijg3Mi41IiB5PSIxMTUxLjEyNSI+ZGlzcGxheVRpY2tldCgpOiB2b2lkPC90ZXh0PjxlbGxpcHNlIGN4PSI4NjMuNSIgY3k9IjExNjEuODY3MiIgZmlsbD0iIzg0QkU4NCIgcng9IjMiIHJ5PSIzIiBzdHlsZT0ic3Ryb2tlOiMwMzgwNDg7c3Ryb2tlLXdpZHRoOjEuMDsiLz48dGV4dCBmaWxsPSIjMDAwMDAwIiBmb250LWZhbWlseT0ic2Fucy1zZXJpZiIgZm9udC1zaXplPSIxNCIgbGVuZ3RoQWRqdXN0PSJzcGFjaW5nIiB0ZXh0TGVuZ3RoPSIxNjMiIHg9Ijg3Mi41IiB5PSIxMTY2LjEwOTQiPmNhbmNlbFRpY2tldCgpOiBib29sZWFuPC90ZXh0PjwvZz48IS0tY2xhc3MgRmxpZ2h0U3RhdHVzLS0+PGcgaWQ9ImVsZW1fRmxpZ2h0U3RhdHVzIj48cmVjdCBjb2RlTGluZT0iOTYiIGZpbGw9IiNGMUYxRjEiIGhlaWdodD0iMTM3LjkwNjMiIGlkPSJGbGlnaHRTdGF0dXMiIHJ4PSIyLjUiIHJ5PSIyLjUiIHN0eWxlPSJzdHJva2U6IzE4MTgxODtzdHJva2Utd2lkdGg6MC41OyIgd2lkdGg9IjExNiIgeD0iOTg3IiB5PSIyNTkiLz48ZWxsaXBzZSBjeD0iMTAwMiIgY3k9IjI3NSIgZmlsbD0iI0VCOTM3RiIgcng9IjExIiByeT0iMTEiIHN0eWxlPSJzdHJva2U6IzE4MTgxODtzdHJva2Utd2lkdGg6MS4wOyIvPjxwYXRoIGQ9Ik0xMDA1LjYyNSwyODEgTDEwMDUuNjI1LDI3OS4yNSBMMTAwMC4zMTI1LDI3OS4yNSBRMTAwMC4zMTI1LDI3OS4yNSAxMDAwLjMxMjUsMjc1LjY4NzUgTDEwMDQuNTYyNSwyNzUuNjg3NSBMMTAwNC41NjI1LDI3My45Mzc1IEwxMDAwLjMxMjUsMjczLjkzNzUgTDEwMDAuMzEyNSwyNzEuNDM3NSBMMTAwNS42MjUsMjcxLjQzNzUgTDEwMDUuNjI1LDI2OS42ODc1IEw5OTguNTYyNSwyNjkuNjg3NSBROTk4LjU2MjUsMjY5LjY4NzUgOTk4LjU2MjUsMjgxIEwxMDA1LjYyNSwyODEgWiAiIGZpbGw9IiMwMDAwMDAiLz48dGV4dCBmaWxsPSIjMDAwMDAwIiBmb250LWZhbWlseT0ic2Fucy1zZXJpZiIgZm9udC1zaXplPSIxNCIgbGVuZ3RoQWRqdXN0PSJzcGFjaW5nIiB0ZXh0TGVuZ3RoPSI4NCIgeD0iMTAxNiIgeT0iMjgwLjc0MjIiPkZsaWdodFN0YXR1czwvdGV4dD48bGluZSBzdHlsZT0ic3Ryb2tlOiMxODE4MTg7c3Ryb2tlLXdpZHRoOjAuNTsiIHgxPSI5ODgiIHgyPSIxMTAyIiB5MT0iMjkxIiB5Mj0iMjkxIi8+PHRleHQgZmlsbD0iIzAwMDAwMCIgZm9udC1mYW1pbHk9InNhbnMtc2VyaWYiIGZvbnQtc2l6ZT0iMTQiIGxlbmd0aEFkanVzdD0ic3BhY2luZyIgdGV4dExlbmd0aD0iNjMiIHg9Ijk5MyIgeT0iMzA4LjIzNDQiPlNDSEVEVUxFRDwvdGV4dD48dGV4dCBmaWxsPSIjMDAwMDAwIiBmb250LWZhbWlseT0ic2Fucy1zZXJpZiIgZm9udC1zaXplPSIxNCIgbGVuZ3RoQWRqdXN0PSJzcGFjaW5nIiB0ZXh0TGVuZ3RoPSI0OSIgeD0iOTkzIiB5PSIzMjMuMjE4OCI+REVMQVlFRDwvdGV4dD48dGV4dCBmaWxsPSIjMDAwMDAwIiBmb250LWZhbWlseT0ic2Fucy1zZXJpZiIgZm9udC1zaXplPSIxNCIgbGVuZ3RoQWRqdXN0PSJzcGFjaW5nIiB0ZXh0TGVuZ3RoPSI1NiIgeD0iOTkzIiB5PSIzMzguMjAzMSI+Qk9BUkRJTkc8L3RleHQ+PHRleHQgZmlsbD0iIzAwMDAwMCIgZm9udC1mYW1pbHk9InNhbnMtc2VyaWYiIGZvbnQtc2l6ZT0iMTQiIGxlbmd0aEFkanVzdD0ic3BhY2luZyIgdGV4dExlbmd0aD0iNDIiIHg9Ijk5MyIgeT0iMzUzLjE4NzUiPklOX0FJUjwvdGV4dD48dGV4dCBmaWxsPSIjMDAwMDAwIiBmb250LWZhbWlseT0ic2Fucy1zZXJpZiIgZm9udC1zaXplPSIxNCIgbGVuZ3RoQWRqdXN0PSJzcGFjaW5nIiB0ZXh0TGVuZ3RoPSI0MiIgeD0iOTkzIiB5PSIzNjguMTcxOSI+TEFOREVEPC90ZXh0Pjx0ZXh0IGZpbGw9IiMwMDAwMDAiIGZvbnQtZmFtaWx5PSJzYW5zLXNlcmlmIiBmb250LXNpemU9IjE0IiBsZW5ndGhBZGp1c3Q9InNwYWNpbmciIHRleHRMZW5ndGg9IjYzIiB4PSI5OTMiIHk9IjM4My4xNTYzIj5DQU5DRUxMRUQ8L3RleHQ+PGxpbmUgc3R5bGU9InN0cm9rZTojMTgxODE4O3N0cm9rZS13aWR0aDowLjU7IiB4MT0iOTg4IiB4Mj0iMTEwMiIgeTE9IjM4OC45MDYzIiB5Mj0iMzg4LjkwNjMiLz48L2c+PCEtLWNsYXNzIEJvb2tpbmdTdGF0dXMtLT48ZyBpZD0iZWxlbV9Cb29raW5nU3RhdHVzIj48cmVjdCBjb2RlTGluZT0iMTA1IiBmaWxsPSIjRjFGMUYxIiBoZWlnaHQ9IjkyLjk1MzEiIGlkPSJCb29raW5nU3RhdHVzIiByeD0iMi41IiByeT0iMi41IiBzdHlsZT0ic3Ryb2tlOiMxODE4MTg7c3Ryb2tlLXdpZHRoOjAuNTsiIHdpZHRoPSIxMjMiIHg9IjExMzguNSIgeT0iMjgxLjUiLz48ZWxsaXBzZSBjeD0iMTE1My41IiBjeT0iMjk3LjUiIGZpbGw9IiNFQjkzN0YiIHJ4PSIxMSIgcnk9IjExIiBzdHlsZT0ic3Ryb2tlOiMxODE4MTg7c3Ryb2tlLXdpZHRoOjEuMDsiLz48cGF0aCBkPSJNMTE1Ny4xMjUsMzAzLjUgTDExNTcuMTI1LDMwMS43NSBMMTE1MS44MTI1LDMwMS43NSBRMTE1MS44MTI1LDMwMS43NSAxMTUxLjgxMjUsMjk4LjE4NzUgTDExNTYuMDYyNSwyOTguMTg3NSBMMTE1Ni4wNjI1LDI5Ni40Mzc1IEwxMTUxLjgxMjUsMjk2LjQzNzUgTDExNTEuODEyNSwyOTMuOTM3NSBMMTE1Ny4xMjUsMjkzLjkzNzUgTDExNTcuMTI1LDI5Mi4xODc1IEwxMTUwLjA2MjUsMjkyLjE4NzUgUTExNTAuMDYyNSwyOTIuMTg3NSAxMTUwLjA2MjUsMzAzLjUgTDExNTcuMTI1LDMwMy41IFogIiBmaWxsPSIjMDAwMDAwIi8+PHRleHQgZmlsbD0iIzAwMDAwMCIgZm9udC1mYW1pbHk9InNhbnMtc2VyaWYiIGZvbnQtc2l6ZT0iMTQiIGxlbmd0aEFkanVzdD0ic3BhY2luZyIgdGV4dExlbmd0aD0iOTEiIHg9IjExNjcuNSIgeT0iMzAzLjI0MjIiPkJvb2tpbmdTdGF0dXM8L3RleHQ+PGxpbmUgc3R5bGU9InN0cm9rZTojMTgxODE4O3N0cm9rZS13aWR0aDowLjU7IiB4MT0iMTEzOS41IiB4Mj0iMTI2MC41IiB5MT0iMzEzLjUiIHkyPSIzMTMuNSIvPjx0ZXh0IGZpbGw9IiMwMDAwMDAiIGZvbnQtZmFtaWx5PSJzYW5zLXNlcmlmIiBmb250LXNpemU9IjE0IiBsZW5ndGhBZGp1c3Q9InNwYWNpbmciIHRleHRMZW5ndGg9IjQ5IiB4PSIxMTQ0LjUiIHk9IjMzMC43MzQ0Ij5QRU5ESU5HPC90ZXh0Pjx0ZXh0IGZpbGw9IiMwMDAwMDAiIGZvbnQtZmFtaWx5PSJzYW5zLXNlcmlmIiBmb250LXNpemU9IjE0IiBsZW5ndGhBZGp1c3Q9InNwYWNpbmciIHRleHRMZW5ndGg9IjYzIiB4PSIxMTQ0LjUiIHk9IjM0NS43MTg4Ij5DT05GSVJNRUQ8L3RleHQ+PHRleHQgZmlsbD0iIzAwMDAwMCIgZm9udC1mYW1pbHk9InNhbnMtc2VyaWYiIGZvbnQtc2l6ZT0iMTQiIGxlbmd0aEFkanVzdD0ic3BhY2luZyIgdGV4dExlbmd0aD0iNjMiIHg9IjExNDQuNSIgeT0iMzYwLjcwMzEiPkNBTkNFTExFRDwvdGV4dD48bGluZSBzdHlsZT0ic3Ryb2tlOiMxODE4MTg7c3Ryb2tlLXdpZHRoOjAuNTsiIHgxPSIxMTM5LjUiIHgyPSIxMjYwLjUiIHkxPSIzNjYuNDUzMSIgeTI9IjM2Ni40NTMxIi8+PC9nPjwhLS1jbGFzcyBTZWF0Q2F0ZWdvcnktLT48ZyBpZD0iZWxlbV9TZWF0Q2F0ZWdvcnkiPjxyZWN0IGNvZGVMaW5lPSIxMTEiIGZpbGw9IiNGMUYxRjEiIGhlaWdodD0iOTIuOTUzMSIgaWQ9IlNlYXRDYXRlZ29yeSIgcng9IjIuNSIgcnk9IjIuNSIgc3R5bGU9InN0cm9rZTojMTgxODE4O3N0cm9rZS13aWR0aDowLjU7IiB3aWR0aD0iMTE2IiB4PSIxMjk3IiB5PSIyODEuNSIvPjxlbGxpcHNlIGN4PSIxMzEyIiBjeT0iMjk3LjUiIGZpbGw9IiNFQjkzN0YiIHJ4PSIxMSIgcnk9IjExIiBzdHlsZT0ic3Ryb2tlOiMxODE4MTg7c3Ryb2tlLXdpZHRoOjEuMDsiLz48cGF0aCBkPSJNMTMxNS42MjUsMzAzLjUgTDEzMTUuNjI1LDMwMS43NSBMMTMxMC4zMTI1LDMwMS43NSBRMTMxMC4zMTI1LDMwMS43NSAxMzEwLjMxMjUsMjk4LjE4NzUgTDEzMTQuNTYyNSwyOTguMTg3NSBMMTMxNC41NjI1LDI5Ni40Mzc1IEwxMzEwLjMxMjUsMjk2LjQzNzUgTDEzMTAuMzEyNSwyOTMuOTM3NSBMMTMxNS42MjUsMjkzLjkzNzUgTDEzMTUuNjI1LDI5Mi4xODc1IEwxMzA4LjU2MjUsMjkyLjE4NzUgUTEzMDguNTYyNSwyOTIuMTg3NSAxMzA4LjU2MjUsMzAzLjUgTDEzMTUuNjI1LDMwMy41IFogIiBmaWxsPSIjMDAwMDAwIi8+PHRleHQgZmlsbD0iIzAwMDAwMCIgZm9udC1mYW1pbHk9InNhbnMtc2VyaWYiIGZvbnQtc2l6ZT0iMTQiIGxlbmd0aEFkanVzdD0ic3BhY2luZyIgdGV4dExlbmd0aD0iODQiIHg9IjEzMjYiIHk9IjMwMy4yNDIyIj5TZWF0Q2F0ZWdvcnk8L3RleHQ+PGxpbmUgc3R5bGU9InN0cm9rZTojMTgxODE4O3N0cm9rZS13aWR0aDowLjU7IiB4MT0iMTI5OCIgeDI9IjE0MTIiIHkxPSIzMTMuNSIgeTI9IjMxMy41Ii8+PHRleHQgZmlsbD0iIzAwMDAwMCIgZm9udC1mYW1pbHk9InNhbnMtc2VyaWYiIGZvbnQtc2l6ZT0iMTQiIGxlbmd0aEFkanVzdD0ic3BhY2luZyIgdGV4dExlbmd0aD0iNDkiIHg9IjEzMDMiIHk9IjMzMC43MzQ0Ij5FQ09OT01ZPC90ZXh0Pjx0ZXh0IGZpbGw9IiMwMDAwMDAiIGZvbnQtZmFtaWx5PSJzYW5zLXNlcmlmIiBmb250LXNpemU9IjE0IiBsZW5ndGhBZGp1c3Q9InNwYWNpbmciIHRleHRMZW5ndGg9IjU2IiB4PSIxMzAzIiB5PSIzNDUuNzE4OCI+QlVTSU5FU1M8L3RleHQ+PHRleHQgZmlsbD0iIzAwMDAwMCIgZm9udC1mYW1pbHk9InNhbnMtc2VyaWYiIGZvbnQtc2l6ZT0iMTQiIGxlbmd0aEFkanVzdD0ic3BhY2luZyIgdGV4dExlbmd0aD0iNzciIHg9IjEzMDMiIHk9IjM2MC43MDMxIj5GSVJTVF9DTEFTUzwvdGV4dD48bGluZSBzdHlsZT0ic3Ryb2tlOiMxODE4MTg7c3Ryb2tlLXdpZHRoOjAuNTsiIHgxPSIxMjk4IiB4Mj0iMTQxMiIgeTE9IjM2Ni40NTMxIiB5Mj0iMzY2LjQ1MzEiLz48L2c+PCEtLWNsYXNzIFBheW1lbnRTdGF0dXMtLT48ZyBpZD0iZWxlbV9QYXltZW50U3RhdHVzIj48cmVjdCBjb2RlTGluZT0iMTE3IiBmaWxsPSIjRjFGMUYxIiBoZWlnaHQ9IjEwNy45Mzc1IiBpZD0iUGF5bWVudFN0YXR1cyIgcng9IjIuNSIgcnk9IjIuNSIgc3R5bGU9InN0cm9rZTojMTgxODE4O3N0cm9rZS13aWR0aDowLjU7IiB3aWR0aD0iMTI0IiB4PSI5ODMiIHk9IjQ4MC41Ii8+PGVsbGlwc2UgY3g9Ijk5OCIgY3k9IjQ5Ni41IiBmaWxsPSIjRUI5MzdGIiByeD0iMTEiIHJ5PSIxMSIgc3R5bGU9InN0cm9rZTojMTgxODE4O3N0cm9rZS13aWR0aDoxLjA7Ii8+PHBhdGggZD0iTTEwMDEuNjI1LDUwMi41IEwxMDAxLjYyNSw1MDAuNzUgTDk5Ni4zMTI1LDUwMC43NSBROTk2LjMxMjUsNTAwLjc1IDk5Ni4zMTI1LDQ5Ny4xODc1IEwxMDAwLjU2MjUsNDk3LjE4NzUgTDEwMDAuNTYyNSw0OTUuNDM3NSBMOTk2LjMxMjUsNDk1LjQzNzUgTDk5Ni4zMTI1LDQ5Mi45Mzc1IEwxMDAxLjYyNSw0OTIuOTM3NSBMMTAwMS42MjUsNDkxLjE4NzUgTDk5NC41NjI1LDQ5MS4xODc1IFE5OTQuNTYyNSw0OTEuMTg3NSA5OTQuNTYyNSw1MDIuNSBMMTAwMS42MjUsNTAyLjUgWiAiIGZpbGw9IiMwMDAwMDAiLz48dGV4dCBmaWxsPSIjMDAwMDAwIiBmb250LWZhbWlseT0ic2Fucy1zZXJpZiIgZm9udC1zaXplPSIxNCIgbGVuZ3RoQWRqdXN0PSJzcGFjaW5nIiB0ZXh0TGVuZ3RoPSI5MiIgeD0iMTAxMiIgeT0iNTAyLjI0MjIiPlBheW1lbnRTdGF0dXM8L3RleHQ+PGxpbmUgc3R5bGU9InN0cm9rZTojMTgxODE4O3N0cm9rZS13aWR0aDowLjU7IiB4MT0iOTg0IiB4Mj0iMTEwNiIgeTE9IjUxMi41IiB5Mj0iNTEyLjUiLz48dGV4dCBmaWxsPSIjMDAwMDAwIiBmb250LWZhbWlseT0ic2Fucy1zZXJpZiIgZm9udC1zaXplPSIxNCIgbGVuZ3RoQWRqdXN0PSJzcGFjaW5nIiB0ZXh0TGVuZ3RoPSI0OSIgeD0iOTg5IiB5PSI1MjkuNzM0NCI+UEVORElORzwvdGV4dD48dGV4dCBmaWxsPSIjMDAwMDAwIiBmb250LWZhbWlseT0ic2Fucy1zZXJpZiIgZm9udC1zaXplPSIxNCIgbGVuZ3RoQWRqdXN0PSJzcGFjaW5nIiB0ZXh0TGVuZ3RoPSI2MyIgeD0iOTg5IiB5PSI1NDQuNzE4OCI+Q09NUExFVEVEPC90ZXh0Pjx0ZXh0IGZpbGw9IiMwMDAwMDAiIGZvbnQtZmFtaWx5PSJzYW5zLXNlcmlmIiBmb250LXNpemU9IjE0IiBsZW5ndGhBZGp1c3Q9InNwYWNpbmciIHRleHRMZW5ndGg9IjQyIiB4PSI5ODkiIHk9IjU1OS43MDMxIj5GQUlMRUQ8L3RleHQ+PHRleHQgZmlsbD0iIzAwMDAwMCIgZm9udC1mYW1pbHk9InNhbnMtc2VyaWYiIGZvbnQtc2l6ZT0iMTQiIGxlbmd0aEFkanVzdD0ic3BhY2luZyIgdGV4dExlbmd0aD0iNTYiIHg9Ijk4OSIgeT0iNTc0LjY4NzUiPlJFRlVOREVEPC90ZXh0PjxsaW5lIHN0eWxlPSJzdHJva2U6IzE4MTgxODtzdHJva2Utd2lkdGg6MC41OyIgeDE9Ijk4NCIgeDI9IjExMDYiIHkxPSI1ODAuNDM3NSIgeTI9IjU4MC40Mzc1Ii8+PC9nPjwhLS1jbGFzcyBQYXltZW50TWV0aG9kLS0+PGcgaWQ9ImVsZW1fUGF5bWVudE1ldGhvZCI+PHJlY3QgY29kZUxpbmU9IjEyNCIgZmlsbD0iI0YxRjFGMSIgaGVpZ2h0PSIxMDcuOTM3NSIgaWQ9IlBheW1lbnRNZXRob2QiIHJ4PSIyLjUiIHJ5PSIyLjUiIHN0eWxlPSJzdHJva2U6IzE4MTgxODtzdHJva2Utd2lkdGg6MC41OyIgd2lkdGg9IjEyNCIgeD0iMTE0MiIgeT0iNDgwLjUiLz48ZWxsaXBzZSBjeD0iMTE1NyIgY3k9IjQ5Ni41IiBmaWxsPSIjRUI5MzdGIiByeD0iMTEiIHJ5PSIxMSIgc3R5bGU9InN0cm9rZTojMTgxODE4O3N0cm9rZS13aWR0aDoxLjA7Ii8+PHBhdGggZD0iTTExNjAuNjI1LDUwMi41IEwxMTYwLjYyNSw1MDAuNzUgTDExNTUuMzEyNSw1MDAuNzUgUTExNTUuMzEyNSw1MDAuNzUgMTE1NS4zMTI1LDQ5Ny4xODc1IEwxMTU5LjU2MjUsNDk3LjE4NzUgTDExNTkuNTYyNSw0OTUuNDM3NSBMMTE1NS4zMTI1LDQ5NS40Mzc1IEwxMTU1LjMxMjUsNDkyLjkzNzUgTDExNjAuNjI1LDQ5Mi45Mzc1IEwxMTYwLjYyNSw0OTEuMTg3NSBMMTE1My41NjI1LDQ5MS4xODc1IFExMTUzLjU2MjUsNDkxLjE4NzUgMTE1My41NjI1LDUwMi41IEwxMTYwLjYyNSw1MDIuNSBaICIgZmlsbD0iIzAwMDAwMCIvPjx0ZXh0IGZpbGw9IiMwMDAwMDAiIGZvbnQtZmFtaWx5PSJzYW5zLXNlcmlmIiBmb250LXNpemU9IjE0IiBsZW5ndGhBZGp1c3Q9InNwYWNpbmciIHRleHRMZW5ndGg9IjkyIiB4PSIxMTcxIiB5PSI1MDIuMjQyMiI+UGF5bWVudE1ldGhvZDwvdGV4dD48bGluZSBzdHlsZT0ic3Ryb2tlOiMxODE4MTg7c3Ryb2tlLXdpZHRoOjAuNTsiIHgxPSIxMTQzIiB4Mj0iMTI2NSIgeTE9IjUxMi41IiB5Mj0iNTEyLjUiLz48dGV4dCBmaWxsPSIjMDAwMDAwIiBmb250LWZhbWlseT0ic2Fucy1zZXJpZiIgZm9udC1zaXplPSIxNCIgbGVuZ3RoQWRqdXN0PSJzcGFjaW5nIiB0ZXh0TGVuZ3RoPSI3NyIgeD0iMTE0OCIgeT0iNTI5LjczNDQiPkNSRURJVF9DQVJEPC90ZXh0Pjx0ZXh0IGZpbGw9IiMwMDAwMDAiIGZvbnQtZmFtaWx5PSJzYW5zLXNlcmlmIiBmb250LXNpemU9IjE0IiBsZW5ndGhBZGp1c3Q9InNwYWNpbmciIHRleHRMZW5ndGg9IjcwIiB4PSIxMTQ4IiB5PSI1NDQuNzE4OCI+REVCSVRfQ0FSRDwvdGV4dD48dGV4dCBmaWxsPSIjMDAwMDAwIiBmb250LWZhbWlseT0ic2Fucy1zZXJpZiIgZm9udC1zaXplPSIxNCIgbGVuZ3RoQWRqdXN0PSJzcGFjaW5nIiB0ZXh0TGVuZ3RoPSI3NyIgeD0iMTE0OCIgeT0iNTU5LjcwMzEiPk5FVF9CQU5LSU5HPC90ZXh0Pjx0ZXh0IGZpbGw9IiMwMDAwMDAiIGZvbnQtZmFtaWx5PSJzYW5zLXNlcmlmIiBmb250LXNpemU9IjE0IiBsZW5ndGhBZGp1c3Q9InNwYWNpbmciIHRleHRMZW5ndGg9IjQyIiB4PSIxMTQ4IiB5PSI1NzQuNjg3NSI+V0FMTEVUPC90ZXh0PjxsaW5lIHN0eWxlPSJzdHJva2U6IzE4MTgxODtzdHJva2Utd2lkdGg6MC41OyIgeDE9IjExNDMiIHgyPSIxMjY1IiB5MT0iNTgwLjQzNzUiIHkyPSI1ODAuNDM3NSIvPjwvZz48IS0tY2xhc3MgVGlja2V0U3RhdHVzLS0+PGcgaWQ9ImVsZW1fVGlja2V0U3RhdHVzIj48cmVjdCBjb2RlTGluZT0iMTMxIiBmaWxsPSIjRjFGMUYxIiBoZWlnaHQ9IjEwNy45Mzc1IiBpZD0iVGlja2V0U3RhdHVzIiByeD0iMi41IiByeT0iMi41IiBzdHlsZT0ic3Ryb2tlOiMxODE4MTg7c3Ryb2tlLXdpZHRoOjAuNTsiIHdpZHRoPSIxMTYiIHg9IjEzMDEiIHk9IjQ4MC41Ii8+PGVsbGlwc2UgY3g9IjEzMTYiIGN5PSI0OTYuNSIgZmlsbD0iI0VCOTM3RiIgcng9IjExIiByeT0iMTEiIHN0eWxlPSJzdHJva2U6IzE4MTgxODtzdHJva2Utd2lkdGg6MS4wOyIvPjxwYXRoIGQ9Ik0xMzE5LjYyNSw1MDIuNSBMMTMxOS42MjUsNTAwLjc1IEwxMzE0LjMxMjUsNTAwLjc1IFExMzE0LjMxMjUsNTAwLjc1IDEzMTQuMzEyNSw0OTcuMTg3NSBMMTMxOC41NjI1LDQ5Ny4xODc1IEwxMzE4LjU2MjUsNDk1LjQzNzUgTDEzMTQuMzEyNSw0OTUuNDM3NSBMMTMxNC4zMTI1LDQ5Mi45Mzc1IEwxMzE5LjYyNSw0OTIuOTM3NSBMMTMxOS42MjUsNDkxLjE4NzUgTDEzMTIuNTYyNSw0OTEuMTg3NSBRMTMxMi41NjI1LDQ5MS4xODc1IDEzMTIuNTYyNSw1MDIuNSBMMTMxOS42MjUsNTAyLjUgWiAiIGZpbGw9IiMwMDAwMDAiLz48dGV4dCBmaWxsPSIjMDAwMDAwIiBmb250LWZhbWlseT0ic2Fucy1zZXJpZiIgZm9udC1zaXplPSIxNCIgbGVuZ3RoQWRqdXN0PSJzcGFjaW5nIiB0ZXh0TGVuZ3RoPSI4NCIgeD0iMTMzMCIgeT0iNTAyLjI0MjIiPlRpY2tldFN0YXR1czwvdGV4dD48bGluZSBzdHlsZT0ic3Ryb2tlOiMxODE4MTg7c3Ryb2tlLXdpZHRoOjAuNTsiIHgxPSIxMzAyIiB4Mj0iMTQxNiIgeTE9IjUxMi41IiB5Mj0iNTEyLjUiLz48dGV4dCBmaWxsPSIjMDAwMDAwIiBmb250LWZhbWlseT0ic2Fucy1zZXJpZiIgZm9udC1zaXplPSIxNCIgbGVuZ3RoQWRqdXN0PSJzcGFjaW5nIiB0ZXh0TGVuZ3RoPSIzNSIgeD0iMTMwNyIgeT0iNTI5LjczNDQiPlZBTElEPC90ZXh0Pjx0ZXh0IGZpbGw9IiMwMDAwMDAiIGZvbnQtZmFtaWx5PSJzYW5zLXNlcmlmIiBmb250LXNpemU9IjE0IiBsZW5ndGhBZGp1c3Q9InNwYWNpbmciIHRleHRMZW5ndGg9IjcwIiB4PSIxMzA3IiB5PSI1NDQuNzE4OCI+Q0hFQ0tFRF9JTjwvdGV4dD48dGV4dCBmaWxsPSIjMDAwMDAwIiBmb250LWZhbWlseT0ic2Fucy1zZXJpZiIgZm9udC1zaXplPSIxNCIgbGVuZ3RoQWRqdXN0PSJzcGFjaW5nIiB0ZXh0TGVuZ3RoPSIyOCIgeD0iMTMwNyIgeT0iNTU5LjcwMzEiPlVTRUQ8L3RleHQ+PHRleHQgZmlsbD0iIzAwMDAwMCIgZm9udC1mYW1pbHk9InNhbnMtc2VyaWYiIGZvbnQtc2l6ZT0iMTQiIGxlbmd0aEFkanVzdD0ic3BhY2luZyIgdGV4dExlbmd0aD0iNjMiIHg9IjEzMDciIHk9IjU3NC42ODc1Ij5DQU5DRUxMRUQ8L3RleHQ+PGxpbmUgc3R5bGU9InN0cm9rZTojMTgxODE4O3N0cm9rZS13aWR0aDowLjU7IiB4MT0iMTMwMiIgeDI9IjE0MTYiIHkxPSI1ODAuNDM3NSIgeTI9IjU4MC40Mzc1Ii8+PC9nPjwhLS1jbGFzcyBMb2dpblZpZXctLT48ZyBpZD0iZWxlbV9Mb2dpblZpZXciPjxyZWN0IGNvZGVMaW5lPSIxNDAiIGZpbGw9IiNGMUYxRjEiIGhlaWdodD0iNDgiIGlkPSJMb2dpblZpZXciIHJ4PSIyLjUiIHJ5PSIyLjUiIHN0eWxlPSJzdHJva2U6IzE4MTgxODtzdHJva2Utd2lkdGg6MC41OyIgd2lkdGg9Ijk2IiB4PSIyMTgxIiB5PSIzMDQiLz48ZWxsaXBzZSBjeD0iMjE5NiIgY3k9IjMyMCIgZmlsbD0iI0FERDFCMiIgcng9IjExIiByeT0iMTEiIHN0eWxlPSJzdHJva2U6IzE4MTgxODtzdHJva2Utd2lkdGg6MS4wOyIvPjxwYXRoIGQ9Ik0yMTkzLjYyNSwzMjQuMjUgTDIxOTMuNjI1LDMyNiBMMjE5OC41NjI1LDMyNiBMMjE5OC41NjI1LDMyNC4yNSBMMjE5My42MjUsMzI0LjI1IFogTTIxOTQuMzEyNSwzMjQuOTM3NSBRMjE5NC4zMTI1LDMyNC45Mzc1IDIxOTQuMzEyNSwzMTUuNzUgTDIxOTIuNTYyNSwzMTUuNzUgUTIxOTIuNTYyNSwzMTUuNzUgMjE5Mi41NjI1LDMyNC45Mzc1IEwyMTk0LjMxMjUsMzI0LjkzNzUgWiBNMjE5Ny44NzUsMzI0LjkzNzUgTDIxOTkuNjI1LDMyNC45Mzc1IFEyMTk5LjYyNSwzMjQuOTM3NSAyMTk5LjYyNSwzMjIuMTI1IEwyMTk3Ljg3NSwzMjIuMTI1IFEyMTk3Ljg3NSwzMjIuMTI1IDIxOTcuODc1LDMyNC45Mzc1IFogTTIxOTcuODc1LDMxNS43NSBRMjE5Ny44NzUsMzE1Ljc1IDIxOTcuODc1LDMxOC41NjI1IEwyMTk5LjYyNSwzMTguNTYyNSBRMjE5OS42MjUsMzE4LjU2MjUgMjE5OS42MjUsMzE1Ljc1IEwyMTk3Ljg3NSwzMTUuNzUgWiBNMjE5My42MjUsMzE2LjQzNzUgTDIxOTguNTYyNSwzMTYuNDM3NSBMMjE5OC41NjI1LDMxNC42ODc1IEwyMTkzLjYyNSwzMTQuNjg3NSBMMjE5My42MjUsMzE2LjQzNzUgWiAiIGZpbGw9IiMwMDAwMDAiLz48dGV4dCBmaWxsPSIjMDAwMDAwIiBmb250LWZhbWlseT0ic2Fucy1zZXJpZiIgZm9udC1zaXplPSIxNCIgbGVuZ3RoQWRqdXN0PSJzcGFjaW5nIiB0ZXh0TGVuZ3RoPSI2NCIgeD0iMjIxMCIgeT0iMzI1Ljc0MjIiPkxvZ2luVmlldzwvdGV4dD48bGluZSBzdHlsZT0ic3Ryb2tlOiMxODE4MTg7c3Ryb2tlLXdpZHRoOjAuNTsiIHgxPSIyMTgyIiB4Mj0iMjI3NiIgeTE9IjMzNiIgeTI9IjMzNiIvPjxsaW5lIHN0eWxlPSJzdHJva2U6IzE4MTgxODtzdHJva2Utd2lkdGg6MC41OyIgeDE9IjIxODIiIHgyPSIyMjc2IiB5MT0iMzQ0IiB5Mj0iMzQ0Ii8+PC9nPjwhLS1jbGFzcyBGbGlnaHRTZWFyY2hWaWV3LS0+PGcgaWQ9ImVsZW1fRmxpZ2h0U2VhcmNoVmlldyI+PHJlY3QgY29kZUxpbmU9IjE0MSIgZmlsbD0iI0YxRjFGMSIgaGVpZ2h0PSI0OCIgaWQ9IkZsaWdodFNlYXJjaFZpZXciIHJ4PSIyLjUiIHJ5PSIyLjUiIHN0eWxlPSJzdHJva2U6IzE4MTgxODtzdHJva2Utd2lkdGg6MC41OyIgd2lkdGg9IjE0NSIgeD0iMjAwMC41IiB5PSIzMDQiLz48ZWxsaXBzZSBjeD0iMjAxNS41IiBjeT0iMzIwIiBmaWxsPSIjQUREMUIyIiByeD0iMTEiIHJ5PSIxMSIgc3R5bGU9InN0cm9rZTojMTgxODE4O3N0cm9rZS13aWR0aDoxLjA7Ii8+PHBhdGggZD0iTTIwMTMuMTI1LDMyNC4yNSBMMjAxMy4xMjUsMzI2IEwyMDE4LjA2MjUsMzI2IEwyMDE4LjA2MjUsMzI0LjI1IEwyMDEzLjEyNSwzMjQuMjUgWiBNMjAxMy44MTI1LDMyNC45Mzc1IFEyMDEzLjgxMjUsMzI0LjkzNzUgMjAxMy44MTI1LDMxNS43NSBMMjAxMi4wNjI1LDMxNS43NSBRMjAxMi4wNjI1LDMxNS43NSAyMDEyLjA2MjUsMzI0LjkzNzUgTDIwMTMuODEyNSwzMjQuOTM3NSBaIE0yMDE3LjM3NSwzMjQuOTM3NSBMMjAxOS4xMjUsMzI0LjkzNzUgUTIwMTkuMTI1LDMyNC45Mzc1IDIwMTkuMTI1LDMyMi4xMjUgTDIwMTcuMzc1LDMyMi4xMjUgUTIwMTcuMzc1LDMyMi4xMjUgMjAxNy4zNzUsMzI0LjkzNzUgWiBNMjAxNy4zNzUsMzE1Ljc1IFEyMDE3LjM3NSwzMTUuNzUgMjAxNy4zNzUsMzE4LjU2MjUgTDIwMTkuMTI1LDMxOC41NjI1IFEyMDE5LjEyNSwzMTguNTYyNSAyMDE5LjEyNSwzMTUuNzUgTDIwMTcuMzc1LDMxNS43NSBaIE0yMDEzLjEyNSwzMTYuNDM3NSBMMjAxOC4wNjI1LDMxNi40Mzc1IEwyMDE4LjA2MjUsMzE0LjY4NzUgTDIwMTMuMTI1LDMxNC42ODc1IEwyMDEzLjEyNSwzMTYuNDM3NSBaICIgZmlsbD0iIzAwMDAwMCIvPjx0ZXh0IGZpbGw9IiMwMDAwMDAiIGZvbnQtZmFtaWx5PSJzYW5zLXNlcmlmIiBmb250LXNpemU9IjE0IiBsZW5ndGhBZGp1c3Q9InNwYWNpbmciIHRleHRMZW5ndGg9IjExMyIgeD0iMjAyOS41IiB5PSIzMjUuNzQyMiI+RmxpZ2h0U2VhcmNoVmlldzwvdGV4dD48bGluZSBzdHlsZT0ic3Ryb2tlOiMxODE4MTg7c3Ryb2tlLXdpZHRoOjAuNTsiIHgxPSIyMDAxLjUiIHgyPSIyMTQ0LjUiIHkxPSIzMzYiIHkyPSIzMzYiLz48bGluZSBzdHlsZT0ic3Ryb2tlOiMxODE4MTg7c3Ryb2tlLXdpZHRoOjAuNTsiIHgxPSIyMDAxLjUiIHgyPSIyMTQ0LjUiIHkxPSIzNDQiIHkyPSIzNDQiLz48L2c+PCEtLWNsYXNzIEJvb2tpbmdWaWV3LS0+PGcgaWQ9ImVsZW1fQm9va2luZ1ZpZXciPjxyZWN0IGNvZGVMaW5lPSIxNDIiIGZpbGw9IiNGMUYxRjEiIGhlaWdodD0iNDgiIGlkPSJCb29raW5nVmlldyIgcng9IjIuNSIgcnk9IjIuNSIgc3R5bGU9InN0cm9rZTojMTgxODE4O3N0cm9rZS13aWR0aDowLjU7IiB3aWR0aD0iMTEwIiB4PSIyMzEyIiB5PSIzMDQiLz48ZWxsaXBzZSBjeD0iMjMyNyIgY3k9IjMyMCIgZmlsbD0iI0FERDFCMiIgcng9IjExIiByeT0iMTEiIHN0eWxlPSJzdHJva2U6IzE4MTgxODtzdHJva2Utd2lkdGg6MS4wOyIvPjxwYXRoIGQ9Ik0yMzI0LjYyNSwzMjQuMjUgTDIzMjQuNjI1LDMyNiBMMjMyOS41NjI1LDMyNiBMMjMyOS41NjI1LDMyNC4yNSBMMjMyNC42MjUsMzI0LjI1IFogTTIzMjUuMzEyNSwzMjQuOTM3NSBRMjMyNS4zMTI1LDMyNC45Mzc1IDIzMjUuMzEyNSwzMTUuNzUgTDIzMjMuNTYyNSwzMTUuNzUgUTIzMjMuNTYyNSwzMTUuNzUgMjMyMy41NjI1LDMyNC45Mzc1IEwyMzI1LjMxMjUsMzI0LjkzNzUgWiBNMjMyOC44NzUsMzI0LjkzNzUgTDIzMzAuNjI1LDMyNC45Mzc1IFEyMzMwLjYyNSwzMjQuOTM3NSAyMzMwLjYyNSwzMjIuMTI1IEwyMzI4Ljg3NSwzMjIuMTI1IFEyMzI4Ljg3NSwzMjIuMTI1IDIzMjguODc1LDMyNC45Mzc1IFogTTIzMjguODc1LDMxNS43NSBRMjMyOC44NzUsMzE1Ljc1IDIzMjguODc1LDMxOC41NjI1IEwyMzMwLjYyNSwzMTguNTYyNSBRMjMzMC42MjUsMzE4LjU2MjUgMjMzMC42MjUsMzE1Ljc1IEwyMzI4Ljg3NSwzMTUuNzUgWiBNMjMyNC42MjUsMzE2LjQzNzUgTDIzMjkuNTYyNSwzMTYuNDM3NSBMMjMyOS41NjI1LDMxNC42ODc1IEwyMzI0LjYyNSwzMTQuNjg3NSBMMjMyNC42MjUsMzE2LjQzNzUgWiAiIGZpbGw9IiMwMDAwMDAiLz48dGV4dCBmaWxsPSIjMDAwMDAwIiBmb250LWZhbWlseT0ic2Fucy1zZXJpZiIgZm9udC1zaXplPSIxNCIgbGVuZ3RoQWRqdXN0PSJzcGFjaW5nIiB0ZXh0TGVuZ3RoPSI3OCIgeD0iMjM0MSIgeT0iMzI1Ljc0MjIiPkJvb2tpbmdWaWV3PC90ZXh0PjxsaW5lIHN0eWxlPSJzdHJva2U6IzE4MTgxODtzdHJva2Utd2lkdGg6MC41OyIgeDE9IjIzMTMiIHgyPSIyNDIxIiB5MT0iMzM2IiB5Mj0iMzM2Ii8+PGxpbmUgc3R5bGU9InN0cm9rZTojMTgxODE4O3N0cm9rZS13aWR0aDowLjU7IiB4MT0iMjMxMyIgeDI9IjI0MjEiIHkxPSIzNDQiIHkyPSIzNDQiLz48L2c+PCEtLWNsYXNzIFNlYXRTZWxlY3Rpb25WaWV3LS0+PGcgaWQ9ImVsZW1fU2VhdFNlbGVjdGlvblZpZXciPjxyZWN0IGNvZGVMaW5lPSIxNDMiIGZpbGw9IiNGMUYxRjEiIGhlaWdodD0iNDgiIGlkPSJTZWF0U2VsZWN0aW9uVmlldyIgcng9IjIuNSIgcnk9IjIuNSIgc3R5bGU9InN0cm9rZTojMTgxODE4O3N0cm9rZS13aWR0aDowLjU7IiB3aWR0aD0iMTUyIiB4PSIyNDU3IiB5PSIzMDQiLz48ZWxsaXBzZSBjeD0iMjQ3MiIgY3k9IjMyMCIgZmlsbD0iI0FERDFCMiIgcng9IjExIiByeT0iMTEiIHN0eWxlPSJzdHJva2U6IzE4MTgxODtzdHJva2Utd2lkdGg6MS4wOyIvPjxwYXRoIGQ9Ik0yNDY5LjYyNSwzMjQuMjUgTDI0NjkuNjI1LDMyNiBMMjQ3NC41NjI1LDMyNiBMMjQ3NC41NjI1LDMyNC4yNSBMMjQ2OS42MjUsMzI0LjI1IFogTTI0NzAuMzEyNSwzMjQuOTM3NSBRMjQ3MC4zMTI1LDMyNC45Mzc1IDI0NzAuMzEyNSwzMTUuNzUgTDI0NjguNTYyNSwzMTUuNzUgUTI0NjguNTYyNSwzMTUuNzUgMjQ2OC41NjI1LDMyNC45Mzc1IEwyNDcwLjMxMjUsMzI0LjkzNzUgWiBNMjQ3My44NzUsMzI0LjkzNzUgTDI0NzUuNjI1LDMyNC45Mzc1IFEyNDc1LjYyNSwzMjQuOTM3NSAyNDc1LjYyNSwzMjIuMTI1IEwyNDczLjg3NSwzMjIuMTI1IFEyNDczLjg3NSwzMjIuMTI1IDI0NzMuODc1LDMyNC45Mzc1IFogTTI0NzMuODc1LDMxNS43NSBRMjQ3My44NzUsMzE1Ljc1IDI0NzMuODc1LDMxOC41NjI1IEwyNDc1LjYyNSwzMTguNTYyNSBRMjQ3NS42MjUsMzE4LjU2MjUgMjQ3NS42MjUsMzE1Ljc1IEwyNDczLjg3NSwzMTUuNzUgWiBNMjQ2OS42MjUsMzE2LjQzNzUgTDI0NzQuNTYyNSwzMTYuNDM3NSBMMjQ3NC41NjI1LDMxNC42ODc1IEwyNDY5LjYyNSwzMTQuNjg3NSBMMjQ2OS42MjUsMzE2LjQzNzUgWiAiIGZpbGw9IiMwMDAwMDAiLz48dGV4dCBmaWxsPSIjMDAwMDAwIiBmb250LWZhbWlseT0ic2Fucy1zZXJpZiIgZm9udC1zaXplPSIxNCIgbGVuZ3RoQWRqdXN0PSJzcGFjaW5nIiB0ZXh0TGVuZ3RoPSIxMjAiIHg9IjI0ODYiIHk9IjMyNS43NDIyIj5TZWF0U2VsZWN0aW9uVmlldzwvdGV4dD48bGluZSBzdHlsZT0ic3Ryb2tlOiMxODE4MTg7c3Ryb2tlLXdpZHRoOjAuNTsiIHgxPSIyNDU4IiB4Mj0iMjYwOCIgeTE9IjMzNiIgeTI9IjMzNiIvPjxsaW5lIHN0eWxlPSJzdHJva2U6IzE4MTgxODtzdHJva2Utd2lkdGg6MC41OyIgeDE9IjI0NTgiIHgyPSIyNjA4IiB5MT0iMzQ0IiB5Mj0iMzQ0Ii8+PC9nPjwhLS1jbGFzcyBQYXltZW50Vmlldy0tPjxnIGlkPSJlbGVtX1BheW1lbnRWaWV3Ij48cmVjdCBjb2RlTGluZT0iMTQ0IiBmaWxsPSIjRjFGMUYxIiBoZWlnaHQ9IjQ4IiBpZD0iUGF5bWVudFZpZXciIHJ4PSIyLjUiIHJ5PSIyLjUiIHN0eWxlPSJzdHJva2U6IzE4MTgxODtzdHJva2Utd2lkdGg6MC41OyIgd2lkdGg9IjExMSIgeD0iMjY0NC41IiB5PSIzMDQiLz48ZWxsaXBzZSBjeD0iMjY1OS41IiBjeT0iMzIwIiBmaWxsPSIjQUREMUIyIiByeD0iMTEiIHJ5PSIxMSIgc3R5bGU9InN0cm9rZTojMTgxODE4O3N0cm9rZS13aWR0aDoxLjA7Ii8+PHBhdGggZD0iTTI2NTcuMTI1LDMyNC4yNSBMMjY1Ny4xMjUsMzI2IEwyNjYyLjA2MjUsMzI2IEwyNjYyLjA2MjUsMzI0LjI1IEwyNjU3LjEyNSwzMjQuMjUgWiBNMjY1Ny44MTI1LDMyNC45Mzc1IFEyNjU3LjgxMjUsMzI0LjkzNzUgMjY1Ny44MTI1LDMxNS43NSBMMjY1Ni4wNjI1LDMxNS43NSBRMjY1Ni4wNjI1LDMxNS43NSAyNjU2LjA2MjUsMzI0LjkzNzUgTDI2NTcuODEyNSwzMjQuOTM3NSBaIE0yNjYxLjM3NSwzMjQuOTM3NSBMMjY2My4xMjUsMzI0LjkzNzUgUTI2NjMuMTI1LDMyNC45Mzc1IDI2NjMuMTI1LDMyMi4xMjUgTDI2NjEuMzc1LDMyMi4xMjUgUTI2NjEuMzc1LDMyMi4xMjUgMjY2MS4zNzUsMzI0LjkzNzUgWiBNMjY2MS4zNzUsMzE1Ljc1IFEyNjYxLjM3NSwzMTUuNzUgMjY2MS4zNzUsMzE4LjU2MjUgTDI2NjMuMTI1LDMxOC41NjI1IFEyNjYzLjEyNSwzMTguNTYyNSAyNjYzLjEyNSwzMTUuNzUgTDI2NjEuMzc1LDMxNS43NSBaIE0yNjU3LjEyNSwzMTYuNDM3NSBMMjY2Mi4wNjI1LDMxNi40Mzc1IEwyNjYyLjA2MjUsMzE0LjY4NzUgTDI2NTcuMTI1LDMxNC42ODc1IEwyNjU3LjEyNSwzMTYuNDM3NSBaICIgZmlsbD0iIzAwMDAwMCIvPjx0ZXh0IGZpbGw9IiMwMDAwMDAiIGZvbnQtZmFtaWx5PSJzYW5zLXNlcmlmIiBmb250LXNpemU9IjE0IiBsZW5ndGhBZGp1c3Q9InNwYWNpbmciIHRleHRMZW5ndGg9Ijc5IiB4PSIyNjczLjUiIHk9IjMyNS43NDIyIj5QYXltZW50VmlldzwvdGV4dD48bGluZSBzdHlsZT0ic3Ryb2tlOiMxODE4MTg7c3Ryb2tlLXdpZHRoOjAuNTsiIHgxPSIyNjQ1LjUiIHgyPSIyNzU0LjUiIHkxPSIzMzYiIHkyPSIzMzYiLz48bGluZSBzdHlsZT0ic3Ryb2tlOiMxODE4MTg7c3Ryb2tlLXdpZHRoOjAuNTsiIHgxPSIyNjQ1LjUiIHgyPSIyNzU0LjUiIHkxPSIzNDQiIHkyPSIzNDQiLz48L2c+PCEtLWNsYXNzIFRpY2tldFZpZXctLT48ZyBpZD0iZWxlbV9UaWNrZXRWaWV3Ij48cmVjdCBjb2RlTGluZT0iMTQ1IiBmaWxsPSIjRjFGMUYxIiBoZWlnaHQ9IjQ4IiBpZD0iVGlja2V0VmlldyIgcng9IjIuNSIgcnk9IjIuNSIgc3R5bGU9InN0cm9rZTojMTgxODE4O3N0cm9rZS13aWR0aDowLjU7IiB3aWR0aD0iMTAzIiB4PSIxODYyLjUiIHk9IjMwNCIvPjxlbGxpcHNlIGN4PSIxODc3LjUiIGN5PSIzMjAiIGZpbGw9IiNBREQxQjIiIHJ4PSIxMSIgcnk9IjExIiBzdHlsZT0ic3Ryb2tlOiMxODE4MTg7c3Ryb2tlLXdpZHRoOjEuMDsiLz48cGF0aCBkPSJNMTg3NS4xMjUsMzI0LjI1IEwxODc1LjEyNSwzMjYgTDE4ODAuMDYyNSwzMjYgTDE4ODAuMDYyNSwzMjQuMjUgTDE4NzUuMTI1LDMyNC4yNSBaIE0xODc1LjgxMjUsMzI0LjkzNzUgUTE4NzUuODEyNSwzMjQuOTM3NSAxODc1LjgxMjUsMzE1Ljc1IEwxODc0LjA2MjUsMzE1Ljc1IFExODc0LjA2MjUsMzE1Ljc1IDE4NzQuMDYyNSwzMjQuOTM3NSBMMTg3NS44MTI1LDMyNC45Mzc1IFogTTE4NzkuMzc1LDMyNC45Mzc1IEwxODgxLjEyNSwzMjQuOTM3NSBRMTg4MS4xMjUsMzI0LjkzNzUgMTg4MS4xMjUsMzIyLjEyNSBMMTg3OS4zNzUsMzIyLjEyNSBRMTg3OS4zNzUsMzIyLjEyNSAxODc5LjM3NSwzMjQuOTM3NSBaIE0xODc5LjM3NSwzMTUuNzUgUTE4NzkuMzc1LDMxNS43NSAxODc5LjM3NSwzMTguNTYyNSBMMTg4MS4xMjUsMzE4LjU2MjUgUTE4ODEuMTI1LDMxOC41NjI1IDE4ODEuMTI1LDMxNS43NSBMMTg3OS4zNzUsMzE1Ljc1IFogTTE4NzUuMTI1LDMxNi40Mzc1IEwxODgwLjA2MjUsMzE2LjQzNzUgTDE4ODAuMDYyNSwzMTQuNjg3NSBMMTg3NS4xMjUsMzE0LjY4NzUgTDE4NzUuMTI1LDMxNi40Mzc1IFogIiBmaWxsPSIjMDAwMDAwIi8+PHRleHQgZmlsbD0iIzAwMDAwMCIgZm9udC1mYW1pbHk9InNhbnMtc2VyaWYiIGZvbnQtc2l6ZT0iMTQiIGxlbmd0aEFkanVzdD0ic3BhY2luZyIgdGV4dExlbmd0aD0iNzEiIHg9IjE4OTEuNSIgeT0iMzI1Ljc0MjIiPlRpY2tldFZpZXc8L3RleHQ+PGxpbmUgc3R5bGU9InN0cm9rZTojMTgxODE4O3N0cm9rZS13aWR0aDowLjU7IiB4MT0iMTg2My41IiB4Mj0iMTk2NC41IiB5MT0iMzM2IiB5Mj0iMzM2Ii8+PGxpbmUgc3R5bGU9InN0cm9rZTojMTgxODE4O3N0cm9rZS13aWR0aDowLjU7IiB4MT0iMTg2My41IiB4Mj0iMTk2NC41IiB5MT0iMzQ0IiB5Mj0iMzQ0Ii8+PC9nPjwhLS1jbGFzcyBCb29raW5nSGlzdG9yeVZpZXctLT48ZyBpZD0iZWxlbV9Cb29raW5nSGlzdG9yeVZpZXciPjxyZWN0IGNvZGVMaW5lPSIxNDYiIGZpbGw9IiNGMUYxRjEiIGhlaWdodD0iNDgiIGlkPSJCb29raW5nSGlzdG9yeVZpZXciIHJ4PSIyLjUiIHJ5PSIyLjUiIHN0eWxlPSJzdHJva2U6IzE4MTgxODtzdHJva2Utd2lkdGg6MC41OyIgd2lkdGg9IjE1OSIgeD0iMTY2OC41IiB5PSIzMDQiLz48ZWxsaXBzZSBjeD0iMTY4My41IiBjeT0iMzIwIiBmaWxsPSIjQUREMUIyIiByeD0iMTEiIHJ5PSIxMSIgc3R5bGU9InN0cm9rZTojMTgxODE4O3N0cm9rZS13aWR0aDoxLjA7Ii8+PHBhdGggZD0iTTE2ODEuMTI1LDMyNC4yNSBMMTY4MS4xMjUsMzI2IEwxNjg2LjA2MjUsMzI2IEwxNjg2LjA2MjUsMzI0LjI1IEwxNjgxLjEyNSwzMjQuMjUgWiBNMTY4MS44MTI1LDMyNC45Mzc1IFExNjgxLjgxMjUsMzI0LjkzNzUgMTY4MS44MTI1LDMxNS43NSBMMTY4MC4wNjI1LDMxNS43NSBRMTY4MC4wNjI1LDMxNS43NSAxNjgwLjA2MjUsMzI0LjkzNzUgTDE2ODEuODEyNSwzMjQuOTM3NSBaIE0xNjg1LjM3NSwzMjQuOTM3NSBMMTY4Ny4xMjUsMzI0LjkzNzUgUTE2ODcuMTI1LDMyNC45Mzc1IDE2ODcuMTI1LDMyMi4xMjUgTDE2ODUuMzc1LDMyMi4xMjUgUTE2ODUuMzc1LDMyMi4xMjUgMTY4NS4zNzUsMzI0LjkzNzUgWiBNMTY4NS4zNzUsMzE1Ljc1IFExNjg1LjM3NSwzMTUuNzUgMTY4NS4zNzUsMzE4LjU2MjUgTDE2ODcuMTI1LDMxOC41NjI1IFExNjg3LjEyNSwzMTguNTYyNSAxNjg3LjEyNSwzMTUuNzUgTDE2ODUuMzc1LDMxNS43NSBaIE0xNjgxLjEyNSwzMTYuNDM3NSBMMTY4Ni4wNjI1LDMxNi40Mzc1IEwxNjg2LjA2MjUsMzE0LjY4NzUgTDE2ODEuMTI1LDMxNC42ODc1IEwxNjgxLjEyNSwzMTYuNDM3NSBaICIgZmlsbD0iIzAwMDAwMCIvPjx0ZXh0IGZpbGw9IiMwMDAwMDAiIGZvbnQtZmFtaWx5PSJzYW5zLXNlcmlmIiBmb250LXNpemU9IjE0IiBsZW5ndGhBZGp1c3Q9InNwYWNpbmciIHRleHRMZW5ndGg9IjEyNyIgeD0iMTY5Ny41IiB5PSIzMjUuNzQyMiI+Qm9va2luZ0hpc3RvcnlWaWV3PC90ZXh0PjxsaW5lIHN0eWxlPSJzdHJva2U6IzE4MTgxODtzdHJva2Utd2lkdGg6MC41OyIgeDE9IjE2NjkuNSIgeDI9IjE4MjYuNSIgeTE9IjMzNiIgeTI9IjMzNiIvPjxsaW5lIHN0eWxlPSJzdHJva2U6IzE4MTgxODtzdHJva2Utd2lkdGg6MC41OyIgeDE9IjE2NjkuNSIgeDI9IjE4MjYuNSIgeTE9IjM0NCIgeTI9IjM0NCIvPjwvZz48IS0tY2xhc3MgQWRtaW5EYXNoYm9hcmRWaWV3LS0+PGcgaWQ9ImVsZW1fQWRtaW5EYXNoYm9hcmRWaWV3Ij48cmVjdCBjb2RlTGluZT0iMTQ3IiBmaWxsPSIjRjFGMUYxIiBoZWlnaHQ9IjQ4IiBpZD0iQWRtaW5EYXNoYm9hcmRWaWV3IiByeD0iMi41IiByeT0iMi41IiBzdHlsZT0ic3Ryb2tlOiMxODE4MTg7c3Ryb2tlLXdpZHRoOjAuNTsiIHdpZHRoPSIxNjAiIHg9IjE0NzMiIHk9IjMwNCIvPjxlbGxpcHNlIGN4PSIxNDg4IiBjeT0iMzIwIiBmaWxsPSIjQUREMUIyIiByeD0iMTEiIHJ5PSIxMSIgc3R5bGU9InN0cm9rZTojMTgxODE4O3N0cm9rZS13aWR0aDoxLjA7Ii8+PHBhdGggZD0iTTE0ODUuNjI1LDMyNC4yNSBMMTQ4NS42MjUsMzI2IEwxNDkwLjU2MjUsMzI2IEwxNDkwLjU2MjUsMzI0LjI1IEwxNDg1LjYyNSwzMjQuMjUgWiBNMTQ4Ni4zMTI1LDMyNC45Mzc1IFExNDg2LjMxMjUsMzI0LjkzNzUgMTQ4Ni4zMTI1LDMxNS43NSBMMTQ4NC41NjI1LDMxNS43NSBRMTQ4NC41NjI1LDMxNS43NSAxNDg0LjU2MjUsMzI0LjkzNzUgTDE0ODYuMzEyNSwzMjQuOTM3NSBaIE0xNDg5Ljg3NSwzMjQuOTM3NSBMMTQ5MS42MjUsMzI0LjkzNzUgUTE0OTEuNjI1LDMyNC45Mzc1IDE0OTEuNjI1LDMyMi4xMjUgTDE0ODkuODc1LDMyMi4xMjUgUTE0ODkuODc1LDMyMi4xMjUgMTQ4OS44NzUsMzI0LjkzNzUgWiBNMTQ4OS44NzUsMzE1Ljc1IFExNDg5Ljg3NSwzMTUuNzUgMTQ4OS44NzUsMzE4LjU2MjUgTDE0OTEuNjI1LDMxOC41NjI1IFExNDkxLjYyNSwzMTguNTYyNSAxNDkxLjYyNSwzMTUuNzUgTDE0ODkuODc1LDMxNS43NSBaIE0xNDg1LjYyNSwzMTYuNDM3NSBMMTQ5MC41NjI1LDMxNi40Mzc1IEwxNDkwLjU2MjUsMzE0LjY4NzUgTDE0ODUuNjI1LDMxNC42ODc1IEwxNDg1LjYyNSwzMTYuNDM3NSBaICIgZmlsbD0iIzAwMDAwMCIvPjx0ZXh0IGZpbGw9IiMwMDAwMDAiIGZvbnQtZmFtaWx5PSJzYW5zLXNlcmlmIiBmb250LXNpemU9IjE0IiBsZW5ndGhBZGp1c3Q9InNwYWNpbmciIHRleHRMZW5ndGg9IjEyOCIgeD0iMTUwMiIgeT0iMzI1Ljc0MjIiPkFkbWluRGFzaGJvYXJkVmlldzwvdGV4dD48bGluZSBzdHlsZT0ic3Ryb2tlOiMxODE4MTg7c3Ryb2tlLXdpZHRoOjAuNTsiIHgxPSIxNDc0IiB4Mj0iMTYzMiIgeTE9IjMzNiIgeTI9IjMzNiIvPjxsaW5lIHN0eWxlPSJzdHJva2U6IzE4MTgxODtzdHJva2Utd2lkdGg6MC41OyIgeDE9IjE0NzQiIHgyPSIxNjMyIiB5MT0iMzQ0IiB5Mj0iMzQ0Ii8+PC9nPjwhLS1jbGFzcyBVc2VyQ29udHJvbGxlci0tPjxnIGlkPSJlbGVtX1VzZXJDb250cm9sbGVyIj48cmVjdCBjb2RlTGluZT0iMTUxIiBmaWxsPSIjRjFGMUYxIiBoZWlnaHQ9Ijc3Ljk2ODgiIGlkPSJVc2VyQ29udHJvbGxlciIgcng9IjIuNSIgcnk9IjIuNSIgc3R5bGU9InN0cm9rZTojMTgxODE4O3N0cm9rZS13aWR0aDowLjU7IiB3aWR0aD0iNDM2IiB4PSIxNjQ1IiB5PSI2MS41Ii8+PGVsbGlwc2UgY3g9IjE4MDkuNzUiIGN5PSI3Ny41IiBmaWxsPSIjQUREMUIyIiByeD0iMTEiIHJ5PSIxMSIgc3R5bGU9InN0cm9rZTojMTgxODE4O3N0cm9rZS13aWR0aDoxLjA7Ii8+PHBhdGggZD0iTTE4MDcuMzc1LDgxLjc1IEwxODA3LjM3NSw4My41IEwxODEyLjMxMjUsODMuNSBMMTgxMi4zMTI1LDgxLjc1IEwxODA3LjM3NSw4MS43NSBaIE0xODA4LjA2MjUsODIuNDM3NSBRMTgwOC4wNjI1LDgyLjQzNzUgMTgwOC4wNjI1LDczLjI1IEwxODA2LjMxMjUsNzMuMjUgUTE4MDYuMzEyNSw3My4yNSAxODA2LjMxMjUsODIuNDM3NSBMMTgwOC4wNjI1LDgyLjQzNzUgWiBNMTgxMS42MjUsODIuNDM3NSBMMTgxMy4zNzUsODIuNDM3NSBRMTgxMy4zNzUsODIuNDM3NSAxODEzLjM3NSw3OS42MjUgTDE4MTEuNjI1LDc5LjYyNSBRMTgxMS42MjUsNzkuNjI1IDE4MTEuNjI1LDgyLjQzNzUgWiBNMTgxMS42MjUsNzMuMjUgUTE4MTEuNjI1LDczLjI1IDE4MTEuNjI1LDc2LjA2MjUgTDE4MTMuMzc1LDc2LjA2MjUgUTE4MTMuMzc1LDc2LjA2MjUgMTgxMy4zNzUsNzMuMjUgTDE4MTEuNjI1LDczLjI1IFogTTE4MDcuMzc1LDczLjkzNzUgTDE4MTIuMzEyNSw3My45Mzc1IEwxODEyLjMxMjUsNzIuMTg3NSBMMTgwNy4zNzUsNzIuMTg3NSBMMTgwNy4zNzUsNzMuOTM3NSBaICIgZmlsbD0iIzAwMDAwMCIvPjx0ZXh0IGZpbGw9IiMwMDAwMDAiIGZvbnQtZmFtaWx5PSJzYW5zLXNlcmlmIiBmb250LXNpemU9IjE0IiBsZW5ndGhBZGp1c3Q9InNwYWNpbmciIHRleHRMZW5ndGg9Ijk4IiB4PSIxODMwLjI1IiB5PSI4My4yNDIyIj5Vc2VyQ29udHJvbGxlcjwvdGV4dD48bGluZSBzdHlsZT0ic3Ryb2tlOiMxODE4MTg7c3Ryb2tlLXdpZHRoOjAuNTsiIHgxPSIxNjQ2IiB4Mj0iMjA4MCIgeTE9IjkzLjUiIHkyPSI5My41Ii8+PGxpbmUgc3R5bGU9InN0cm9rZTojMTgxODE4O3N0cm9rZS13aWR0aDowLjU7IiB4MT0iMTY0NiIgeDI9IjIwODAiIHkxPSIxMDEuNSIgeTI9IjEwMS41Ii8+PGVsbGlwc2UgY3g9IjE2NTYiIGN5PSIxMTQuNDkyMiIgZmlsbD0iIzg0QkU4NCIgcng9IjMiIHJ5PSIzIiBzdHlsZT0ic3Ryb2tlOiMwMzgwNDg7c3Ryb2tlLXdpZHRoOjEuMDsiLz48dGV4dCBmaWxsPSIjMDAwMDAwIiBmb250LWZhbWlseT0ic2Fucy1zZXJpZiIgZm9udC1zaXplPSIxNCIgbGVuZ3RoQWRqdXN0PSJzcGFjaW5nIiB0ZXh0TGVuZ3RoPSI0MTAiIHg9IjE2NjUiIHk9IjExOC43MzQ0Ij5hdXRoZW50aWNhdGVVc2VyKHVzZXJuYW1lOiBTdHJpbmcsIHBhc3N3b3JkOiBTdHJpbmcpOiBVc2VyPC90ZXh0PjxlbGxpcHNlIGN4PSIxNjU2IiBjeT0iMTI5LjQ3NjYiIGZpbGw9IiM4NEJFODQiIHJ4PSIzIiByeT0iMyIgc3R5bGU9InN0cm9rZTojMDM4MDQ4O3N0cm9rZS13aWR0aDoxLjA7Ii8+PHRleHQgZmlsbD0iIzAwMDAwMCIgZm9udC1mYW1pbHk9InNhbnMtc2VyaWYiIGZvbnQtc2l6ZT0iMTQiIGxlbmd0aEFkanVzdD0ic3BhY2luZyIgdGV4dExlbmd0aD0iMzY2IiB4PSIxNjY1IiB5PSIxMzMuNzE4OCI+cmVnaXN0ZXJVc2VyKHVzZXJEYXRhOiBNYXAmbHQ7U3RyaW5nLCBTdHJpbmcmZ3Q7KTogYm9vbGVhbjwvdGV4dD48L2c+PCEtLWNsYXNzIEZsaWdodENvbnRyb2xsZXItLT48ZyBpZD0iZWxlbV9GbGlnaHRDb250cm9sbGVyIj48cmVjdCBjb2RlTGluZT0iMTU2IiBmaWxsPSIjRjFGMUYxIiBoZWlnaHQ9IjkyLjk1MzEiIGlkPSJGbGlnaHRDb250cm9sbGVyIiByeD0iMi41IiByeT0iMi41IiBzdHlsZT0ic3Ryb2tlOiMxODE4MTg7c3Ryb2tlLXdpZHRoOjAuNTsiIHdpZHRoPSI1NjAiIHg9IjEwNTAiIHk9IjU0Ii8+PGVsbGlwc2UgY3g9IjEyNjkuNzUiIGN5PSI3MCIgZmlsbD0iI0FERDFCMiIgcng9IjExIiByeT0iMTEiIHN0eWxlPSJzdHJva2U6IzE4MTgxODtzdHJva2Utd2lkdGg6MS4wOyIvPjxwYXRoIGQ9Ik0xMjY3LjM3NSw3NC4yNSBMMTI2Ny4zNzUsNzYgTDEyNzIuMzEyNSw3NiBMMTI3Mi4zMTI1LDc0LjI1IEwxMjY3LjM3NSw3NC4yNSBaIE0xMjY4LjA2MjUsNzQuOTM3NSBRMTI2OC4wNjI1LDc0LjkzNzUgMTI2OC4wNjI1LDY1Ljc1IEwxMjY2LjMxMjUsNjUuNzUgUTEyNjYuMzEyNSw2NS43NSAxMjY2LjMxMjUsNzQuOTM3NSBMMTI2OC4wNjI1LDc0LjkzNzUgWiBNMTI3MS42MjUsNzQuOTM3NSBMMTI3My4zNzUsNzQuOTM3NSBRMTI3My4zNzUsNzQuOTM3NSAxMjczLjM3NSw3Mi4xMjUgTDEyNzEuNjI1LDcyLjEyNSBRMTI3MS42MjUsNzIuMTI1IDEyNzEuNjI1LDc0LjkzNzUgWiBNMTI3MS42MjUsNjUuNzUgUTEyNzEuNjI1LDY1Ljc1IDEyNzEuNjI1LDY4LjU2MjUgTDEyNzMuMzc1LDY4LjU2MjUgUTEyNzMuMzc1LDY4LjU2MjUgMTI3My4zNzUsNjUuNzUgTDEyNzEuNjI1LDY1Ljc1IFogTTEyNjcuMzc1LDY2LjQzNzUgTDEyNzIuMzEyNSw2Ni40Mzc1IEwxMjcyLjMxMjUsNjQuNjg3NSBMMTI2Ny4zNzUsNjQuNjg3NSBMMTI2Ny4zNzUsNjYuNDM3NSBaICIgZmlsbD0iIzAwMDAwMCIvPjx0ZXh0IGZpbGw9IiMwMDAwMDAiIGZvbnQtZmFtaWx5PSJzYW5zLXNlcmlmIiBmb250LXNpemU9IjE0IiBsZW5ndGhBZGp1c3Q9InNwYWNpbmciIHRleHRMZW5ndGg9IjExMiIgeD0iMTI5MC4yNSIgeT0iNzUuNzQyMiI+RmxpZ2h0Q29udHJvbGxlcjwvdGV4dD48bGluZSBzdHlsZT0ic3Ryb2tlOiMxODE4MTg7c3Ryb2tlLXdpZHRoOjAuNTsiIHgxPSIxMDUxIiB4Mj0iMTYwOSIgeTE9Ijg2IiB5Mj0iODYiLz48bGluZSBzdHlsZT0ic3Ryb2tlOiMxODE4MTg7c3Ryb2tlLXdpZHRoOjAuNTsiIHgxPSIxMDUxIiB4Mj0iMTYwOSIgeTE9Ijk0IiB5Mj0iOTQiLz48ZWxsaXBzZSBjeD0iMTA2MSIgY3k9IjEwNi45OTIyIiBmaWxsPSIjODRCRTg0IiByeD0iMyIgcnk9IjMiIHN0eWxlPSJzdHJva2U6IzAzODA0ODtzdHJva2Utd2lkdGg6MS4wOyIvPjx0ZXh0IGZpbGw9IiMwMDAwMDAiIGZvbnQtZmFtaWx5PSJzYW5zLXNlcmlmIiBmb250LXNpemU9IjE0IiBsZW5ndGhBZGp1c3Q9InNwYWNpbmciIHRleHRMZW5ndGg9IjUzNCIgeD0iMTA3MCIgeT0iMTExLjIzNDQiPnNlYXJjaEZsaWdodHMoc291cmNlOiBTdHJpbmcsIGRlc3RpbmF0aW9uOiBTdHJpbmcsIGRhdGU6IERhdGUpOiBMaXN0Jmx0O0ZsaWdodCZndDs8L3RleHQ+PGVsbGlwc2UgY3g9IjEwNjEiIGN5PSIxMjEuOTc2NiIgZmlsbD0iIzg0QkU4NCIgcng9IjMiIHJ5PSIzIiBzdHlsZT0ic3Ryb2tlOiMwMzgwNDg7c3Ryb2tlLXdpZHRoOjEuMDsiLz48dGV4dCBmaWxsPSIjMDAwMDAwIiBmb250LWZhbWlseT0ic2Fucy1zZXJpZiIgZm9udC1zaXplPSIxNCIgbGVuZ3RoQWRqdXN0PSJzcGFjaW5nIiB0ZXh0TGVuZ3RoPSIyOTYiIHg9IjEwNzAiIHk9IjEyNi4yMTg4Ij5nZXRGbGlnaHREZXRhaWxzKGZsaWdodElkOiBTdHJpbmcpOiBGbGlnaHQ8L3RleHQ+PGVsbGlwc2UgY3g9IjEwNjEiIGN5PSIxMzYuOTYwOSIgZmlsbD0iIzg0QkU4NCIgcng9IjMiIHJ5PSIzIiBzdHlsZT0ic3Ryb2tlOiMwMzgwNDg7c3Ryb2tlLXdpZHRoOjEuMDsiLz48dGV4dCBmaWxsPSIjMDAwMDAwIiBmb250LWZhbWlseT0ic2Fucy1zZXJpZiIgZm9udC1zaXplPSIxNCIgbGVuZ3RoQWRqdXN0PSJzcGFjaW5nIiB0ZXh0TGVuZ3RoPSI0NzEiIHg9IjEwNzAiIHk9IjE0MS4yMDMxIj51cGRhdGVGbGlnaHRTdGF0dXMoZmxpZ2h0SWQ6IFN0cmluZywgc3RhdHVzOiBGbGlnaHRTdGF0dXMpOiBib29sZWFuPC90ZXh0PjwvZz48IS0tY2xhc3MgQm9va2luZ0NvbnRyb2xsZXItLT48ZyBpZD0iZWxlbV9Cb29raW5nQ29udHJvbGxlciI+PHJlY3QgY29kZUxpbmU9IjE2MiIgZmlsbD0iI0YxRjFGMSIgaGVpZ2h0PSIxMjIuOTIxOSIgaWQ9IkJvb2tpbmdDb250cm9sbGVyIiByeD0iMi41IiByeT0iMi41IiBzdHlsZT0ic3Ryb2tlOiMxODE4MTg7c3Ryb2tlLXdpZHRoOjAuNTsiIHdpZHRoPSI0OTEiIHg9IjIxMTYuNSIgeT0iMzkiLz48ZWxsaXBzZSBjeD0iMjI5OC4yNSIgY3k9IjU1IiBmaWxsPSIjQUREMUIyIiByeD0iMTEiIHJ5PSIxMSIgc3R5bGU9InN0cm9rZTojMTgxODE4O3N0cm9rZS13aWR0aDoxLjA7Ii8+PHBhdGggZD0iTTIyOTUuODc1LDU5LjI1IEwyMjk1Ljg3NSw2MSBMMjMwMC44MTI1LDYxIEwyMzAwLjgxMjUsNTkuMjUgTDIyOTUuODc1LDU5LjI1IFogTTIyOTYuNTYyNSw1OS45Mzc1IFEyMjk2LjU2MjUsNTkuOTM3NSAyMjk2LjU2MjUsNTAuNzUgTDIyOTQuODEyNSw1MC43NSBRMjI5NC44MTI1LDUwLjc1IDIyOTQuODEyNSw1OS45Mzc1IEwyMjk2LjU2MjUsNTkuOTM3NSBaIE0yMzAwLjEyNSw1OS45Mzc1IEwyMzAxLjg3NSw1OS45Mzc1IFEyMzAxLjg3NSw1OS45Mzc1IDIzMDEuODc1LDU3LjEyNSBMMjMwMC4xMjUsNTcuMTI1IFEyMzAwLjEyNSw1Ny4xMjUgMjMwMC4xMjUsNTkuOTM3NSBaIE0yMzAwLjEyNSw1MC43NSBRMjMwMC4xMjUsNTAuNzUgMjMwMC4xMjUsNTMuNTYyNSBMMjMwMS44NzUsNTMuNTYyNSBRMjMwMS44NzUsNTMuNTYyNSAyMzAxLjg3NSw1MC43NSBMMjMwMC4xMjUsNTAuNzUgWiBNMjI5NS44NzUsNTEuNDM3NSBMMjMwMC44MTI1LDUxLjQzNzUgTDIzMDAuODEyNSw0OS42ODc1IEwyMjk1Ljg3NSw0OS42ODc1IEwyMjk1Ljg3NSw1MS40Mzc1IFogIiBmaWxsPSIjMDAwMDAwIi8+PHRleHQgZmlsbD0iIzAwMDAwMCIgZm9udC1mYW1pbHk9InNhbnMtc2VyaWYiIGZvbnQtc2l6ZT0iMTQiIGxlbmd0aEFkanVzdD0ic3BhY2luZyIgdGV4dExlbmd0aD0iMTE5IiB4PSIyMzE4Ljc1IiB5PSI2MC43NDIyIj5Cb29raW5nQ29udHJvbGxlcjwvdGV4dD48bGluZSBzdHlsZT0ic3Ryb2tlOiMxODE4MTg7c3Ryb2tlLXdpZHRoOjAuNTsiIHgxPSIyMTE3LjUiIHgyPSIyNjA2LjUiIHkxPSI3MSIgeTI9IjcxIi8+PGxpbmUgc3R5bGU9InN0cm9rZTojMTgxODE4O3N0cm9rZS13aWR0aDowLjU7IiB4MT0iMjExNy41IiB4Mj0iMjYwNi41IiB5MT0iNzkiIHkyPSI3OSIvPjxlbGxpcHNlIGN4PSIyMTI3LjUiIGN5PSI5MS45OTIyIiBmaWxsPSIjODRCRTg0IiByeD0iMyIgcnk9IjMiIHN0eWxlPSJzdHJva2U6IzAzODA0ODtzdHJva2Utd2lkdGg6MS4wOyIvPjx0ZXh0IGZpbGw9IiMwMDAwMDAiIGZvbnQtZmFtaWx5PSJzYW5zLXNlcmlmIiBmb250LXNpemU9IjE0IiBsZW5ndGhBZGp1c3Q9InNwYWNpbmciIHRleHRMZW5ndGg9IjQyMyIgeD0iMjEzNi41IiB5PSI5Ni4yMzQ0Ij5jcmVhdGVCb29raW5nKGN1c3RvbWVySWQ6IFN0cmluZywgZmxpZ2h0SWQ6IFN0cmluZyk6IEJvb2tpbmc8L3RleHQ+PGVsbGlwc2UgY3g9IjIxMjcuNSIgY3k9IjEwNi45NzY2IiBmaWxsPSIjODRCRTg0IiByeD0iMyIgcnk9IjMiIHN0eWxlPSJzdHJva2U6IzAzODA0ODtzdHJva2Utd2lkdGg6MS4wOyIvPjx0ZXh0IGZpbGw9IiMwMDAwMDAiIGZvbnQtZmFtaWx5PSJzYW5zLXNlcmlmIiBmb250LXNpemU9IjE0IiBsZW5ndGhBZGp1c3Q9InNwYWNpbmciIHRleHRMZW5ndGg9IjQ2NSIgeD0iMjEzNi41IiB5PSIxMTEuMjE4OCI+c2VsZWN0U2VhdHMoYm9va2luZ0lkOiBTdHJpbmcsIHNlYXROdW1iZXJzOiBMaXN0Jmx0O1N0cmluZyZndDspOiBib29sZWFuPC90ZXh0PjxlbGxpcHNlIGN4PSIyMTI3LjUiIGN5PSIxMjEuOTYwOSIgZmlsbD0iIzg0QkU4NCIgcng9IjMiIHJ5PSIzIiBzdHlsZT0ic3Ryb2tlOiMwMzgwNDg7c3Ryb2tlLXdpZHRoOjEuMDsiLz48dGV4dCBmaWxsPSIjMDAwMDAwIiBmb250LWZhbWlseT0ic2Fucy1zZXJpZiIgZm9udC1zaXplPSIxNCIgbGVuZ3RoQWRqdXN0PSJzcGFjaW5nIiB0ZXh0TGVuZ3RoPSIyOTciIHg9IjIxMzYuNSIgeT0iMTI2LjIwMzEiPmNvbmZpcm1Cb29raW5nKGJvb2tpbmdJZDogU3RyaW5nKTogYm9vbGVhbjwvdGV4dD48ZWxsaXBzZSBjeD0iMjEyNy41IiBjeT0iMTM2Ljk0NTMiIGZpbGw9IiM4NEJFODQiIHJ4PSIzIiByeT0iMyIgc3R5bGU9InN0cm9rZTojMDM4MDQ4O3N0cm9rZS13aWR0aDoxLjA7Ii8+PHRleHQgZmlsbD0iIzAwMDAwMCIgZm9udC1mYW1pbHk9InNhbnMtc2VyaWYiIGZvbnQtc2l6ZT0iMTQiIGxlbmd0aEFkanVzdD0ic3BhY2luZyIgdGV4dExlbmd0aD0iMjg5IiB4PSIyMTM2LjUiIHk9IjE0MS4xODc1Ij5jYW5jZWxCb29raW5nKGJvb2tpbmdJZDogU3RyaW5nKTogYm9vbGVhbjwvdGV4dD48ZWxsaXBzZSBjeD0iMjEyNy41IiBjeT0iMTUxLjkyOTciIGZpbGw9IiM4NEJFODQiIHJ4PSIzIiByeT0iMyIgc3R5bGU9InN0cm9rZTojMDM4MDQ4O3N0cm9rZS13aWR0aDoxLjA7Ii8+PHRleHQgZmlsbD0iIzAwMDAwMCIgZm9udC1mYW1pbHk9InNhbnMtc2VyaWYiIGZvbnQtc2l6ZT0iMTQiIGxlbmd0aEFkanVzdD0ic3BhY2luZyIgdGV4dExlbmd0aD0iMzE3IiB4PSIyMTM2LjUiIHk9IjE1Ni4xNzE5Ij5nZXRCb29raW5nRGV0YWlscyhib29raW5nSWQ6IFN0cmluZyk6IEJvb2tpbmc8L3RleHQ+PC9nPjwhLS1jbGFzcyBQYXltZW50Q29udHJvbGxlci0tPjxnIGlkPSJlbGVtX1BheW1lbnRDb250cm9sbGVyIj48cmVjdCBjb2RlTGluZT0iMTcwIiBmaWxsPSIjRjFGMUYxIiBoZWlnaHQ9IjkyLjk1MzEiIGlkPSJQYXltZW50Q29udHJvbGxlciIgcng9IjIuNSIgcnk9IjIuNSIgc3R5bGU9InN0cm9rZTojMTgxODE4O3N0cm9rZS13aWR0aDowLjU7IiB3aWR0aD0iNTM1IiB4PSIyNjQyLjUiIHk9IjU0Ii8+PGVsbGlwc2UgY3g9IjI4NDUuNzUiIGN5PSI3MCIgZmlsbD0iI0FERDFCMiIgcng9IjExIiByeT0iMTEiIHN0eWxlPSJzdHJva2U6IzE4MTgxODtzdHJva2Utd2lkdGg6MS4wOyIvPjxwYXRoIGQ9Ik0yODQzLjM3NSw3NC4yNSBMMjg0My4zNzUsNzYgTDI4NDguMzEyNSw3NiBMMjg0OC4zMTI1LDc0LjI1IEwyODQzLjM3NSw3NC4yNSBaIE0yODQ0LjA2MjUsNzQuOTM3NSBRMjg0NC4wNjI1LDc0LjkzNzUgMjg0NC4wNjI1LDY1Ljc1IEwyODQyLjMxMjUsNjUuNzUgUTI4NDIuMzEyNSw2NS43NSAyODQyLjMxMjUsNzQuOTM3NSBMMjg0NC4wNjI1LDc0LjkzNzUgWiBNMjg0Ny42MjUsNzQuOTM3NSBMMjg0OS4zNzUsNzQuOTM3NSBRMjg0OS4zNzUsNzQuOTM3NSAyODQ5LjM3NSw3Mi4xMjUgTDI4NDcuNjI1LDcyLjEyNSBRMjg0Ny42MjUsNzIuMTI1IDI4NDcuNjI1LDc0LjkzNzUgWiBNMjg0Ny42MjUsNjUuNzUgUTI4NDcuNjI1LDY1Ljc1IDI4NDcuNjI1LDY4LjU2MjUgTDI4NDkuMzc1LDY4LjU2MjUgUTI4NDkuMzc1LDY4LjU2MjUgMjg0OS4zNzUsNjUuNzUgTDI4NDcuNjI1LDY1Ljc1IFogTTI4NDMuMzc1LDY2LjQzNzUgTDI4NDguMzEyNSw2Ni40Mzc1IEwyODQ4LjMxMjUsNjQuNjg3NSBMMjg0My4zNzUsNjQuNjg3NSBMMjg0My4zNzUsNjYuNDM3NSBaICIgZmlsbD0iIzAwMDAwMCIvPjx0ZXh0IGZpbGw9IiMwMDAwMDAiIGZvbnQtZmFtaWx5PSJzYW5zLXNlcmlmIiBmb250LXNpemU9IjE0IiBsZW5ndGhBZGp1c3Q9InNwYWNpbmciIHRleHRMZW5ndGg9IjEyMCIgeD0iMjg2Ni4yNSIgeT0iNzUuNzQyMiI+UGF5bWVudENvbnRyb2xsZXI8L3RleHQ+PGxpbmUgc3R5bGU9InN0cm9rZTojMTgxODE4O3N0cm9rZS13aWR0aDowLjU7IiB4MT0iMjY0My41IiB4Mj0iMzE3Ni41IiB5MT0iODYiIHkyPSI4NiIvPjxsaW5lIHN0eWxlPSJzdHJva2U6IzE4MTgxODtzdHJva2Utd2lkdGg6MC41OyIgeDE9IjI2NDMuNSIgeDI9IjMxNzYuNSIgeTE9Ijk0IiB5Mj0iOTQiLz48ZWxsaXBzZSBjeD0iMjY1My41IiBjeT0iMTA2Ljk5MjIiIGZpbGw9IiM4NEJFODQiIHJ4PSIzIiByeT0iMyIgc3R5bGU9InN0cm9rZTojMDM4MDQ4O3N0cm9rZS13aWR0aDoxLjA7Ii8+PHRleHQgZmlsbD0iIzAwMDAwMCIgZm9udC1mYW1pbHk9InNhbnMtc2VyaWYiIGZvbnQtc2l6ZT0iMTQiIGxlbmd0aEFkanVzdD0ic3BhY2luZyIgdGV4dExlbmd0aD0iNTA5IiB4PSIyNjYyLjUiIHk9IjExMS4yMzQ0Ij5wcm9jZXNzUGF5bWVudChib29raW5nSWQ6IFN0cmluZywgcGF5bWVudE1ldGhvZDogUGF5bWVudE1ldGhvZCk6IGJvb2xlYW48L3RleHQ+PGVsbGlwc2UgY3g9IjI2NTMuNSIgY3k9IjEyMS45NzY2IiBmaWxsPSIjODRCRTg0IiByeD0iMyIgcnk9IjMiIHN0eWxlPSJzdHJva2U6IzAzODA0ODtzdHJva2Utd2lkdGg6MS4wOyIvPjx0ZXh0IGZpbGw9IiMwMDAwMDAiIGZvbnQtZmFtaWx5PSJzYW5zLXNlcmlmIiBmb250LXNpemU9IjE0IiBsZW5ndGhBZGp1c3Q9InNwYWNpbmciIHRleHRMZW5ndGg9IjI5MSIgeD0iMjY2Mi41IiB5PSIxMjYuMjE4OCI+dmVyaWZ5UGF5bWVudChwYXltZW50SWQ6IFN0cmluZyk6IGJvb2xlYW48L3RleHQ+PGVsbGlwc2UgY3g9IjI2NTMuNSIgY3k9IjEzNi45NjA5IiBmaWxsPSIjODRCRTg0IiByeD0iMyIgcnk9IjMiIHN0eWxlPSJzdHJva2U6IzAzODA0ODtzdHJva2Utd2lkdGg6MS4wOyIvPjx0ZXh0IGZpbGw9IiMwMDAwMDAiIGZvbnQtZmFtaWx5PSJzYW5zLXNlcmlmIiBmb250LXNpemU9IjE0IiBsZW5ndGhBZGp1c3Q9InNwYWNpbmciIHRleHRMZW5ndGg9IjI5NiIgeD0iMjY2Mi41IiB5PSIxNDEuMjAzMSI+aW5pdGlhdGVSZWZ1bmQoYm9va2luZ0lkOiBTdHJpbmcpOiBib29sZWFuPC90ZXh0PjwvZz48IS0tcmV2ZXJzZSBsaW5rIFVzZXIgdG8gQ3VzdG9tZXItLT48ZyBpZD0ibGlua19Vc2VyX0N1c3RvbWVyIj48cGF0aCBkPSJNNzM2LjA2OTYsNDMwLjE3NiBDNzM1LjYzOTYsNDUwLjUxNiA3MzYuMjgsNDUzLjkyIDczNy4yNCw0NzIuOTcgIiBmaWxsPSJub25lIiBpZD0iVXNlci1iYWNrdG8tQ3VzdG9tZXIiIHN0eWxlPSJzdHJva2U6IzE4MTgxODtzdHJva2Utd2lkdGg6MS4wOyIvPjxwb2x5Z29uIGZpbGw9Im5vbmUiIHBvaW50cz0iNzM2LjQ1LDQxMi4xOCw3MzAuMDcwOSw0MzAuMDQ5Miw3NDIuMDY4Miw0MzAuMzAyOCw3MzYuNDUsNDEyLjE4IiBzdHlsZT0ic3Ryb2tlOiMxODE4MTg7c3Ryb2tlLXdpZHRoOjEuMDsiLz48L2c+PCEtLXJldmVyc2UgbGluayBVc2VyIHRvIEN1c3RvbWVyLS0+PGcgaWQ9ImxpbmtfVXNlcl9DdXN0b21lciI+PHBhdGggY29kZUxpbmU9IjE4NCIgZD0iTTc2Mi42ODgxLDQzMC4xNzU2IEM3NjMuMTM4MSw0NTAuNTE1NiA3NjIuNDYsNDUzLjkyIDc2MS40NSw0NzIuOTcgIiBmaWxsPSJub25lIiBpZD0iVXNlci1iYWNrdG8tQ3VzdG9tZXItMSIgc3R5bGU9InN0cm9rZTojMTgxODE4O3N0cm9rZS13aWR0aDoxLjA7Ii8+PHBvbHlnb24gZmlsbD0ibm9uZSIgcG9pbnRzPSI3NjIuMjksNDEyLjE4LDc1Ni42ODk2LDQzMC4zMDgzLDc2OC42ODY3LDQzMC4wNDI5LDc2Mi4yOSw0MTIuMTgiIHN0eWxlPSJzdHJva2U6IzE4MTgxODtzdHJva2Utd2lkdGg6MS4wOyIvPjwvZz48IS0tcmV2ZXJzZSBsaW5rIFVzZXIgdG8gQWRtaW4tLT48ZyBpZD0ibGlua19Vc2VyX0FkbWluIj48cGF0aCBkPSJNNjM0LjE4NjIsMzc0Ljk5NTcgQzU1OS4yODYyLDQwNi44NTU3IDQ3Mi45Myw0NDUuMjEgMzk1LjYxLDQ4MC40MSAiIGZpbGw9Im5vbmUiIGlkPSJVc2VyLWJhY2t0by1BZG1pbiIgc3R5bGU9InN0cm9rZTojMTgxODE4O3N0cm9rZS13aWR0aDoxLjA7Ii8+PHBvbHlnb24gZmlsbD0ibm9uZSIgcG9pbnRzPSI2NTAuNzUsMzY3Ljk1LDYzMS44Mzc3LDM2OS40NzQ0LDYzNi41MzQ4LDM4MC41MTY5LDY1MC43NSwzNjcuOTUiIHN0eWxlPSJzdHJva2U6IzE4MTgxODtzdHJva2Utd2lkdGg6MS4wOyIvPjwvZz48IS0tcmV2ZXJzZSBsaW5rIFVzZXIgdG8gQWRtaW4tLT48ZyBpZD0ibGlua19Vc2VyX0FkbWluIj48cGF0aCBjb2RlTGluZT0iMTg1IiBkPSJNNjM0LjU0MjksMzg1LjA4MTMgQzU2Ni45MjI5LDQxNi4wMzEzIDQ5Mi44MSw0NDguNjQgNDE4LjkxLDQ4MC40MiAiIGZpbGw9Im5vbmUiIGlkPSJVc2VyLWJhY2t0by1BZG1pbi0xIiBzdHlsZT0ic3Ryb2tlOiMxODE4MTg7c3Ryb2tlLXdpZHRoOjEuMDsiLz48cG9seWdvbiBmaWxsPSJub25lIiBwb2ludHM9IjY1MC45MSwzNzcuNTksNjMyLjA0NTgsMzc5LjYyNTYsNjM3LjA0LDM5MC41MzcsNjUwLjkxLDM3Ny41OSIgc3R5bGU9InN0cm9rZTojMTgxODE4O3N0cm9rZS13aWR0aDoxLjA7Ii8+PC9nPjwhLS1saW5rIEN1c3RvbWVyIHRvIEJvb2tpbmctLT48ZyBpZD0ibGlua19DdXN0b21lcl9Cb29raW5nIj48cGF0aCBjb2RlTGluZT0iMTc4IiBkPSJNNzcwLjUzLDU5Ni4yOSBDNzc4LjUyLDYxOC44NSA3ODcuODYsNjQ1LjIyIDc5Ni45Nyw2NzAuOTUgIiBmaWxsPSJub25lIiBpZD0iQ3VzdG9tZXItQm9va2luZyIgc3R5bGU9InN0cm9rZTojMTgxODE4O3N0cm9rZS13aWR0aDoxLjA7Ii8+PHRleHQgZmlsbD0iIzAwMDAwMCIgZm9udC1mYW1pbHk9InNhbnMtc2VyaWYiIGZvbnQtc2l6ZT0iMTMiIGxlbmd0aEFkanVzdD0ic3BhY2luZyIgdGV4dExlbmd0aD0iMzQiIHg9Ijc4NiIgeT0iNjM5LjI4OTEiPm1ha2VzPC90ZXh0Pjx0ZXh0IGZpbGw9IiMwMDAwMDAiIGZvbnQtZmFtaWx5PSJzYW5zLXNlcmlmIiBmb250LXNpemU9IjEzIiBsZW5ndGhBZGp1c3Q9InNwYWNpbmciIHRleHRMZW5ndGg9IjciIHg9Ijc2NS41MDIiIHk9IjYxNi4xMDI1Ij4xPC90ZXh0Pjx0ZXh0IGZpbGw9IiMwMDAwMDAiIGZvbnQtZmFtaWx5PSJzYW5zLXNlcmlmIiBmb250LXNpemU9IjEzIiBsZW5ndGhBZGp1c3Q9InNwYWNpbmciIHRleHRMZW5ndGg9IjYiIHg9Ijc4Ny44MSIgeT0iNjYxLjQyNjYiPio8L3RleHQ+PC9nPjwhLS1saW5rIEJvb2tpbmcgdG8gRmxpZ2h0LS0+PGcgaWQ9ImxpbmtfQm9va2luZ19GbGlnaHQiPjxwYXRoIGNvZGVMaW5lPSIxNzkiIGQ9Ik03MjQuODUsODQ3LjUzIEM2NDguNyw4ODkuMyA1NDYuODcsOTQ1LjE3IDQ2Mi4yMSw5OTEuNjEgIiBmaWxsPSJub25lIiBpZD0iQm9va2luZy1GbGlnaHQiIHN0eWxlPSJzdHJva2U6IzE4MTgxODtzdHJva2Utd2lkdGg6MS4wOyIvPjx0ZXh0IGZpbGw9IiMwMDAwMDAiIGZvbnQtZmFtaWx5PSJzYW5zLXNlcmlmIiBmb250LXNpemU9IjEzIiBsZW5ndGhBZGp1c3Q9InNwYWNpbmciIHRleHRMZW5ndGg9IjIwIiB4PSI1NzAiIHk9Ijk0Mi4yODkxIj5mb3I8L3RleHQ+PHRleHQgZmlsbD0iIzAwMDAwMCIgZm9udC1mYW1pbHk9InNhbnMtc2VyaWYiIGZvbnQtc2l6ZT0iMTMiIGxlbmd0aEFkanVzdD0ic3BhY2luZyIgdGV4dExlbmd0aD0iNiIgeD0iNzExLjExMzQiIHk9Ijg1MC42MjA2Ij4qPC90ZXh0Pjx0ZXh0IGZpbGw9IiMwMDAwMDAiIGZvbnQtZmFtaWx5PSJzYW5zLXNlcmlmIiBmb250LXNpemU9IjEzIiBsZW5ndGhBZGp1c3Q9InNwYWNpbmciIHRleHRMZW5ndGg9IjciIHg9IjQ3MC4xMzk3IiB5PSI5ODYuMzA0OSI+MTwvdGV4dD48L2c+PCEtLWxpbmsgQm9va2luZyB0byBQYXltZW50LS0+PGcgaWQ9ImxpbmtfQm9va2luZ19QYXltZW50Ij48cGF0aCBjb2RlTGluZT0iMTgwIiBkPSJNOTQ5LjAzLDg3Mi4wOCBDMTAwMC4xMSw5MTEuMzIgMTA2MC4zMyw5NTcuNTkgMTExMC45MSw5OTYuNDYgIiBmaWxsPSJub25lIiBpZD0iQm9va2luZy1QYXltZW50IiBzdHlsZT0ic3Ryb2tlOiMxODE4MTg7c3Ryb2tlLXdpZHRoOjEuMDsiLz48dGV4dCBmaWxsPSIjMDAwMDAwIiBmb250LWZhbWlseT0ic2Fucy1zZXJpZiIgZm9udC1zaXplPSIxMyIgbGVuZ3RoQWRqdXN0PSJzcGFjaW5nIiB0ZXh0TGVuZ3RoPSIyMSIgeD0iMTA0MCIgeT0iOTQyLjI4OTEiPmhhczwvdGV4dD48dGV4dCBmaWxsPSIjMDAwMDAwIiBmb250LWZhbWlseT0ic2Fucy1zZXJpZiIgZm9udC1zaXplPSIxMyIgbGVuZ3RoQWRqdXN0PSJzcGFjaW5nIiB0ZXh0TGVuZ3RoPSI3IiB4PSI5NTcuMTUzMiIgeT0iODc3LjA3MzYiPjE8L3RleHQ+PHRleHQgZmlsbD0iIzAwMDAwMCIgZm9udC1mYW1pbHk9InNhbnMtc2VyaWYiIGZvbnQtc2l6ZT0iMTMiIGxlbmd0aEFkanVzdD0ic3BhY2luZyIgdGV4dExlbmd0aD0iNyIgeD0iMTA5Mi45MjU0IiB5PSI5ODYuODg3NyI+MTwvdGV4dD48L2c+PCEtLWxpbmsgQm9va2luZyB0byBUaWNrZXQtLT48ZyBpZD0ibGlua19Cb29raW5nX1RpY2tldCI+PHBhdGggY29kZUxpbmU9IjE4MSIgZD0iTTg3OS4zNyw4OTkuMDUgQzg5MC41MSw5MjguNzcgOTAyLjM3LDk2MC40MyA5MTMuMDEsOTg4LjggIiBmaWxsPSJub25lIiBpZD0iQm9va2luZy1UaWNrZXQiIHN0eWxlPSJzdHJva2U6IzE4MTgxODtzdHJva2Utd2lkdGg6MS4wOyIvPjx0ZXh0IGZpbGw9IiMwMDAwMDAiIGZvbnQtZmFtaWx5PSJzYW5zLXNlcmlmIiBmb250LXNpemU9IjEzIiBsZW5ndGhBZGp1c3Q9InNwYWNpbmciIHRleHRMZW5ndGg9IjYyIiB4PSI4OTYiIHk9Ijk0Mi4yODkxIj5nZW5lcmF0ZXM8L3RleHQ+PHRleHQgZmlsbD0iIzAwMDAwMCIgZm9udC1mYW1pbHk9InNhbnMtc2VyaWYiIGZvbnQtc2l6ZT0iMTMiIGxlbmd0aEFkanVzdD0ic3BhY2luZyIgdGV4dExlbmd0aD0iNyIgeD0iODc0Ljg2MDEiIHk9IjkxOS4wOTcxIj4xPC90ZXh0Pjx0ZXh0IGZpbGw9IiMwMDAwMDAiIGZvbnQtZmFtaWx5PSJzYW5zLXNlcmlmIiBmb250LXNpemU9IjEzIiBsZW5ndGhBZGp1c3Q9InNwYWNpbmciIHRleHRMZW5ndGg9IjYiIHg9IjkwMy43MTU2IiB5PSI5NzkuMzkwMSI+KjwvdGV4dD48L2c+PCEtLWxpbmsgRmxpZ2h0IHRvIEFpcnBvcnQtLT48ZyBpZD0ibGlua19GbGlnaHRfQWlycG9ydCI+PHBhdGggY29kZUxpbmU9IjE4MiIgZD0iTTMwMiwxMTg3LjMyIEMzMDIsMTIxMy4xNCAzMDIsMTIzOS42OCAzMDIsMTI2MS44MyAiIGZpbGw9Im5vbmUiIGlkPSJGbGlnaHQtQWlycG9ydCIgc3R5bGU9InN0cm9rZTojMTgxODE4O3N0cm9rZS13aWR0aDoxLjA7Ii8+PHRleHQgZmlsbD0iIzAwMDAwMCIgZm9udC1mYW1pbHk9InNhbnMtc2VyaWYiIGZvbnQtc2l6ZT0iMTMiIGxlbmd0aEFkanVzdD0ic3BhY2luZyIgdGV4dExlbmd0aD0iNTUiIHg9IjMwMyIgeT0iMTIzMC4yODkxIj5jb25uZWN0czwvdGV4dD48dGV4dCBmaWxsPSIjMDAwMDAwIiBmb250LWZhbWlseT0ic2Fucy1zZXJpZiIgZm9udC1zaXplPSIxMyIgbGVuZ3RoQWRqdXN0PSJzcGFjaW5nIiB0ZXh0TGVuZ3RoPSI2IiB4PSIyOTUuNzk4NCIgeT0iMTIwNy4yNTkyIj4qPC90ZXh0Pjx0ZXh0IGZpbGw9IiMwMDAwMDAiIGZvbnQtZmFtaWx5PSJzYW5zLXNlcmlmIiBmb250LXNpemU9IjEzIiBsZW5ndGhBZGp1c3Q9InNwYWNpbmciIHRleHRMZW5ndGg9IjciIHg9IjI5NC40ODU5IiB5PSIxMjUyLjI3OTkiPjI8L3RleHQ+PC9nPjwhLS1saW5rIEJvb2tpbmcgdG8gU2VhdC0tPjxnIGlkPSJsaW5rX0Jvb2tpbmdfU2VhdCI+PHBhdGggY29kZUxpbmU9IjE4MyIgZD0iTTc5NC42Myw4OTkuMDUgQzc4MC40Nyw5MzYuODQgNzY1LjEyLDk3Ny43OCA3NTIuNjQsMTAxMS4xICIgZmlsbD0ibm9uZSIgaWQ9IkJvb2tpbmctU2VhdCIgc3R5bGU9InN0cm9rZTojMTgxODE4O3N0cm9rZS13aWR0aDoxLjA7Ii8+PHRleHQgZmlsbD0iIzAwMDAwMCIgZm9udC1mYW1pbHk9InNhbnMtc2VyaWYiIGZvbnQtc2l6ZT0iMTMiIGxlbmd0aEFkanVzdD0ic3BhY2luZyIgdGV4dExlbmd0aD0iNTQiIHg9Ijc4MyIgeT0iOTQyLjI4OTEiPmluY2x1ZGVzPC90ZXh0Pjx0ZXh0IGZpbGw9IiMwMDAwMDAiIGZvbnQtZmFtaWx5PSJzYW5zLXNlcmlmIiBmb250LXNpemU9IjEzIiBsZW5ndGhBZGp1c3Q9InNwYWNpbmciIHRleHRMZW5ndGg9IjYiIHg9Ijc4NS43MjM1IiB5PSI5MTkuMDk3MSI+KjwvdGV4dD48dGV4dCBmaWxsPSIjMDAwMDAwIiBmb250LWZhbWlseT0ic2Fucy1zZXJpZiIgZm9udC1zaXplPSIxMyIgbGVuZ3RoQWRqdXN0PSJzcGFjaW5nIiB0ZXh0TGVuZ3RoPSI2IiB4PSI3NDkuMjU3OCIgeT0iMTAwMS42NzE0Ij4qPC90ZXh0PjwvZz48IS0tbGluayBVc2VyQ29udHJvbGxlciB0byBMb2dpblZpZXctLT48ZyBpZD0ibGlua19Vc2VyQ29udHJvbGxlcl9Mb2dpblZpZXciPjxwYXRoIGNvZGVMaW5lPSIxODgiIGQ9Ik0xOTYzLjQzLDEzOS41NyBDMjAwNS4xMSwxNTQuODEgMjA1NC4xMiwxNzIuMDMgMjA5OSwxODYgQzIxMjcuMSwxOTQuNzUgMjEzOS45NCwxODQuNzEgMjE2MywyMDMgQzIxOTUuNjcsMjI4LjkyIDIyMTQuMTQsMjc1LjU0IDIyMjIuODEsMzAzLjY0ICIgZmlsbD0ibm9uZSIgaWQ9IlVzZXJDb250cm9sbGVyLUxvZ2luVmlldyIgc3R5bGU9InN0cm9rZTojMTgxODE4O3N0cm9rZS13aWR0aDoxLjA7Ii8+PC9nPjwhLS1saW5rIFVzZXJDb250cm9sbGVyIHRvIFVzZXItLT48ZyBpZD0ibGlua19Vc2VyQ29udHJvbGxlcl9Vc2VyIj48cGF0aCBjb2RlTGluZT0iMTg5IiBkPSJNMTc3Ny43OSwxMzkuNTggQzE3MzMuOTcsMTU3LjI0IDE2NzkuMTMsMTc2LjQgMTYyOCwxODYgQzE0ODQuMjQsMjEyLjk4IDExMTEuMDMsMTY0LjE5IDk3MCwyMDMgQzkyNy4yNiwyMTQuNzYgODgzLjk0LDIzNi40NyA4NDcuMSwyNTguNDggIiBmaWxsPSJub25lIiBpZD0iVXNlckNvbnRyb2xsZXItVXNlciIgc3R5bGU9InN0cm9rZTojMTgxODE4O3N0cm9rZS13aWR0aDoxLjA7Ii8+PC9nPjwhLS1saW5rIEZsaWdodENvbnRyb2xsZXIgdG8gRmxpZ2h0U2VhcmNoVmlldy0tPjxnIGlkPSJsaW5rX0ZsaWdodENvbnRyb2xsZXJfRmxpZ2h0U2VhcmNoVmlldyI+PHBhdGggY29kZUxpbmU9IjE5MCIgZD0iTTE0NjUuNzUsMTQ3LjA2IEMxNTE2LjE0LDE2Mi4wOSAxNTc0LjEzLDE3Ny4xOSAxNjI4LDE4NiBDMTY2Ni45NywxOTIuMzcgMTk0OC4yNiwxODQuMjMgMTk4MywyMDMgQzIwMjMuNzIsMjI1IDIwNTAuNjYsMjc0LjM4IDIwNjMuNzUsMzAzLjc2ICIgZmlsbD0ibm9uZSIgaWQ9IkZsaWdodENvbnRyb2xsZXItRmxpZ2h0U2VhcmNoVmlldyIgc3R5bGU9InN0cm9rZTojMTgxODE4O3N0cm9rZS13aWR0aDoxLjA7Ii8+PC9nPjwhLS1saW5rIEZsaWdodENvbnRyb2xsZXIgdG8gRmxpZ2h0LS0+PGcgaWQ9ImxpbmtfRmxpZ2h0Q29udHJvbGxlcl9GbGlnaHQiPjxwYXRoIGNvZGVMaW5lPSIxOTEiIGQ9Ik0xMDQ5LjYyLDEyMS41NSBDNjYxLjAyLDE1My4xNyA2LDIyMi4wNCA2LDMyNyBDNiwzMjcgNiwzMjcgNiw3ODYgQzYsODczLjU3IDcyLjEzLDk0My45MiAxNDEuODcsOTkzLjc4ICIgZmlsbD0ibm9uZSIgaWQ9IkZsaWdodENvbnRyb2xsZXItRmxpZ2h0IiBzdHlsZT0ic3Ryb2tlOiMxODE4MTg7c3Ryb2tlLXdpZHRoOjEuMDsiLz48L2c+PCEtLWxpbmsgQm9va2luZ0NvbnRyb2xsZXIgdG8gQm9va2luZ1ZpZXctLT48ZyBpZD0ibGlua19Cb29raW5nQ29udHJvbGxlcl9Cb29raW5nVmlldyI+PHBhdGggY29kZUxpbmU9IjE5MiIgZD0iTTIzNjMuMzUsMTYyLjIzIEMyMzY0LjM4LDIwOC45MyAyMzY1Ljc2LDI3MC44OCAyMzY2LjQ5LDMwMy45MiAiIGZpbGw9Im5vbmUiIGlkPSJCb29raW5nQ29udHJvbGxlci1Cb29raW5nVmlldyIgc3R5bGU9InN0cm9rZTojMTgxODE4O3N0cm9rZS13aWR0aDoxLjA7Ii8+PC9nPjwhLS1saW5rIEJvb2tpbmdDb250cm9sbGVyIHRvIFNlYXRTZWxlY3Rpb25WaWV3LS0+PGcgaWQ9ImxpbmtfQm9va2luZ0NvbnRyb2xsZXJfU2VhdFNlbGVjdGlvblZpZXciPjxwYXRoIGNvZGVMaW5lPSIxOTMiIGQ9Ik0yNDA4LjcyLDE2Mi4wNiBDMjQxOS4wNSwxNzUuNTIgMjQyOS45MiwxODkuNzIgMjQ0MCwyMDMgQzI0NjYuNTIsMjM3Ljk0IDI0OTYuOTcsMjc4LjY1IDI1MTUuNiwzMDMuNjMgIiBmaWxsPSJub25lIiBpZD0iQm9va2luZ0NvbnRyb2xsZXItU2VhdFNlbGVjdGlvblZpZXciIHN0eWxlPSJzdHJva2U6IzE4MTgxODtzdHJva2Utd2lkdGg6MS4wOyIvPjwvZz48IS0tbGluayBCb29raW5nQ29udHJvbGxlciB0byBCb29raW5nSGlzdG9yeVZpZXctLT48ZyBpZD0ibGlua19Cb29raW5nQ29udHJvbGxlcl9Cb29raW5nSGlzdG9yeVZpZXciPjxwYXRoIGNvZGVMaW5lPSIxOTQiIGQ9Ik0yMTk0LjUxLDE2Mi4wMSBDMjE2My4xMiwxNzEuNDMgMjEzMC4zMywxODAuMDEgMjA5OSwxODYgQzIwNDMuNDQsMTk2LjYyIDE4OTUsMTc2LjUzIDE4NDUsMjAzIEMxODAyLjk3LDIyNS4yNSAxNzczLjI2LDI3NC41NCAxNzU4LjU0LDMwMy44MyAiIGZpbGw9Im5vbmUiIGlkPSJCb29raW5nQ29udHJvbGxlci1Cb29raW5nSGlzdG9yeVZpZXciIHN0eWxlPSJzdHJva2U6IzE4MTgxODtzdHJva2Utd2lkdGg6MS4wOyIvPjwvZz48IS0tbGluayBCb29raW5nQ29udHJvbGxlciB0byBCb29raW5nLS0+PGcgaWQ9ImxpbmtfQm9va2luZ0NvbnRyb2xsZXJfQm9va2luZyI+PHBhdGggY29kZUxpbmU9IjE5NSIgZD0iTTI1MzQsMTYyLjA0IEMyNTY0LjA2LDE3MS4xIDI1OTUuMjQsMTc5LjU1IDI2MjUsMTg2IEMyNjU2LjkyLDE5Mi45MiAyNzQ5LjI4LDE3OC42IDI3NzEsMjAzIEMyODMyLjc3LDI3Mi4zOCAyODMwLjE1LDM0MC4zOCAyNzcxLDQxMiBDMjUzNi4zOCw2OTYuMDUgMTMyNi4yOSw3NjUuNDggOTQ5LjI4LDc4MC4zNCAiIGZpbGw9Im5vbmUiIGlkPSJCb29raW5nQ29udHJvbGxlci1Cb29raW5nIiBzdHlsZT0ic3Ryb2tlOiMxODE4MTg7c3Ryb2tlLXdpZHRoOjEuMDsiLz48L2c+PCEtLWxpbmsgUGF5bWVudENvbnRyb2xsZXIgdG8gUGF5bWVudFZpZXctLT48ZyBpZD0ibGlua19QYXltZW50Q29udHJvbGxlcl9QYXltZW50VmlldyI+PHBhdGggY29kZUxpbmU9IjE5NiIgZD0iTTI4NjcuNSwxNDcuMTMgQzI4MjMuMjgsMTk0LjYyIDI3NTUuOCwyNjcuMDkgMjcyMS41NSwzMDMuODYgIiBmaWxsPSJub25lIiBpZD0iUGF5bWVudENvbnRyb2xsZXItUGF5bWVudFZpZXciIHN0eWxlPSJzdHJva2U6IzE4MTgxODtzdHJva2Utd2lkdGg6MS4wOyIvPjwvZz48IS0tbGluayBQYXltZW50Q29udHJvbGxlciB0byBQYXltZW50LS0+PGcgaWQ9ImxpbmtfUGF5bWVudENvbnRyb2xsZXJfUGF5bWVudCI+PHBhdGggY29kZUxpbmU9IjE5NyIgZD0iTTI5MDkuNjgsMTQ3LjI4IEMyOTA5LjM5LDE5Mi44NCAyOTA5LDI2NC43NSAyOTA5LDMyNyBDMjkwOSwzMjcgMjkwOSwzMjcgMjkwOSw3ODYgQzI5MDksOTQ2LjYyIDE3MDguNjUsMTA0NC45NyAxMzMxLjE5LDEwNzEuOTMgIiBmaWxsPSJub25lIiBpZD0iUGF5bWVudENvbnRyb2xsZXItUGF5bWVudCIgc3R5bGU9InN0cm9rZTojMTgxODE4O3N0cm9rZS13aWR0aDoxLjA7Ii8+PC9nPjwhLS1TUkM9W2RMVEJSeml1NEJ4eExtWS1oQkQ5M2pzWjRHSEc5NktacjVPMkZ4QmVBTTBhc1lPWVltUDlmSGxpemh6dC05OTVLZFFBN1dvSkN5RlhsRmRmV0NldGpDTkhVNHVoTjgtWl9xUEhMRFE4eXNaRENMRlJBQmZrT1ByTnFzV2Y2NmNzSHJnM3pqWWI3azNlVHlleU1SbjdmRk80VHhKMUhSal9uU25YTkRQcUl2aDluSkh3ZlJKNmdENUtYaFU0MnltMkhka2VhQzFGWjZ2OFpMdGszX1hyeFlHajV0R0ZCazVfMU11Z3JweXV5bU82RkMwTGI3ckNlbmFpUmt1cXlMUlZtcDVZdlV3LTlqa1R1OUVJNEoyNjgzMVRxSEVwbHAxZGpQbXZBaE1sSUZjNm5NSVp3REQ4eXE3UU5BODVJeklLazNRWW5nUEVuN1Z5ZFUzbE1aSjUwaUJCeE9iWmVYcHpKWkpZUWEtUW1MMFdvTGQwRk12TVQ5WXJzTmNwZVE0ZFpkNVJ0NjA2MW5SdUcxZDQyX1h3Z1RhN0hqejlQVElqYk1oa1FSb0F6OUt6TnF2YUxpalIteEtNbHJXclRRM1NoWmJqTUdjdG44SHJ6YnJOYzBsSTg0NWU0dDBFWThjTXVITUhmUC0yWE45Yk9pU09VS1ZyNDhpQjk1ZmtkTGtnZEpkcTNpYjNocE02SVg4V0NLVTc2eGJDdUZtTWdsNGdvWGpPT05QaDZlU0hRTXllYmo4TWpEcFExOFpPS0luSkcxaEhwd1FzT1o5YTZXWV9LckJ2ZUpSTHZCTkRTQjJqR2FxaEpWakRrcU9xU1Q1RWd3UUhUanV3Y2JETDBDRUhEQlJxR29jZUc3TXlmc3EzanJTZzc3T2dWVW5uT3RvUkhhX3poTXN6a2NuaE1VQThnSjdJRXR2UHFjUDNzRHhTNjhtV3RSUWRrQk9MSjVpM013X3lzNGhsUk0xYkw4UUFqSko5TGNFZEl4cko1dHN0MlBUNnVTZ3BJME90ZEFEREk3UDdYY3UzUXM4OXh1TGhORldPYjRIeVUxSVA2ek9kRWRVT25EV3hKRGh5LWw4ZGUtY1pxdGNWT3g2WkxQVHRsTkthcFhOUUdCTjBfMmVudnVPcEVKdHpJYW1FR2F5X2pWR1RyZ0xXX0hMZ3pzbGtvZVNNRHAwTVlZM2lmd2hkYkk5TW1NdmVGY3J4ZXpQck52bE96eHVZXzUyWlpzRDFjcjdYbHMxM2pPSVJUa3pDNmtGeENkZDhxbEtpSXpLa3BNUm5EeEUtVXVtTlFMeHloSlB2eUhCZDJ4TVNuS0xnSDlBdUlCQVBGam9fbm5hSHZnQWRoRVlxOU9fNVZSd09Wd0FidHNmNklHT2Q3LVZWajd0aFBMdmFvd05RV0JoYndZTVBuTWhWci05S3FRMGp5d1RQalpBc3RDVXZaU0tZa3J5UkptVnF3TGVzLWY5NWJrUG1GR0pDWEY2a2xvc29yU2pUTjdvckxfdUpXeFNoSnN5X3RLUmpTcHBCSk9XVWlrSGhiaHhhWFRna2J1RVgtcDRRN0lvaVYwUUtxYVVMQ3VkazlENXhsWk1DU1hXY1VtdkR2Y0E5UXJwQWZ6ZFhjN1d1REV0QmE1QTN6MW9NbWFHZnVabEw5dWhMem9JWENCYmVOTUZjZS1HWm5tSmk0aExZMXlPR0VRLWJuQ0c3b3JVSDN2SVhNUUlhWXRReGl6MmlvQnB2dmhwLWxfcUM1ZU1za0szTW1YLWhyYTQtN1I2UlplRnU1aDI2dGJpV3djRW0ybVNCRTVaSU8xM19uNUxxMGZNU1NEUWFEVklzUDUwbnNCeEQ1ZU5xQm5lbXJXN2JOOU1SbmIwMXUwNHhrczdSbVBZMXA4R1dPV1lpZHE0TGR1ZjM0ZXBpUnRtRWNFTzltLVN6VDBGLWR0allXcXlNLTRKUVY1WGJtVWxrWXZFNjJBQVVxS3RSTDktNEc4c1RGLTJUaExObnlYcXZ5NTd0cUpWLUNld2tod0ZuZC1DRW1xd1pGTmgzVjZKdGFZVDVHRDl5S0tvWjNNTDdfZlVFUnM3QUREZVg3V1kwN2xFaUpvRUIxRlo4d0JJdF8zTmswREtxV2o5ZWVDUDJNLTFGbUs4OXRTa3dYVU9TZ00tcmNfLTFzbTdmOHFjREMxYzYtTkZZWFM4UkwyMXk3Q0tYSnVzWU84ODA4dlpNZnVMNk9MQzJocF9MMW1OMjROekVKdC1HZHZDUlhJS0VwRndaU0t4VzltMDBdLS0+PC9nPjwvc3ZnPg==;" vertex="1" parent="1">
            <mxGeometry x="-1520" y="380" width="3201" height="1393" as="geometry" />
          </mxCell>
        </UserObject>
        <UserObject label="" plantUmlData="{&#xa;  &quot;data&quot;: &quot;@startuml Airline Management System - State Diagram\n\ntitle Booking State Diagram\n\n[*] --&gt; Initiated : User searches flights\n\nstate Initiated {\n  [*] --&gt; FlightSelected : User selects flight\n  FlightSelected --&gt; SeatSelection : User proceeds to seat selection\n  SeatSelection --&gt; PaymentPending : Seats selected\n}\n\nInitiated --&gt; PaymentPending : Proceed to payment\nPaymentPending --&gt; Confirmed : Payment successful\nPaymentPending --&gt; Cancelled : Payment failed/timeout\n\nstate Confirmed {\n  [*] --&gt; Active : Booking confirmed\n  Active --&gt; CheckedIn : User checks in\n}\n\nConfirmed --&gt; Cancelled : User cancels booking\nCancelled --&gt; [*] : Refund processed (if applicable)\nCheckedIn --&gt; Completed : Flight completed\nCompleted --&gt; [*] : Journey ended\n\n@enduml\n&quot;,&#xa;  &quot;format&quot;: &quot;svg&quot;&#xa;}" id="7hjEcoK-xNjLgvXYdvap-4">
          <mxCell style="shape=image;noLabel=1;verticalAlign=top;aspect=fixed;imageAspect=0;image=data:image/svg+xml,PD94bWwgdmVyc2lvbj0iMS4wIiBlbmNvZGluZz0idXMtYXNjaWkiIHN0YW5kYWxvbmU9Im5vIj8+PHN2ZyB4bWxucz0iaHR0cDovL3d3dy53My5vcmcvMjAwMC9zdmciIHhtbG5zOnhsaW5rPSJodHRwOi8vd3d3LnczLm9yZy8xOTk5L3hsaW5rIiBjb250ZW50U3R5bGVUeXBlPSJ0ZXh0L2NzcyIgaGVpZ2h0PSIxMTIycHgiIHByZXNlcnZlQXNwZWN0UmF0aW89Im5vbmUiIHN0eWxlPSJ3aWR0aDo2MzNweDtoZWlnaHQ6MTEyMnB4O2JhY2tncm91bmQ6I0ZGRkZGRjsiIHZlcnNpb249IjEuMSIgdmlld0JveD0iMCAwIDYzMyAxMTIyIiB3aWR0aD0iNjMzcHgiIHpvb21BbmRQYW49Im1hZ25pZnkiPjxkZWZzLz48Zz48dGV4dCBmaWxsPSIjMDAwMDAwIiBmb250LWZhbWlseT0ic2Fucy1zZXJpZiIgZm9udC1zaXplPSIxNCIgZm9udC13ZWlnaHQ9ImJvbGQiIGxlbmd0aEFkanVzdD0ic3BhY2luZyIgdGV4dExlbmd0aD0iMTQ4IiB4PSIyMzUuNSIgeT0iMjMuMjM0NCI+Qm9va2luZyBTdGF0ZSBEaWFncmFtPC90ZXh0PjwhLS1jbHVzdGVyIEluaXRpYXRlZC0tPjxnIGlkPSJjbHVzdGVyX0luaXRpYXRlZCI+PHBhdGggZD0iTTE0MS41LDQyLjk4NDQgTDQ0NS41LDQyLjk4NDQgQTEyLjUsMTIuNSAwIDAgMSA0NTgsNTUuNDg0NCBMNDU4LDYyLjk2ODggTDEyOSw2Mi45Njg4IEwxMjksNTUuNDg0NCBBMTIuNSwxMi41IDAgMCAxIDE0MS41LDQyLjk4NDQgIiBmaWxsPSIjRjFGMUYxIiBzdHlsZT0ic3Ryb2tlOiNGMUYxRjE7c3Ryb2tlLXdpZHRoOjEuMDsiLz48cmVjdCBmaWxsPSJub25lIiBoZWlnaHQ9IjQ2MCIgcng9IjEyLjUiIHJ5PSIxMi41IiBzdHlsZT0ic3Ryb2tlOiMxODE4MTg7c3Ryb2tlLXdpZHRoOjAuNTsiIHdpZHRoPSIzMjkiIHg9IjEyOSIgeT0iNDIuOTg0NCIvPjxsaW5lIHN0eWxlPSJzdHJva2U6IzE4MTgxODtzdHJva2Utd2lkdGg6MC41OyIgeDE9IjEyOSIgeDI9IjQ1OCIgeTE9IjYyLjk2ODgiIHkyPSI2Mi45Njg4Ii8+PHRleHQgZmlsbD0iIzAwMDAwMCIgZm9udC1mYW1pbHk9InNhbnMtc2VyaWYiIGZvbnQtc2l6ZT0iMTQiIGxlbmd0aEFkanVzdD0ic3BhY2luZyIgdGV4dExlbmd0aD0iNjMiIHg9IjI2MiIgeT0iNjAuMjE4OCI+SW5pdGlhdGVkPC90ZXh0PjwvZz48IS0tY2x1c3RlciBDb25maXJtZWQtLT48ZyBpZD0iY2x1c3Rlcl9Db25maXJtZWQiPjxwYXRoIGQ9Ik0xMTguNSw1NjUuOTg0NCBMMzAxLjUsNTY1Ljk4NDQgQTEyLjUsMTIuNSAwIDAgMSAzMTQsNTc4LjQ4NDQgTDMxNCw1ODUuOTY4OCBMMTA2LDU4NS45Njg4IEwxMDYsNTc4LjQ4NDQgQTEyLjUsMTIuNSAwIDAgMSAxMTguNSw1NjUuOTg0NCAiIGZpbGw9IiNGMUYxRjEiIHN0eWxlPSJzdHJva2U6I0YxRjFGMTtzdHJva2Utd2lkdGg6MS4wOyIvPjxyZWN0IGZpbGw9Im5vbmUiIGhlaWdodD0iMzM1IiByeD0iMTIuNSIgcnk9IjEyLjUiIHN0eWxlPSJzdHJva2U6IzE4MTgxODtzdHJva2Utd2lkdGg6MC41OyIgd2lkdGg9IjIwOCIgeD0iMTA2IiB5PSI1NjUuOTg0NCIvPjxsaW5lIHN0eWxlPSJzdHJva2U6IzE4MTgxODtzdHJva2Utd2lkdGg6MC41OyIgeDE9IjEwNiIgeDI9IjMxNCIgeTE9IjU4NS45Njg4IiB5Mj0iNTg1Ljk2ODgiLz48dGV4dCBmaWxsPSIjMDAwMDAwIiBmb250LWZhbWlseT0ic2Fucy1zZXJpZiIgZm9udC1zaXplPSIxNCIgbGVuZ3RoQWRqdXN0PSJzcGFjaW5nIiB0ZXh0TGVuZ3RoPSI2NCIgeD0iMTc4IiB5PSI1ODMuMjE4OCI+Q29uZmlybWVkPC90ZXh0PjwvZz48ZWxsaXBzZSBjeD0iMjQ0IiBjeT0iOTMuOTg0NCIgZmlsbD0iIzIyMjIyMiIgcng9IjEwIiByeT0iMTAiIHN0eWxlPSJzdHJva2U6IzIyMjIyMjtzdHJva2Utd2lkdGg6MS4wOyIvPjxnIGlkPSJJbml0aWF0ZWQuRmxpZ2h0U2VsZWN0ZWQiPjxyZWN0IGZpbGw9IiNGMUYxRjEiIGhlaWdodD0iNTAiIHJ4PSIxMi41IiByeT0iMTIuNSIgc3R5bGU9InN0cm9rZTojMTgxODE4O3N0cm9rZS13aWR0aDowLjU7IiB3aWR0aD0iMTE4IiB4PSIxODUiIHk9IjE3OC45ODQ0Ii8+PGxpbmUgc3R5bGU9InN0cm9rZTojMTgxODE4O3N0cm9rZS13aWR0aDowLjU7IiB4MT0iMTg1IiB4Mj0iMzAzIiB5MT0iMjAzLjk2ODgiIHkyPSIyMDMuOTY4OCIvPjx0ZXh0IGZpbGw9IiMwMDAwMDAiIGZvbnQtZmFtaWx5PSJzYW5zLXNlcmlmIiBmb250LXNpemU9IjE0IiBsZW5ndGhBZGp1c3Q9InNwYWNpbmciIHRleHRMZW5ndGg9Ijk4IiB4PSIxOTUiIHk9IjE5Ny4yMTg4Ij5GbGlnaHRTZWxlY3RlZDwvdGV4dD48L2c+PGcgaWQ9IkluaXRpYXRlZC5TZWF0U2VsZWN0aW9uIj48cmVjdCBmaWxsPSIjRjFGMUYxIiBoZWlnaHQ9IjUwIiByeD0iMTIuNSIgcnk9IjEyLjUiIHN0eWxlPSJzdHJva2U6IzE4MTgxODtzdHJva2Utd2lkdGg6MC41OyIgd2lkdGg9IjExMSIgeD0iMjMyLjUiIHk9IjMwMy45ODQ0Ii8+PGxpbmUgc3R5bGU9InN0cm9rZTojMTgxODE4O3N0cm9rZS13aWR0aDowLjU7IiB4MT0iMjMyLjUiIHgyPSIzNDMuNSIgeTE9IjMyOC45Njg4IiB5Mj0iMzI4Ljk2ODgiLz48dGV4dCBmaWxsPSIjMDAwMDAwIiBmb250LWZhbWlseT0ic2Fucy1zZXJpZiIgZm9udC1zaXplPSIxNCIgbGVuZ3RoQWRqdXN0PSJzcGFjaW5nIiB0ZXh0TGVuZ3RoPSI5MSIgeD0iMjQyLjUiIHk9IjMyMi4yMTg4Ij5TZWF0U2VsZWN0aW9uPC90ZXh0PjwvZz48ZyBpZD0iSW5pdGlhdGVkLlBheW1lbnRQZW5kaW5nIj48cmVjdCBmaWxsPSIjRjFGMUYxIiBoZWlnaHQ9IjUwIiByeD0iMTIuNSIgcnk9IjEyLjUiIHN0eWxlPSJzdHJva2U6IzE4MTgxODtzdHJva2Utd2lkdGg6MC41OyIgd2lkdGg9IjExOSIgeD0iMjczLjUiIHk9IjQyOC45ODQ0Ii8+PGxpbmUgc3R5bGU9InN0cm9rZTojMTgxODE4O3N0cm9rZS13aWR0aDowLjU7IiB4MT0iMjczLjUiIHgyPSIzOTIuNSIgeTE9IjQ1My45Njg4IiB5Mj0iNDUzLjk2ODgiLz48dGV4dCBmaWxsPSIjMDAwMDAwIiBmb250LWZhbWlseT0ic2Fucy1zZXJpZiIgZm9udC1zaXplPSIxNCIgbGVuZ3RoQWRqdXN0PSJzcGFjaW5nIiB0ZXh0TGVuZ3RoPSI5OSIgeD0iMjgzLjUiIHk9IjQ0Ny4yMTg4Ij5QYXltZW50UGVuZGluZzwvdGV4dD48L2c+PGVsbGlwc2UgY3g9IjE2NSIgY3k9IjYxNi45ODQ0IiBmaWxsPSIjMjIyMjIyIiByeD0iMTAiIHJ5PSIxMCIgc3R5bGU9InN0cm9rZTojMjIyMjIyO3N0cm9rZS13aWR0aDoxLjA7Ii8+PGcgaWQ9IkNvbmZpcm1lZC5BY3RpdmUiPjxyZWN0IGZpbGw9IiNGMUYxRjEiIGhlaWdodD0iNTAiIHJ4PSIxMi41IiByeT0iMTIuNSIgc3R5bGU9InN0cm9rZTojMTgxODE4O3N0cm9rZS13aWR0aDowLjU7IiB3aWR0aD0iNjIiIHg9IjEzOCIgeT0iNzAxLjk4NDQiLz48bGluZSBzdHlsZT0ic3Ryb2tlOiMxODE4MTg7c3Ryb2tlLXdpZHRoOjAuNTsiIHgxPSIxMzgiIHgyPSIyMDAiIHkxPSI3MjYuOTY4OCIgeTI9IjcyNi45Njg4Ii8+PHRleHQgZmlsbD0iIzAwMDAwMCIgZm9udC1mYW1pbHk9InNhbnMtc2VyaWYiIGZvbnQtc2l6ZT0iMTQiIGxlbmd0aEFkanVzdD0ic3BhY2luZyIgdGV4dExlbmd0aD0iNDIiIHg9IjE0OCIgeT0iNzIwLjIxODgiPkFjdGl2ZTwvdGV4dD48L2c+PGcgaWQ9IkNvbmZpcm1lZC5DaGVja2VkSW4iPjxyZWN0IGZpbGw9IiNGMUYxRjEiIGhlaWdodD0iNTAiIHJ4PSIxMi41IiByeT0iMTIuNSIgc3R5bGU9InN0cm9rZTojMTgxODE4O3N0cm9rZS13aWR0aDowLjU7IiB3aWR0aD0iODMiIHg9IjE0NC41IiB5PSI4MjYuOTg0NCIvPjxsaW5lIHN0eWxlPSJzdHJva2U6IzE4MTgxODtzdHJva2Utd2lkdGg6MC41OyIgeDE9IjE0NC41IiB4Mj0iMjI3LjUiIHkxPSI4NTEuOTY4OCIgeTI9Ijg1MS45Njg4Ii8+PHRleHQgZmlsbD0iIzAwMDAwMCIgZm9udC1mYW1pbHk9InNhbnMtc2VyaWYiIGZvbnQtc2l6ZT0iMTQiIGxlbmd0aEFkanVzdD0ic3BhY2luZyIgdGV4dExlbmd0aD0iNjMiIHg9IjE1NC41IiB5PSI4NDUuMjE4OCI+Q2hlY2tlZEluPC90ZXh0PjwvZz48ZWxsaXBzZSBjeD0iMTYiIGN5PSIyMDMuOTg0NCIgZmlsbD0iIzIyMjIyMiIgcng9IjEwIiByeT0iMTAiIHN0eWxlPSJzdHJva2U6IzIyMjIyMjtzdHJva2Utd2lkdGg6MS4wOyIvPjxnIGlkPSJDYW5jZWxsZWQiPjxyZWN0IGZpbGw9IiNGMUYxRjEiIGhlaWdodD0iNTAiIHJ4PSIxMi41IiByeT0iMTIuNSIgc3R5bGU9InN0cm9rZTojMTgxODE4O3N0cm9rZS13aWR0aDowLjU7IiB3aWR0aD0iODMiIHg9IjMzOC41IiB5PSI3MDEuOTg0NCIvPjxsaW5lIHN0eWxlPSJzdHJva2U6IzE4MTgxODtzdHJva2Utd2lkdGg6MC41OyIgeDE9IjMzOC41IiB4Mj0iNDIxLjUiIHkxPSI3MjYuOTY4OCIgeTI9IjcyNi45Njg4Ii8+PHRleHQgZmlsbD0iIzAwMDAwMCIgZm9udC1mYW1pbHk9InNhbnMtc2VyaWYiIGZvbnQtc2l6ZT0iMTQiIGxlbmd0aEFkanVzdD0ic3BhY2luZyIgdGV4dExlbmd0aD0iNjMiIHg9IjM0OC41IiB5PSI3MjAuMjE4OCI+Q2FuY2VsbGVkPC90ZXh0PjwvZz48ZWxsaXBzZSBjeD0iMjk5IiBjeT0iMTEwNS45ODQ0IiBmaWxsPSJub25lIiByeD0iMTEiIHJ5PSIxMSIgc3R5bGU9InN0cm9rZTojMjIyMjIyO3N0cm9rZS13aWR0aDoxLjA7Ii8+PGVsbGlwc2UgY3g9IjI5OSIgY3k9IjExMDUuOTg0NCIgZmlsbD0iIzIyMjIyMiIgcng9IjYiIHJ5PSI2IiBzdHlsZT0ic3Ryb2tlOiMyMjIyMjI7c3Ryb2tlLXdpZHRoOjEuMDsiLz48ZyBpZD0iQ29tcGxldGVkIj48cmVjdCBmaWxsPSIjRjFGMUYxIiBoZWlnaHQ9IjUwIiByeD0iMTIuNSIgcnk9IjEyLjUiIHN0eWxlPSJzdHJva2U6IzE4MTgxODtzdHJva2Utd2lkdGg6MC41OyIgd2lkdGg9Ijg0IiB4PSIxNzgiIHk9Ijk2OS45ODQ0Ii8+PGxpbmUgc3R5bGU9InN0cm9rZTojMTgxODE4O3N0cm9rZS13aWR0aDowLjU7IiB4MT0iMTc4IiB4Mj0iMjYyIiB5MT0iOTk0Ljk2ODgiIHkyPSI5OTQuOTY4OCIvPjx0ZXh0IGZpbGw9IiMwMDAwMDAiIGZvbnQtZmFtaWx5PSJzYW5zLXNlcmlmIiBmb250LXNpemU9IjE0IiBsZW5ndGhBZGp1c3Q9InNwYWNpbmciIHRleHRMZW5ndGg9IjY0IiB4PSIxODgiIHk9Ijk4OC4yMTg4Ij5Db21wbGV0ZWQ8L3RleHQ+PC9nPjwhLS1saW5rICpzdGFydCogdG8gSW5pdGlhdGVkLS0+PGcgaWQ9ImxpbmtfKnN0YXJ0Kl9Jbml0aWF0ZWQiPjxwYXRoIGQ9Ik0xNC40NCwyMTQuMDM0NCBDMTIuNTEsMjI4LjI1NDQgMTAuOTMsMjU2LjA1NDQgMjQsMjczLjk4NDQgQzQwLjg0NSwyOTcuMDc5NCA2OS45MzUsMzEwLjUyMTkgOTUuMTM2MywzMTguMjE4MSBDMTA3LjczNjksMzIyLjA2NjIgMTE5LjM2NTMsMzI0LjQ3NzggMTI4LjAwNDgsMzI1Ljk0MTEgQzEyOC4yNzQ4LDMyNS45ODY4IDEyMi42MjMxLDMyNS4wNDc5IDEyMi44ODcyLDMyNS4wOTE4ICIgZmlsbD0ibm9uZSIgaWQ9IipzdGFydCotdG8tSW5pdGlhdGVkIiBzdHlsZT0ic3Ryb2tlOiMxODE4MTg7c3Ryb2tlLXdpZHRoOjEuMDsiLz48cG9seWdvbiBmaWxsPSIjMTgxODE4IiBwb2ludHM9IjEyOC44MDYsMzI2LjA3NTUsMTIwLjU4MzYsMzIwLjY1NDEsMTIzLjg3MzYsMzI1LjI1NTgsMTE5LjI3MiwzMjguNTQ1OSwxMjguODA2LDMyNi4wNzU1IiBzdHlsZT0ic3Ryb2tlOiMxODE4MTg7c3Ryb2tlLXdpZHRoOjEuMDsiLz48dGV4dCBmaWxsPSIjMDAwMDAwIiBmb250LWZhbWlseT0ic2Fucy1zZXJpZiIgZm9udC1zaXplPSIxMyIgbGVuZ3RoQWRqdXN0PSJzcGFjaW5nIiB0ZXh0TGVuZ3RoPSIxNDMiIHg9IjI1IiB5PSIyNzIuMjczNCI+VXNlciBzZWFyY2hlcyBmbGlnaHRzPC90ZXh0PjwvZz48IS0tbGluayAqc3RhcnQqSW5pdGlhdGVkIHRvIEZsaWdodFNlbGVjdGVkLS0+PGcgaWQ9ImxpbmtfKnN0YXJ0KkluaXRpYXRlZF9GbGlnaHRTZWxlY3RlZCI+PHBhdGggZD0iTTI0NCwxMDQuMTk0NCBDMjQ0LDEyMC41MTQ0IDI0NCwxNDkuMDI0NCAyNDQsMTcyLjYxNDQgIiBmaWxsPSJub25lIiBpZD0iKnN0YXJ0KkluaXRpYXRlZC10by1GbGlnaHRTZWxlY3RlZCIgc3R5bGU9InN0cm9rZTojMTgxODE4O3N0cm9rZS13aWR0aDoxLjA7Ii8+PHBvbHlnb24gZmlsbD0iIzE4MTgxOCIgcG9pbnRzPSIyNDQsMTc4LjYxNDQsMjQ4LDE2OS42MTQ0LDI0NCwxNzMuNjE0NCwyNDAsMTY5LjYxNDQsMjQ0LDE3OC42MTQ0IiBzdHlsZT0ic3Ryb2tlOiMxODE4MTg7c3Ryb2tlLXdpZHRoOjEuMDsiLz48dGV4dCBmaWxsPSIjMDAwMDAwIiBmb250LWZhbWlseT0ic2Fucy1zZXJpZiIgZm9udC1zaXplPSIxMyIgbGVuZ3RoQWRqdXN0PSJzcGFjaW5nIiB0ZXh0TGVuZ3RoPSIxMjciIHg9IjI0NSIgeT0iMTQ3LjI3MzQiPlVzZXIgc2VsZWN0cyBmbGlnaHQ8L3RleHQ+PC9nPjwhLS1saW5rIEZsaWdodFNlbGVjdGVkIHRvIFNlYXRTZWxlY3Rpb24tLT48ZyBpZD0ibGlua19GbGlnaHRTZWxlY3RlZF9TZWF0U2VsZWN0aW9uIj48cGF0aCBkPSJNMjUyLjU5LDIyOC45OTQ0IEMyNjAuMjksMjUwLjUyNDQgMjY5LjUxOTMsMjc2LjMyNDkgMjc3LjI1OTMsMjk3Ljk2NDkgIiBmaWxsPSJub25lIiBpZD0iRmxpZ2h0U2VsZWN0ZWQtdG8tU2VhdFNlbGVjdGlvbiIgc3R5bGU9InN0cm9rZTojMTgxODE4O3N0cm9rZS13aWR0aDoxLjA7Ii8+PHBvbHlnb24gZmlsbD0iIzE4MTgxOCIgcG9pbnRzPSIyNzkuMjgsMzAzLjYxNDQsMjgwLjAxNTMsMjkzLjc5MywyNzcuNTk2MSwyOTguOTA2NSwyNzIuNDgyNywyOTYuNDg3MiwyNzkuMjgsMzAzLjYxNDQiIHN0eWxlPSJzdHJva2U6IzE4MTgxODtzdHJva2Utd2lkdGg6MS4wOyIvPjx0ZXh0IGZpbGw9IiMwMDAwMDAiIGZvbnQtZmFtaWx5PSJzYW5zLXNlcmlmIiBmb250LXNpemU9IjEzIiBsZW5ndGhBZGp1c3Q9InNwYWNpbmciIHRleHRMZW5ndGg9IjIxMiIgeD0iMjY5IiB5PSIyNzIuMjczNCI+VXNlciBwcm9jZWVkcyB0byBzZWF0IHNlbGVjdGlvbjwvdGV4dD48L2c+PCEtLWxpbmsgU2VhdFNlbGVjdGlvbiB0byBQYXltZW50UGVuZGluZy0tPjxnIGlkPSJsaW5rX1NlYXRTZWxlY3Rpb25fUGF5bWVudFBlbmRpbmciPjxwYXRoIGQ9Ik0yOTYuNzgsMzUzLjk5NDQgQzMwNC42NiwzNzUuNTI0NCAzMTQuMTA3OCw0MDEuMzM5OSAzMjIuMDI3OCw0MjIuOTc5OSAiIGZpbGw9Im5vbmUiIGlkPSJTZWF0U2VsZWN0aW9uLXRvLVBheW1lbnRQZW5kaW5nIiBzdHlsZT0ic3Ryb2tlOiMxODE4MTg7c3Ryb2tlLXdpZHRoOjEuMDsiLz48cG9seWdvbiBmaWxsPSIjMTgxODE4IiBwb2ludHM9IjMyNC4wOSw0MjguNjE0NCwzMjQuNzUzMSw0MTguNzg3OSwzMjIuMzcxNSw0MjMuOTE5LDMxNy4yNDA0LDQyMS41Mzc0LDMyNC4wOSw0MjguNjE0NCIgc3R5bGU9InN0cm9rZTojMTgxODE4O3N0cm9rZS13aWR0aDoxLjA7Ii8+PHRleHQgZmlsbD0iIzAwMDAwMCIgZm9udC1mYW1pbHk9InNhbnMtc2VyaWYiIGZvbnQtc2l6ZT0iMTMiIGxlbmd0aEFkanVzdD0ic3BhY2luZyIgdGV4dExlbmd0aD0iOTUiIHg9IjMxNCIgeT0iMzk3LjI3MzQiPlNlYXRzIHNlbGVjdGVkPC90ZXh0PjwvZz48IS0tbGluayBJbml0aWF0ZWQgdG8gUGF5bWVudFBlbmRpbmctLT48ZyBpZD0ibGlua19Jbml0aWF0ZWRfUGF5bWVudFBlbmRpbmciPjxwYXRoIGQ9Ik0xNDMuMDIsMzMwLjExNDQgQzE0My40LDMzMi44NjQ0IDE0OS45LDM3Ny4wNzQ0IDE3NCwzOTguOTg0NCBDMjAxLjM5LDQyMy44OTQ0IDIzNC44ODMxLDQzNi4wNzE4IDI2Ny41NzMxLDQ0My4zNDE4ICIgZmlsbD0ibm9uZSIgaWQ9IkluaXRpYXRlZC10by1QYXltZW50UGVuZGluZyIgc3R5bGU9InN0cm9rZTojMTgxODE4O3N0cm9rZS13aWR0aDoxLjA7Ii8+PHBvbHlnb24gZmlsbD0iIzE4MTgxOCIgcG9pbnRzPSIyNzMuNDMsNDQ0LjY0NDQsMjY1LjUxMyw0MzguNzg2LDI2OC41NDkyLDQ0My41NTg5LDI2My43NzYzLDQ0Ni41OTUyLDI3My40Myw0NDQuNjQ0NCIgc3R5bGU9InN0cm9rZTojMTgxODE4O3N0cm9rZS13aWR0aDoxLjA7Ii8+PHRleHQgZmlsbD0iIzAwMDAwMCIgZm9udC1mYW1pbHk9InNhbnMtc2VyaWYiIGZvbnQtc2l6ZT0iMTMiIGxlbmd0aEFkanVzdD0ic3BhY2luZyIgdGV4dExlbmd0aD0iMTIzIiB4PSIxNzUiIHk9IjM5Ny4yNzM0Ij5Qcm9jZWVkIHRvIHBheW1lbnQ8L3RleHQ+PC9nPjwhLS1saW5rIFBheW1lbnRQZW5kaW5nIHRvIENvbmZpcm1lZC0tPjxnIGlkPSJsaW5rX1BheW1lbnRQZW5kaW5nX0NvbmZpcm1lZCI+PHBhdGggZD0iTTMyOC45Niw0NzkuMDg0NCBDMzI1LjI1LDUwMS4xOTQ0IDMxOS42Myw1MzQuNzA0NCAzMTQuODc4Nyw1NjMuMDM1NiBDMzE0LjczMDMsNTYzLjkyMSAzMTQuNTgyNiw1NjQuODAxMyAzMTQuNDM2LDU2NS42NzYgQzMxNC4zNjI2LDU2Ni4xMTM0IDMxNC4yODk1LDU2Ni41NDkzIDMxNC4yMTY2LDU2Ni45ODM5IEMzMTQuMTgwMiw1NjcuMjAxMSAzMTUuMTM2Miw1NjEuNTAwNyAzMTUuMDk5OSw1NjEuNzE3MiAiIGZpbGw9Im5vbmUiIGlkPSJQYXltZW50UGVuZGluZy10by1Db25maXJtZWQiIHN0eWxlPSJzdHJva2U6IzE4MTgxODtzdHJva2Utd2lkdGg6MS4wOyIvPjxwb2x5Z29uIGZpbGw9IiMxODE4MTgiIHBvaW50cz0iMzE0LjEwNzUsNTY3LjYzNDUsMzE5LjU0MDksNTU5LjQyMDEsMzE0LjkzNDUsNTYyLjcwMzQsMzExLjY1MTEsNTU4LjA5NjksMzE0LjEwNzUsNTY3LjYzNDUiIHN0eWxlPSJzdHJva2U6IzE4MTgxODtzdHJva2Utd2lkdGg6MS4wOyIvPjx0ZXh0IGZpbGw9IiMwMDAwMDAiIGZvbnQtZmFtaWx5PSJzYW5zLXNlcmlmIiBmb250LXNpemU9IjEzIiBsZW5ndGhBZGp1c3Q9InNwYWNpbmciIHRleHRMZW5ndGg9IjEyMiIgeD0iMzIxIiB5PSI1NDAuMjczNCI+UGF5bWVudCBzdWNjZXNzZnVsPC90ZXh0PjwvZz48IS0tbGluayBQYXltZW50UGVuZGluZyB0byBDYW5jZWxsZWQtLT48ZyBpZD0ibGlua19QYXltZW50UGVuZGluZ19DYW5jZWxsZWQiPjxwYXRoIGQ9Ik0zOTIuNTQsNDc4Ljk4NDQgQzQxNC4yMiw0OTAuNDk0NCA0MzcuMDYsNTA2LjM1NDQgNDUyLDUyNi45ODQ0IEM0ODYuNzgsNTc1LjAxNDQgNDc1LjI5LDU5OC4wNjQ0IDQ4Miw2NTYuOTg0NCBDNDgyLjc1LDY2My42MDQ0IDQ4NS40NCw2NjYuMjc0NCA0ODIsNjcxLjk4NDQgQzQ2OC44Nyw2OTMuNzg0NCA0NDkuMzA4NCw3MDUuMTkyOSA0MjcuMjM4NCw3MTMuMjIyOSAiIGZpbGw9Im5vbmUiIGlkPSJQYXltZW50UGVuZGluZy10by1DYW5jZWxsZWQiIHN0eWxlPSJzdHJva2U6IzE4MTgxODtzdHJva2Utd2lkdGg6MS4wOyIvPjxwb2x5Z29uIGZpbGw9IiMxODE4MTgiIHBvaW50cz0iNDIxLjYsNzE1LjI3NDQsNDMxLjQyNTIsNzE1Ljk1NjEsNDI2LjI5ODcsNzEzLjU2NDgsNDI4LjY4OTksNzA4LjQzODIsNDIxLjYsNzE1LjI3NDQiIHN0eWxlPSJzdHJva2U6IzE4MTgxODtzdHJva2Utd2lkdGg6MS4wOyIvPjx0ZXh0IGZpbGw9IiMwMDAwMDAiIGZvbnQtZmFtaWx5PSJzYW5zLXNlcmlmIiBmb250LXNpemU9IjEzIiBsZW5ndGhBZGp1c3Q9InNwYWNpbmciIHRleHRMZW5ndGg9IjE0NSIgeD0iNDgwIiB5PSI2MjIuNzczNCI+UGF5bWVudCBmYWlsZWQvdGltZW91dDwvdGV4dD48L2c+PCEtLWxpbmsgKnN0YXJ0KkNvbmZpcm1lZCB0byBBY3RpdmUtLT48ZyBpZD0ibGlua18qc3RhcnQqQ29uZmlybWVkX0FjdGl2ZSI+PHBhdGggZD0iTTE2NS4zNCw2MjcuMTk0NCBDMTY1Ljk1LDY0My41MTQ0IDE2Ni45OTYzLDY3Mi4wMjg1IDE2Ny44NzYzLDY5NS42MTg1ICIgZmlsbD0ibm9uZSIgaWQ9IipzdGFydCpDb25maXJtZWQtdG8tQWN0aXZlIiBzdHlsZT0ic3Ryb2tlOiMxODE4MTg7c3Ryb2tlLXdpZHRoOjEuMDsiLz48cG9seWdvbiBmaWxsPSIjMTgxODE4IiBwb2ludHM9IjE2OC4xLDcwMS42MTQ0LDE3MS43NjE3LDY5Mi40NzE1LDE2Ny45MTM2LDY5Ni42MTc5LDE2My43NjczLDY5Mi43Njk3LDE2OC4xLDcwMS42MTQ0IiBzdHlsZT0ic3Ryb2tlOiMxODE4MTg7c3Ryb2tlLXdpZHRoOjEuMDsiLz48dGV4dCBmaWxsPSIjMDAwMDAwIiBmb250LWZhbWlseT0ic2Fucy1zZXJpZiIgZm9udC1zaXplPSIxMyIgbGVuZ3RoQWRqdXN0PSJzcGFjaW5nIiB0ZXh0TGVuZ3RoPSIxMTUiIHg9IjE2OCIgeT0iNjcwLjI3MzQiPkJvb2tpbmcgY29uZmlybWVkPC90ZXh0PjwvZz48IS0tbGluayBBY3RpdmUgdG8gQ2hlY2tlZEluLS0+PGcgaWQ9ImxpbmtfQWN0aXZlX0NoZWNrZWRJbiI+PHBhdGggZD0iTTE3Mi4zMiw3NTEuOTk0NCBDMTc1LjI5LDc3My41MjQ0IDE3OC44MTg4LDc5OS4wMzA4IDE4MS44MDg4LDgyMC42NzA4ICIgZmlsbD0ibm9uZSIgaWQ9IkFjdGl2ZS10by1DaGVja2VkSW4iIHN0eWxlPSJzdHJva2U6IzE4MTgxODtzdHJva2Utd2lkdGg6MS4wOyIvPjxwb2x5Z29uIGZpbGw9IiMxODE4MTgiIHBvaW50cz0iMTgyLjYzLDgyNi42MTQ0LDE4NS4zNjA1LDgxNy4xNTE2LDE4MS45NDU3LDgyMS42NjE0LDE3Ny40MzU4LDgxOC4yNDY2LDE4Mi42Myw4MjYuNjE0NCIgc3R5bGU9InN0cm9rZTojMTgxODE4O3N0cm9rZS13aWR0aDoxLjA7Ii8+PHRleHQgZmlsbD0iIzAwMDAwMCIgZm9udC1mYW1pbHk9InNhbnMtc2VyaWYiIGZvbnQtc2l6ZT0iMTMiIGxlbmd0aEFkanVzdD0ic3BhY2luZyIgdGV4dExlbmd0aD0iOTciIHg9IjE3OSIgeT0iNzk1LjI3MzQiPlVzZXIgY2hlY2tzIGluPC90ZXh0PjwvZz48IS0tbGluayBDb25maXJtZWQgdG8gQ2FuY2VsbGVkLS0+PGcgaWQ9ImxpbmtfQ29uZmlybWVkX0NhbmNlbGxlZCI+PHBhdGggZD0iTTMxNC4wMjM1LDYzMi42NDU2IEMzMTQuMTkxLDYzMi45NDM5IDMxNC4zNjA2LDYzMy4yNDU0IDMxNC41MzIxLDYzMy41NSBDMzE1LjIxODEsNjM0Ljc2ODIgMzE1LjkzNTgsNjM2LjAzNSAzMTYuNjgxMyw2MzcuMzQxOSBDMzIyLjY0NSw2NDcuNzk2OSAzMzAuMzksNjYwLjgxNDQgMzM4LDY3MS45ODQ0IEMzNDQuODIsNjgxLjk5NDQgMzQ5LjE1MDgsNjg3Ljg5NjEgMzU2LjM3MDgsNjk3LjAzNjEgIiBmaWxsPSJub25lIiBpZD0iQ29uZmlybWVkLXRvLUNhbmNlbGxlZCIgc3R5bGU9InN0cm9rZTojMTgxODE4O3N0cm9rZS13aWR0aDoxLjA7Ii8+PHBvbHlnb24gZmlsbD0iIzE4MTgxOCIgcG9pbnRzPSIzNjAuMDksNzAxLjc0NDQsMzU3LjY1LDY5Mi4yMDI1LDM1Ni45OTA3LDY5Ny44MjA4LDM1MS4zNzI0LDY5Ny4xNjE1LDM2MC4wOSw3MDEuNzQ0NCIgc3R5bGU9InN0cm9rZTojMTgxODE4O3N0cm9rZS13aWR0aDoxLjA7Ii8+PHRleHQgZmlsbD0iIzAwMDAwMCIgZm9udC1mYW1pbHk9InNhbnMtc2VyaWYiIGZvbnQtc2l6ZT0iMTMiIGxlbmd0aEFkanVzdD0ic3BhY2luZyIgdGV4dExlbmd0aD0iMTM4IiB4PSIzMzkiIHk9IjY3MC4yNzM0Ij5Vc2VyIGNhbmNlbHMgYm9va2luZzwvdGV4dD48L2c+PCEtLWxpbmsgQ2FuY2VsbGVkIHRvICplbmQqLS0+PGcgaWQ9ImxpbmtfQ2FuY2VsbGVkXyplbmQqIj48cGF0aCBkPSJNMzgzLjQxLDc1Mi4xNzQ0IEMzOTAuMzksODEwLjA0NDQgNDAxLjMyLDk1OS41MzQ0IDM0NiwxMDY0Ljk4NDQgQzMzNy41NCwxMDgxLjExNDQgMzI0Ljc3NDksMTA5MC40NDQ5IDMxMy42NjQ5LDEwOTYuOTE0OSAiIGZpbGw9Im5vbmUiIGlkPSJDYW5jZWxsZWQtdG8tKmVuZCoiIHN0eWxlPSJzdHJva2U6IzE4MTgxODtzdHJva2Utd2lkdGg6MS4wOyIvPjxwb2x5Z29uIGZpbGw9IiMxODE4MTgiIHBvaW50cz0iMzA4LjQ4LDEwOTkuOTM0NCwzMTguMjcwMywxMDk4Ljg2MTgsMzEyLjgwMDcsMTA5Ny40MTgyLDMxNC4yNDQzLDEwOTEuOTQ4NiwzMDguNDgsMTA5OS45MzQ0IiBzdHlsZT0ic3Ryb2tlOiMxODE4MTg7c3Ryb2tlLXdpZHRoOjEuMDsiLz48dGV4dCBmaWxsPSIjMDAwMDAwIiBmb250LWZhbWlseT0ic2Fucy1zZXJpZiIgZm9udC1zaXplPSIxMyIgbGVuZ3RoQWRqdXN0PSJzcGFjaW5nIiB0ZXh0TGVuZ3RoPSIyMTYiIHg9IjM4NiIgeT0iOTM4LjI3MzQiPlJlZnVuZCBwcm9jZXNzZWQgKGlmIGFwcGxpY2FibGUpPC90ZXh0PjwvZz48IS0tbGluayBDaGVja2VkSW4gdG8gQ29tcGxldGVkLS0+PGcgaWQ9ImxpbmtfQ2hlY2tlZEluX0NvbXBsZXRlZCI+PHBhdGggZD0iTTE5MS44NCw4NzcuMjI0NCBDMTk4LjA3LDkwMy4wNDQ0IDIwNi40NzQxLDkzNy44NzE0IDIxMi43MTQxLDk2My43NjE0ICIgZmlsbD0ibm9uZSIgaWQ9IkNoZWNrZWRJbi10by1Db21wbGV0ZWQiIHN0eWxlPSJzdHJva2U6IzE4MTgxODtzdHJva2Utd2lkdGg6MS4wOyIvPjxwb2x5Z29uIGZpbGw9IiMxODE4MTgiIHBvaW50cz0iMjE0LjEyLDk2OS41OTQ0LDIxNS44OTk5LDk1OS45MDc3LDIxMi45NDg0LDk2NC43MzM2LDIwOC4xMjI2LDk2MS43ODIyLDIxNC4xMiw5NjkuNTk0NCIgc3R5bGU9InN0cm9rZTojMTgxODE4O3N0cm9rZS13aWR0aDoxLjA7Ii8+PHRleHQgZmlsbD0iIzAwMDAwMCIgZm9udC1mYW1pbHk9InNhbnMtc2VyaWYiIGZvbnQtc2l6ZT0iMTMiIGxlbmd0aEFkanVzdD0ic3BhY2luZyIgdGV4dExlbmd0aD0iMTA2IiB4PSIyMDciIHk9IjkzOC4yNzM0Ij5GbGlnaHQgY29tcGxldGVkPC90ZXh0PjwvZz48IS0tbGluayBDb21wbGV0ZWQgdG8gKmVuZCotLT48ZyBpZD0ibGlua19Db21wbGV0ZWRfKmVuZCoiPjxwYXRoIGQ9Ik0yMjYuODcsMTAyMC4yMDQ0IEMyMzEuNjEsMTAzNC4xOTQ0IDIzOC45LDEwNTEuNjA0NCAyNDksMTA2NC45ODQ0IEMyNjAuMzksMTA4MC4wNjQ0IDI3My42MDAxLDEwODkuNTkzNSAyODQuNjIwMSwxMDk2LjQyMzUgIiBmaWxsPSJub25lIiBpZD0iQ29tcGxldGVkLXRvLSplbmQqIiBzdHlsZT0ic3Ryb2tlOiMxODE4MTg7c3Ryb2tlLXdpZHRoOjEuMDsiLz48cG9seWdvbiBmaWxsPSIjMTgxODE4IiBwb2ludHM9IjI4OS43MiwxMDk5LjU4NDQsMjg0LjE3NzQsMTA5MS40NDMyLDI4NS40NzAxLDEwOTYuOTUwMywyNzkuOTYyOSwxMDk4LjI0MzEsMjg5LjcyLDEwOTkuNTg0NCIgc3R5bGU9InN0cm9rZTojMTgxODE4O3N0cm9rZS13aWR0aDoxLjA7Ii8+PHRleHQgZmlsbD0iIzAwMDAwMCIgZm9udC1mYW1pbHk9InNhbnMtc2VyaWYiIGZvbnQtc2l6ZT0iMTMiIGxlbmd0aEFkanVzdD0ic3BhY2luZyIgdGV4dExlbmd0aD0iOTEiIHg9IjI1MCIgeT0iMTA2My4yNzM0Ij5Kb3VybmV5IGVuZGVkPC90ZXh0PjwvZz48IS0tU1JDPVtSUEJCUWlHbTM0TnRfV2Vqc3lCR1ZIUTVGWVpDaDQ5M0x3S0Jad3JhbjNYc1k5cDJLRmhseklFZmNwM0JJRVRVTlNkbnYwdDJhdERkaVhxcU5kZzQ1dkJUQTdpWEZrdS1PUlR4V0JxYkp3NlplTzl0blg0T3ZRWEVvRDBRd2F3VVhVMmFCRTJ0MDVaYWhtYmdxQTFRVVNKbG5JQlc2b21nNnZIcFdQblRYQ0ZlNUE5Y3kydTZ5UkRKODhCOU1YNHpRZGRmcVZlUWhPdWhMV2RYTU9IUV8wWEhPYnlMcjdiV2QzVmFkaldtS1ZSaVI0alpkblFTc3kySktpWlNKa1FnR2JnNW5nbUtoUUhHa0ZWS2V2bHlTalZZX1Yta1pzNzlCbXBZdlZkS1dXTGVSZ092OXJIZHJGa18yd2ZPTzIwUmJvX1VzcW9QSkdNNk92dVgyWDNuNkFNMkRzbWRnX0YzQzhWTTNSS1dYeTZHYWFVM2p3OGFvOVZnMXVGdkx5WUY3ZkJGOUw2UW5WX1dmajdZMVNCaktGeTJdLS0+PC9nPjwvc3ZnPg==;" vertex="1" parent="1">
            <mxGeometry x="-1000" y="1870" width="633" height="1122" as="geometry" />
          </mxCell>
        </UserObject>
        <UserObject label="" plantUmlData="{&#xa;  &quot;data&quot;: &quot;@startuml Airline Management System - Activity Diagram\n\n|User|\nstart\n:Login to system;\n:Search for flights;\n:Select flight;\n\n|System|\n:Display available flights;\n:Show seat map;\n\n|User|\n:Select seats;\n:Enter passenger details;\n\n|System|\n:Calculate fare;\n:Generate booking summary;\n\n|User|\n:Review booking details;\n:Proceed to payment;\n:Select payment method;\n\n|System|\n:Process payment;\nif (Payment successful?) then (yes)\n  :Generate ticket;\n  :Send confirmation email;\nelse (no)\n  :Display payment error;\n  stop\nendif\n\n|User|\n:View ticket details;\n:Download ticket;\nif (Want to cancel?) then (yes)\n  :Request cancellation;\n  |System|\n  :Process cancellation;\n  :Initiate refund;\n  |User|\n  :Receive cancellation confirmation;\nelse (no)\nendif\n\n|Admin|\n:Login to admin panel;\n:Monitor flight bookings;\nif (Flight status changed?) then (yes)\n  :Update flight status;\n  |System|\n  :Notify affected users;\n  :Update flight information;\nelse (no)\nendif\n:View booking reports;\n:Handle general enquiries;\n\n|System|\n:Generate statistics;\n:Update system status;\n\nstop\n\n@enduml&quot;,&#xa;  &quot;format&quot;: &quot;svg&quot;&#xa;}" id="7hjEcoK-xNjLgvXYdvap-6">
          <mxCell style="shape=image;noLabel=1;verticalAlign=top;aspect=fixed;imageAspect=0;image=data:image/svg+xml,PD94bWwgdmVyc2lvbj0iMS4wIiBlbmNvZGluZz0idXMtYXNjaWkiIHN0YW5kYWxvbmU9Im5vIj8+PHN2ZyB4bWxucz0iaHR0cDovL3d3dy53My5vcmcvMjAwMC9zdmciIHhtbG5zOnhsaW5rPSJodHRwOi8vd3d3LnczLm9yZy8xOTk5L3hsaW5rIiBjb250ZW50U3R5bGVUeXBlPSJ0ZXh0L2NzcyIgaGVpZ2h0PSIxOTI3cHgiIHByZXNlcnZlQXNwZWN0UmF0aW89Im5vbmUiIHN0eWxlPSJ3aWR0aDo4NzlweDtoZWlnaHQ6MTkyN3B4O2JhY2tncm91bmQ6I0ZGRkZGRjsiIHZlcnNpb249IjEuMSIgdmlld0JveD0iMCAwIDg3OSAxOTI3IiB3aWR0aD0iODc5cHgiIHpvb21BbmRQYW49Im1hZ25pZnkiPjxkZWZzLz48Zz48cmVjdCBmaWxsPSJub25lIiBoZWlnaHQ9IjE5LjI2NTYiIHN0eWxlPSJzdHJva2U6bm9uZTtzdHJva2Utd2lkdGg6MS4wOyIgd2lkdGg9Ijg0NiIgeD0iMTUiIHk9IjExIi8+PGVsbGlwc2UgY3g9IjE2MS41IiBjeT0iNDUuMjY1NiIgZmlsbD0iIzIyMjIyMiIgcng9IjEwIiByeT0iMTAiIHN0eWxlPSJzdHJva2U6IzIyMjIyMjtzdHJva2Utd2lkdGg6MS4wOyIvPjxyZWN0IGZpbGw9IiNGMUYxRjEiIGhlaWdodD0iMzIuODQzOCIgcng9IjEyLjUiIHJ5PSIxMi41IiBzdHlsZT0ic3Ryb2tlOiMxODE4MTg7c3Ryb2tlLXdpZHRoOjAuNTsiIHdpZHRoPSIxMTgiIHg9IjEwMi41IiB5PSI3NS4yNjU2Ii8+PHRleHQgZmlsbD0iIzAwMDAwMCIgZm9udC1mYW1pbHk9InNhbnMtc2VyaWYiIGZvbnQtc2l6ZT0iMTIiIGxlbmd0aEFkanVzdD0ic3BhY2luZyIgdGV4dExlbmd0aD0iOTgiIHg9IjExMi41IiB5PSI5Ni42MDk0Ij5Mb2dpbiB0byBzeXN0ZW08L3RleHQ+PHJlY3QgZmlsbD0iI0YxRjFGMSIgaGVpZ2h0PSIzMi44NDM4IiByeD0iMTIuNSIgcnk9IjEyLjUiIHN0eWxlPSJzdHJva2U6IzE4MTgxODtzdHJva2Utd2lkdGg6MC41OyIgd2lkdGg9IjEzOCIgeD0iOTIuNSIgeT0iMTI4LjEwOTQiLz48dGV4dCBmaWxsPSIjMDAwMDAwIiBmb250LWZhbWlseT0ic2Fucy1zZXJpZiIgZm9udC1zaXplPSIxMiIgbGVuZ3RoQWRqdXN0PSJzcGFjaW5nIiB0ZXh0TGVuZ3RoPSIxMTgiIHg9IjEwMi41IiB5PSIxNDkuNDUzMSI+U2VhcmNoIGZvciBmbGlnaHRzPC90ZXh0PjxyZWN0IGZpbGw9IiNGMUYxRjEiIGhlaWdodD0iMzIuODQzOCIgcng9IjEyLjUiIHJ5PSIxMi41IiBzdHlsZT0ic3Ryb2tlOiMxODE4MTg7c3Ryb2tlLXdpZHRoOjAuNTsiIHdpZHRoPSIxMDMiIHg9IjExMCIgeT0iMTgwLjk1MzEiLz48dGV4dCBmaWxsPSIjMDAwMDAwIiBmb250LWZhbWlseT0ic2Fucy1zZXJpZiIgZm9udC1zaXplPSIxMiIgbGVuZ3RoQWRqdXN0PSJzcGFjaW5nIiB0ZXh0TGVuZ3RoPSI4MyIgeD0iMTIwIiB5PSIyMDIuMjk2OSI+U2VsZWN0IGZsaWdodDwvdGV4dD48cmVjdCBmaWxsPSIjRjFGMUYxIiBoZWlnaHQ9IjMyLjg0MzgiIHJ4PSIxMi41IiByeT0iMTIuNSIgc3R5bGU9InN0cm9rZTojMTgxODE4O3N0cm9rZS13aWR0aDowLjU7IiB3aWR0aD0iOTkiIHg9IjExMiIgeT0iMzM5LjQ4NDQiLz48dGV4dCBmaWxsPSIjMDAwMDAwIiBmb250LWZhbWlseT0ic2Fucy1zZXJpZiIgZm9udC1zaXplPSIxMiIgbGVuZ3RoQWRqdXN0PSJzcGFjaW5nIiB0ZXh0TGVuZ3RoPSI3OSIgeD0iMTIyIiB5PSIzNjAuODI4MSI+U2VsZWN0IHNlYXRzPC90ZXh0PjxyZWN0IGZpbGw9IiNGMUYxRjEiIGhlaWdodD0iMzIuODQzOCIgcng9IjEyLjUiIHJ5PSIxMi41IiBzdHlsZT0ic3Ryb2tlOiMxODE4MTg7c3Ryb2tlLXdpZHRoOjAuNTsiIHdpZHRoPSIxNzQiIHg9Ijc0LjUiIHk9IjM5Mi4zMjgxIi8+PHRleHQgZmlsbD0iIzAwMDAwMCIgZm9udC1mYW1pbHk9InNhbnMtc2VyaWYiIGZvbnQtc2l6ZT0iMTIiIGxlbmd0aEFkanVzdD0ic3BhY2luZyIgdGV4dExlbmd0aD0iMTU0IiB4PSI4NC41IiB5PSI0MTMuNjcxOSI+RW50ZXIgcGFzc2VuZ2VyIGRldGFpbHM8L3RleHQ+PHJlY3QgZmlsbD0iI0YxRjFGMSIgaGVpZ2h0PSIzMi44NDM4IiByeD0iMTIuNSIgcnk9IjEyLjUiIHN0eWxlPSJzdHJva2U6IzE4MTgxODtzdHJva2Utd2lkdGg6MC41OyIgd2lkdGg9IjE2NSIgeD0iNzkiIHk9IjU1MC44NTk0Ii8+PHRleHQgZmlsbD0iIzAwMDAwMCIgZm9udC1mYW1pbHk9InNhbnMtc2VyaWYiIGZvbnQtc2l6ZT0iMTIiIGxlbmd0aEFkanVzdD0ic3BhY2luZyIgdGV4dExlbmd0aD0iMTQ1IiB4PSI4OSIgeT0iNTcyLjIwMzEiPlJldmlldyBib29raW5nIGRldGFpbHM8L3RleHQ+PHJlY3QgZmlsbD0iI0YxRjFGMSIgaGVpZ2h0PSIzMi44NDM4IiByeD0iMTIuNSIgcnk9IjEyLjUiIHN0eWxlPSJzdHJva2U6IzE4MTgxODtzdHJva2Utd2lkdGg6MC41OyIgd2lkdGg9IjE0MCIgeD0iOTEuNSIgeT0iNjAzLjcwMzEiLz48dGV4dCBmaWxsPSIjMDAwMDAwIiBmb250LWZhbWlseT0ic2Fucy1zZXJpZiIgZm9udC1zaXplPSIxMiIgbGVuZ3RoQWRqdXN0PSJzcGFjaW5nIiB0ZXh0TGVuZ3RoPSIxMjAiIHg9IjEwMS41IiB5PSI2MjUuMDQ2OSI+UHJvY2VlZCB0byBwYXltZW50PC90ZXh0PjxyZWN0IGZpbGw9IiNGMUYxRjEiIGhlaWdodD0iMzIuODQzOCIgcng9IjEyLjUiIHJ5PSIxMi41IiBzdHlsZT0ic3Ryb2tlOiMxODE4MTg7c3Ryb2tlLXdpZHRoOjAuNTsiIHdpZHRoPSIxNTgiIHg9IjgyLjUiIHk9IjY1Ni41NDY5Ii8+PHRleHQgZmlsbD0iIzAwMDAwMCIgZm9udC1mYW1pbHk9InNhbnMtc2VyaWYiIGZvbnQtc2l6ZT0iMTIiIGxlbmd0aEFkanVzdD0ic3BhY2luZyIgdGV4dExlbmd0aD0iMTM4IiB4PSI5Mi41IiB5PSI2NzcuODkwNiI+U2VsZWN0IHBheW1lbnQgbWV0aG9kPC90ZXh0PjxyZWN0IGZpbGw9IiNGMUYxRjEiIGhlaWdodD0iMzIuODQzOCIgcng9IjEyLjUiIHJ5PSIxMi41IiBzdHlsZT0ic3Ryb2tlOiMxODE4MTg7c3Ryb2tlLXdpZHRoOjAuNTsiIHdpZHRoPSIxNDEiIHg9IjkxIiB5PSI5MDEuOTIxOSIvPjx0ZXh0IGZpbGw9IiMwMDAwMDAiIGZvbnQtZmFtaWx5PSJzYW5zLXNlcmlmIiBmb250LXNpemU9IjEyIiBsZW5ndGhBZGp1c3Q9InNwYWNpbmciIHRleHRMZW5ndGg9IjEyMSIgeD0iMTAxIiB5PSI5MjMuMjY1NiI+VmlldyB0aWNrZXQgZGV0YWlsczwvdGV4dD48cmVjdCBmaWxsPSIjRjFGMUYxIiBoZWlnaHQ9IjMyLjg0MzgiIHJ4PSIxMi41IiByeT0iMTIuNSIgc3R5bGU9InN0cm9rZTojMTgxODE4O3N0cm9rZS13aWR0aDowLjU7IiB3aWR0aD0iMTE3IiB4PSIxMDMiIHk9Ijk1NC43NjU2Ii8+PHRleHQgZmlsbD0iIzAwMDAwMCIgZm9udC1mYW1pbHk9InNhbnMtc2VyaWYiIGZvbnQtc2l6ZT0iMTIiIGxlbmd0aEFkanVzdD0ic3BhY2luZyIgdGV4dExlbmd0aD0iOTciIHg9IjExMyIgeT0iOTc2LjEwOTQiPkRvd25sb2FkIHRpY2tldDwvdGV4dD48cmVjdCBmaWxsPSIjRjFGMUYxIiBoZWlnaHQ9IjMyLjg0MzgiIHJ4PSIxMi41IiByeT0iMTIuNSIgc3R5bGU9InN0cm9rZTojMTgxODE4O3N0cm9rZS13aWR0aDowLjU7IiB3aWR0aD0iMTUyIiB4PSI4NS41IiB5PSIxMDU1LjYwOTQiLz48dGV4dCBmaWxsPSIjMDAwMDAwIiBmb250LWZhbWlseT0ic2Fucy1zZXJpZiIgZm9udC1zaXplPSIxMiIgbGVuZ3RoQWRqdXN0PSJzcGFjaW5nIiB0ZXh0TGVuZ3RoPSIxMzIiIHg9Ijk1LjUiIHk9IjEwNzYuOTUzMSI+UmVxdWVzdCBjYW5jZWxsYXRpb248L3RleHQ+PHJlY3QgZmlsbD0iI0YxRjFGMSIgaGVpZ2h0PSIzMi44NDM4IiByeD0iMTIuNSIgcnk9IjEyLjUiIHN0eWxlPSJzdHJva2U6IzE4MTgxODtzdHJva2Utd2lkdGg6MC41OyIgd2lkdGg9IjIzNSIgeD0iNDQiIHk9IjEyMjkuMTQwNiIvPjx0ZXh0IGZpbGw9IiMwMDAwMDAiIGZvbnQtZmFtaWx5PSJzYW5zLXNlcmlmIiBmb250LXNpemU9IjEyIiBsZW5ndGhBZGp1c3Q9InNwYWNpbmciIHRleHRMZW5ndGg9IjIxNSIgeD0iNTQiIHk9IjEyNTAuNDg0NCI+UmVjZWl2ZSBjYW5jZWxsYXRpb24gY29uZmlybWF0aW9uPC90ZXh0Pjxwb2x5Z29uIGZpbGw9IiNGMUYxRjEiIHBvaW50cz0iMTE2LjUsMTAwNy42MDk0LDIwNi41LDEwMDcuNjA5NCwyMTguNSwxMDE5LjYwOTQsMjA2LjUsMTAzMS42MDk0LDExNi41LDEwMzEuNjA5NCwxMDQuNSwxMDE5LjYwOTQsMTE2LjUsMTAwNy42MDk0IiBzdHlsZT0ic3Ryb2tlOiMxODE4MTg7c3Ryb2tlLXdpZHRoOjAuNTsiLz48dGV4dCBmaWxsPSIjMDAwMDAwIiBmb250LWZhbWlseT0ic2Fucy1zZXJpZiIgZm9udC1zaXplPSIxMSIgbGVuZ3RoQWRqdXN0PSJzcGFjaW5nIiB0ZXh0TGVuZ3RoPSIxOCIgeD0iMTY1LjUiIHk9IjEwNDIuMDA3OCI+eWVzPC90ZXh0Pjx0ZXh0IGZpbGw9IiMwMDAwMDAiIGZvbnQtZmFtaWx5PSJzYW5zLXNlcmlmIiBmb250LXNpemU9IjExIiBsZW5ndGhBZGp1c3Q9InNwYWNpbmciIHRleHRMZW5ndGg9IjkwIiB4PSIxMTYuNSIgeT0iMTAyNC4xMjExIj5XYW50IHRvIGNhbmNlbD88L3RleHQ+PHRleHQgZmlsbD0iIzAwMDAwMCIgZm9udC1mYW1pbHk9InNhbnMtc2VyaWYiIGZvbnQtc2l6ZT0iMTEiIGxlbmd0aEFkanVzdD0ic3BhY2luZyIgdGV4dExlbmd0aD0iMTIiIHg9IjkyLjUiIHk9IjEwMTguMjM0NCI+bm88L3RleHQ+PHBvbHlnb24gZmlsbD0iI0YxRjFGMSIgcG9pbnRzPSIxNjEuNSwxMjgxLjk4NDQsMTczLjUsMTI5My45ODQ0LDE2MS41LDEzMDUuOTg0NCwxNDkuNSwxMjkzLjk4NDQsMTYxLjUsMTI4MS45ODQ0IiBzdHlsZT0ic3Ryb2tlOiMxODE4MTg7c3Ryb2tlLXdpZHRoOjAuNTsiLz48bGluZSBzdHlsZT0ic3Ryb2tlOiMwMDAwMDA7c3Ryb2tlLXdpZHRoOjEuNTsiIHgxPSIxNSIgeDI9IjE1IiB5MT0iMTEiIHkyPSIxOTE1LjU3ODEiLz48cmVjdCBmaWxsPSIjRjFGMUYxIiBoZWlnaHQ9IjMyLjg0MzgiIHJ4PSIxMi41IiByeT0iMTIuNSIgc3R5bGU9InN0cm9rZTojMTgxODE4O3N0cm9rZS13aWR0aDowLjU7IiB3aWR0aD0iMTg0IiB4PSIzNzQuNzUiIHk9IjIzMy43OTY5Ii8+PHRleHQgZmlsbD0iIzAwMDAwMCIgZm9udC1mYW1pbHk9InNhbnMtc2VyaWYiIGZvbnQtc2l6ZT0iMTIiIGxlbmd0aEFkanVzdD0ic3BhY2luZyIgdGV4dExlbmd0aD0iMTY0IiB4PSIzODQuNzUiIHk9IjI1NS4xNDA2Ij5EaXNwbGF5IGF2YWlsYWJsZSBmbGlnaHRzPC90ZXh0PjxyZWN0IGZpbGw9IiNGMUYxRjEiIGhlaWdodD0iMzIuODQzOCIgcng9IjEyLjUiIHJ5PSIxMi41IiBzdHlsZT0ic3Ryb2tlOiMxODE4MTg7c3Ryb2tlLXdpZHRoOjAuNTsiIHdpZHRoPSIxMDYiIHg9IjQxMy43NSIgeT0iMjg2LjY0MDYiLz48dGV4dCBmaWxsPSIjMDAwMDAwIiBmb250LWZhbWlseT0ic2Fucy1zZXJpZiIgZm9udC1zaXplPSIxMiIgbGVuZ3RoQWRqdXN0PSJzcGFjaW5nIiB0ZXh0TGVuZ3RoPSI4NiIgeD0iNDIzLjc1IiB5PSIzMDcuOTg0NCI+U2hvdyBzZWF0IG1hcDwvdGV4dD48cmVjdCBmaWxsPSIjRjFGMUYxIiBoZWlnaHQ9IjMyLjg0MzgiIHJ4PSIxMi41IiByeT0iMTIuNSIgc3R5bGU9InN0cm9rZTojMTgxODE4O3N0cm9rZS13aWR0aDowLjU7IiB3aWR0aD0iMTEyIiB4PSI0MTAuNzUiIHk9IjQ0NS4xNzE5Ii8+PHRleHQgZmlsbD0iIzAwMDAwMCIgZm9udC1mYW1pbHk9InNhbnMtc2VyaWYiIGZvbnQtc2l6ZT0iMTIiIGxlbmd0aEFkanVzdD0ic3BhY2luZyIgdGV4dExlbmd0aD0iOTIiIHg9IjQyMC43NSIgeT0iNDY2LjUxNTYiPkNhbGN1bGF0ZSBmYXJlPC90ZXh0PjxyZWN0IGZpbGw9IiNGMUYxRjEiIGhlaWdodD0iMzIuODQzOCIgcng9IjEyLjUiIHJ5PSIxMi41IiBzdHlsZT0ic3Ryb2tlOiMxODE4MTg7c3Ryb2tlLXdpZHRoOjAuNTsiIHdpZHRoPSIxODEiIHg9IjM3Ni4yNSIgeT0iNDk4LjAxNTYiLz48dGV4dCBmaWxsPSIjMDAwMDAwIiBmb250LWZhbWlseT0ic2Fucy1zZXJpZiIgZm9udC1zaXplPSIxMiIgbGVuZ3RoQWRqdXN0PSJzcGFjaW5nIiB0ZXh0TGVuZ3RoPSIxNjEiIHg9IjM4Ni4yNSIgeT0iNTE5LjM1OTQiPkdlbmVyYXRlIGJvb2tpbmcgc3VtbWFyeTwvdGV4dD48cmVjdCBmaWxsPSIjRjFGMUYxIiBoZWlnaHQ9IjMyLjg0MzgiIHJ4PSIxMi41IiByeT0iMTIuNSIgc3R5bGU9InN0cm9rZTojMTgxODE4O3N0cm9rZS13aWR0aDowLjU7IiB3aWR0aD0iMTIxIiB4PSI0MDYuMjUiIHk9IjcwOS4zOTA2Ii8+PHRleHQgZmlsbD0iIzAwMDAwMCIgZm9udC1mYW1pbHk9InNhbnMtc2VyaWYiIGZvbnQtc2l6ZT0iMTIiIGxlbmd0aEFkanVzdD0ic3BhY2luZyIgdGV4dExlbmd0aD0iMTAxIiB4PSI0MTYuMjUiIHk9IjczMC43MzQ0Ij5Qcm9jZXNzIHBheW1lbnQ8L3RleHQ+PHBvbHlnb24gZmlsbD0iI0YxRjFGMSIgcG9pbnRzPSI0MDkuNzUsNzYyLjIzNDQsNTIzLjc1LDc2Mi4yMzQ0LDUzNS43NSw3NzQuMjM0NCw1MjMuNzUsNzg2LjIzNDQsNDA5Ljc1LDc4Ni4yMzQ0LDM5Ny43NSw3NzQuMjM0NCw0MDkuNzUsNzYyLjIzNDQiIHN0eWxlPSJzdHJva2U6IzE4MTgxODtzdHJva2Utd2lkdGg6MC41OyIvPjx0ZXh0IGZpbGw9IiMwMDAwMDAiIGZvbnQtZmFtaWx5PSJzYW5zLXNlcmlmIiBmb250LXNpemU9IjExIiBsZW5ndGhBZGp1c3Q9InNwYWNpbmciIHRleHRMZW5ndGg9IjExNCIgeD0iNDA5Ljc1IiB5PSI3NzguNzQ2MSI+UGF5bWVudCBzdWNjZXNzZnVsPzwvdGV4dD48dGV4dCBmaWxsPSIjMDAwMDAwIiBmb250LWZhbWlseT0ic2Fucy1zZXJpZiIgZm9udC1zaXplPSIxMSIgbGVuZ3RoQWRqdXN0PSJzcGFjaW5nIiB0ZXh0TGVuZ3RoPSIxOCIgeD0iMzc5Ljc1IiB5PSI3NzIuODU5NCI+eWVzPC90ZXh0Pjx0ZXh0IGZpbGw9IiMwMDAwMDAiIGZvbnQtZmFtaWx5PSJzYW5zLXNlcmlmIiBmb250LXNpemU9IjExIiBsZW5ndGhBZGp1c3Q9InNwYWNpbmciIHRleHRMZW5ndGg9IjEyIiB4PSI1MzUuNzUiIHk9Ijc3Mi44NTk0Ij5ubzwvdGV4dD48cmVjdCBmaWxsPSIjRjFGMUYxIiBoZWlnaHQ9IjMyLjg0MzgiIHJ4PSIxMi41IiByeT0iMTIuNSIgc3R5bGU9InN0cm9rZTojMTgxODE4O3N0cm9rZS13aWR0aDowLjU7IiB3aWR0aD0iMTE4IiB4PSIzMTUiIHk9Ijc5Ni4yMzQ0Ii8+PHRleHQgZmlsbD0iIzAwMDAwMCIgZm9udC1mYW1pbHk9InNhbnMtc2VyaWYiIGZvbnQtc2l6ZT0iMTIiIGxlbmd0aEFkanVzdD0ic3BhY2luZyIgdGV4dExlbmd0aD0iOTgiIHg9IjMyNSIgeT0iODE3LjU3ODEiPkdlbmVyYXRlIHRpY2tldDwvdGV4dD48cmVjdCBmaWxsPSIjRjFGMUYxIiBoZWlnaHQ9IjMyLjg0MzgiIHJ4PSIxMi41IiByeT0iMTIuNSIgc3R5bGU9InN0cm9rZTojMTgxODE4O3N0cm9rZS13aWR0aDowLjU7IiB3aWR0aD0iMTcwIiB4PSIyODkiIHk9Ijg0OS4wNzgxIi8+PHRleHQgZmlsbD0iIzAwMDAwMCIgZm9udC1mYW1pbHk9InNhbnMtc2VyaWYiIGZvbnQtc2l6ZT0iMTIiIGxlbmd0aEFkanVzdD0ic3BhY2luZyIgdGV4dExlbmd0aD0iMTUwIiB4PSIyOTkiIHk9Ijg3MC40MjE5Ij5TZW5kIGNvbmZpcm1hdGlvbiBlbWFpbDwvdGV4dD48cmVjdCBmaWxsPSIjRjFGMUYxIiBoZWlnaHQ9IjMyLjg0MzgiIHJ4PSIxMi41IiByeT0iMTIuNSIgc3R5bGU9InN0cm9rZTojMTgxODE4O3N0cm9rZS13aWR0aDowLjU7IiB3aWR0aD0iMTYxIiB4PSI0NzkiIHk9Ijc5Ni4yMzQ0Ii8+PHRleHQgZmlsbD0iIzAwMDAwMCIgZm9udC1mYW1pbHk9InNhbnMtc2VyaWYiIGZvbnQtc2l6ZT0iMTIiIGxlbmd0aEFkanVzdD0ic3BhY2luZyIgdGV4dExlbmd0aD0iMTQxIiB4PSI0ODkiIHk9IjgxNy41NzgxIj5EaXNwbGF5IHBheW1lbnQgZXJyb3I8L3RleHQ+PGVsbGlwc2UgY3g9IjU1OS41IiBjeT0iODYwLjA3ODEiIGZpbGw9Im5vbmUiIHJ4PSIxMSIgcnk9IjExIiBzdHlsZT0ic3Ryb2tlOiMyMjIyMjI7c3Ryb2tlLXdpZHRoOjEuMDsiLz48ZWxsaXBzZSBjeD0iNTU5LjUiIGN5PSI4NjAuMDc4MSIgZmlsbD0iIzIyMjIyMiIgcng9IjYiIHJ5PSI2IiBzdHlsZT0ic3Ryb2tlOiMyMjIyMjI7c3Ryb2tlLXdpZHRoOjEuMDsiLz48cmVjdCBmaWxsPSIjRjFGMUYxIiBoZWlnaHQ9IjMyLjg0MzgiIHJ4PSIxMi41IiByeT0iMTIuNSIgc3R5bGU9InN0cm9rZTojMTgxODE4O3N0cm9rZS13aWR0aDowLjU7IiB3aWR0aD0iMTUyIiB4PSIzOTAuNzUiIHk9IjExMDguNDUzMSIvPjx0ZXh0IGZpbGw9IiMwMDAwMDAiIGZvbnQtZmFtaWx5PSJzYW5zLXNlcmlmIiBmb250LXNpemU9IjEyIiBsZW5ndGhBZGp1c3Q9InNwYWNpbmciIHRleHRMZW5ndGg9IjEzMiIgeD0iNDAwLjc1IiB5PSIxMTI5Ljc5NjkiPlByb2Nlc3MgY2FuY2VsbGF0aW9uPC90ZXh0PjxyZWN0IGZpbGw9IiNGMUYxRjEiIGhlaWdodD0iMzIuODQzOCIgcng9IjEyLjUiIHJ5PSIxMi41IiBzdHlsZT0ic3Ryb2tlOiMxODE4MTg7c3Ryb2tlLXdpZHRoOjAuNTsiIHdpZHRoPSIxMTgiIHg9IjQwNy43NSIgeT0iMTE3Ni4yOTY5Ii8+PHRleHQgZmlsbD0iIzAwMDAwMCIgZm9udC1mYW1pbHk9InNhbnMtc2VyaWYiIGZvbnQtc2l6ZT0iMTIiIGxlbmd0aEFkanVzdD0ic3BhY2luZyIgdGV4dExlbmd0aD0iOTgiIHg9IjQxNy43NSIgeT0iMTE5Ny42NDA2Ij5Jbml0aWF0ZSByZWZ1bmQ8L3RleHQ+PHJlY3QgZmlsbD0iI0YxRjFGMSIgaGVpZ2h0PSIzMi44NDM4IiByeD0iMTIuNSIgcnk9IjEyLjUiIHN0eWxlPSJzdHJva2U6IzE4MTgxODtzdHJva2Utd2lkdGg6MC41OyIgd2lkdGg9IjE1OCIgeD0iMzg3Ljc1IiB5PSIxNTMyLjUxNTYiLz48dGV4dCBmaWxsPSIjMDAwMDAwIiBmb250LWZhbWlseT0ic2Fucy1zZXJpZiIgZm9udC1zaXplPSIxMiIgbGVuZ3RoQWRqdXN0PSJzcGFjaW5nIiB0ZXh0TGVuZ3RoPSIxMzgiIHg9IjM5Ny43NSIgeT0iMTU1My44NTk0Ij5Ob3RpZnkgYWZmZWN0ZWQgdXNlcnM8L3RleHQ+PHJlY3QgZmlsbD0iI0YxRjFGMSIgaGVpZ2h0PSIzMi44NDM4IiByeD0iMTIuNSIgcnk9IjEyLjUiIHN0eWxlPSJzdHJva2U6IzE4MTgxODtzdHJva2Utd2lkdGg6MC41OyIgd2lkdGg9IjE4MyIgeD0iMzc1LjI1IiB5PSIxNTg1LjM1OTQiLz48dGV4dCBmaWxsPSIjMDAwMDAwIiBmb250LWZhbWlseT0ic2Fucy1zZXJpZiIgZm9udC1zaXplPSIxMiIgbGVuZ3RoQWRqdXN0PSJzcGFjaW5nIiB0ZXh0TGVuZ3RoPSIxNjMiIHg9IjM4NS4yNSIgeT0iMTYwNi43MDMxIj5VcGRhdGUgZmxpZ2h0IGluZm9ybWF0aW9uPC90ZXh0PjxyZWN0IGZpbGw9IiNGMUYxRjEiIGhlaWdodD0iMzIuODQzOCIgcng9IjEyLjUiIHJ5PSIxMi41IiBzdHlsZT0ic3Ryb2tlOiMxODE4MTg7c3Ryb2tlLXdpZHRoOjAuNTsiIHdpZHRoPSIxNTMiIHg9IjM5MC4yNSIgeT0iMTY4Mi4yMDMxIi8+PHRleHQgZmlsbD0iIzAwMDAwMCIgZm9udC1mYW1pbHk9InNhbnMtc2VyaWYiIGZvbnQtc2l6ZT0iMTIiIGxlbmd0aEFkanVzdD0ic3BhY2luZyIgdGV4dExlbmd0aD0iMTMzIiB4PSI0MDAuMjUiIHk9IjE3MDMuNTQ2OSI+VmlldyBib29raW5nIHJlcG9ydHM8L3RleHQ+PHJlY3QgZmlsbD0iI0YxRjFGMSIgaGVpZ2h0PSIzMi44NDM4IiByeD0iMTIuNSIgcnk9IjEyLjUiIHN0eWxlPSJzdHJva2U6IzE4MTgxODtzdHJva2Utd2lkdGg6MC41OyIgd2lkdGg9IjE4MiIgeD0iMzc1Ljc1IiB5PSIxNzM1LjA0NjkiLz48dGV4dCBmaWxsPSIjMDAwMDAwIiBmb250LWZhbWlseT0ic2Fucy1zZXJpZiIgZm9udC1zaXplPSIxMiIgbGVuZ3RoQWRqdXN0PSJzcGFjaW5nIiB0ZXh0TGVuZ3RoPSIxNjIiIHg9IjM4NS43NSIgeT0iMTc1Ni4zOTA2Ij5IYW5kbGUgZ2VuZXJhbCBlbnF1aXJpZXM8L3RleHQ+PHJlY3QgZmlsbD0iI0YxRjFGMSIgaGVpZ2h0PSIzMi44NDM4IiByeD0iMTIuNSIgcnk9IjEyLjUiIHN0eWxlPSJzdHJva2U6IzE4MTgxODtzdHJva2Utd2lkdGg6MC41OyIgd2lkdGg9IjE0NSIgeD0iMzk0LjI1IiB5PSIxNzg3Ljg5MDYiLz48dGV4dCBmaWxsPSIjMDAwMDAwIiBmb250LWZhbWlseT0ic2Fucy1zZXJpZiIgZm9udC1zaXplPSIxMiIgbGVuZ3RoQWRqdXN0PSJzcGFjaW5nIiB0ZXh0TGVuZ3RoPSIxMjUiIHg9IjQwNC4yNSIgeT0iMTgwOS4yMzQ0Ij5HZW5lcmF0ZSBzdGF0aXN0aWNzPC90ZXh0PjxyZWN0IGZpbGw9IiNGMUYxRjEiIGhlaWdodD0iMzIuODQzOCIgcng9IjEyLjUiIHJ5PSIxMi41IiBzdHlsZT0ic3Ryb2tlOiMxODE4MTg7c3Ryb2tlLXdpZHRoOjAuNTsiIHdpZHRoPSIxNTMiIHg9IjM5MC4yNSIgeT0iMTg0MC43MzQ0Ii8+PHRleHQgZmlsbD0iIzAwMDAwMCIgZm9udC1mYW1pbHk9InNhbnMtc2VyaWYiIGZvbnQtc2l6ZT0iMTIiIGxlbmd0aEFkanVzdD0ic3BhY2luZyIgdGV4dExlbmd0aD0iMTMzIiB4PSI0MDAuMjUiIHk9IjE4NjIuMDc4MSI+VXBkYXRlIHN5c3RlbSBzdGF0dXM8L3RleHQ+PGVsbGlwc2UgY3g9IjQ2Ni43NSIgY3k9IjE5MDQuNTc4MSIgZmlsbD0ibm9uZSIgcng9IjExIiByeT0iMTEiIHN0eWxlPSJzdHJva2U6IzIyMjIyMjtzdHJva2Utd2lkdGg6MS4wOyIvPjxlbGxpcHNlIGN4PSI0NjYuNzUiIGN5PSIxOTA0LjU3ODEiIGZpbGw9IiMyMjIyMjIiIHJ4PSI2IiByeT0iNiIgc3R5bGU9InN0cm9rZTojMjIyMjIyO3N0cm9rZS13aWR0aDoxLjA7Ii8+PGxpbmUgc3R5bGU9InN0cm9rZTojMDAwMDAwO3N0cm9rZS13aWR0aDoxLjU7IiB4MT0iMjgzIiB4Mj0iMjgzIiB5MT0iMTEiIHkyPSIxOTE1LjU3ODEiLz48cmVjdCBmaWxsPSIjRjFGMUYxIiBoZWlnaHQ9IjMyLjg0MzgiIHJ4PSIxMi41IiByeT0iMTIuNSIgc3R5bGU9InN0cm9rZTojMTgxODE4O3N0cm9rZS13aWR0aDowLjU7IiB3aWR0aD0iMTUxIiB4PSI2NjEuNSIgeT0iMTMyNS45ODQ0Ii8+PHRleHQgZmlsbD0iIzAwMDAwMCIgZm9udC1mYW1pbHk9InNhbnMtc2VyaWYiIGZvbnQtc2l6ZT0iMTIiIGxlbmd0aEFkanVzdD0ic3BhY2luZyIgdGV4dExlbmd0aD0iMTMxIiB4PSI2NzEuNSIgeT0iMTM0Ny4zMjgxIj5Mb2dpbiB0byBhZG1pbiBwYW5lbDwvdGV4dD48cmVjdCBmaWxsPSIjRjFGMUYxIiBoZWlnaHQ9IjMyLjg0MzgiIHJ4PSIxMi41IiByeT0iMTIuNSIgc3R5bGU9InN0cm9rZTojMTgxODE4O3N0cm9rZS13aWR0aDowLjU7IiB3aWR0aD0iMTcxIiB4PSI2NTEuNSIgeT0iMTM3OC44MjgxIi8+PHRleHQgZmlsbD0iIzAwMDAwMCIgZm9udC1mYW1pbHk9InNhbnMtc2VyaWYiIGZvbnQtc2l6ZT0iMTIiIGxlbmd0aEFkanVzdD0ic3BhY2luZyIgdGV4dExlbmd0aD0iMTUxIiB4PSI2NjEuNSIgeT0iMTQwMC4xNzE5Ij5Nb25pdG9yIGZsaWdodCBib29raW5nczwvdGV4dD48cmVjdCBmaWxsPSIjRjFGMUYxIiBoZWlnaHQ9IjMyLjg0MzgiIHJ4PSIxMi41IiByeT0iMTIuNSIgc3R5bGU9InN0cm9rZTojMTgxODE4O3N0cm9rZS13aWR0aDowLjU7IiB3aWR0aD0iMTUxIiB4PSI2NjEuNSIgeT0iMTQ3OS42NzE5Ii8+PHRleHQgZmlsbD0iIzAwMDAwMCIgZm9udC1mYW1pbHk9InNhbnMtc2VyaWYiIGZvbnQtc2l6ZT0iMTIiIGxlbmd0aEFkanVzdD0ic3BhY2luZyIgdGV4dExlbmd0aD0iMTMxIiB4PSI2NzEuNSIgeT0iMTUwMS4wMTU2Ij5VcGRhdGUgZmxpZ2h0IHN0YXR1czwvdGV4dD48cG9seWdvbiBmaWxsPSIjRjFGMUYxIiBwb2ludHM9IjY3MSwxNDMxLjY3MTksODAzLDE0MzEuNjcxOSw4MTUsMTQ0My42NzE5LDgwMywxNDU1LjY3MTksNjcxLDE0NTUuNjcxOSw2NTksMTQ0My42NzE5LDY3MSwxNDMxLjY3MTkiIHN0eWxlPSJzdHJva2U6IzE4MTgxODtzdHJva2Utd2lkdGg6MC41OyIvPjx0ZXh0IGZpbGw9IiMwMDAwMDAiIGZvbnQtZmFtaWx5PSJzYW5zLXNlcmlmIiBmb250LXNpemU9IjExIiBsZW5ndGhBZGp1c3Q9InNwYWNpbmciIHRleHRMZW5ndGg9IjE4IiB4PSI3NDEiIHk9IjE0NjYuMDcwMyI+eWVzPC90ZXh0Pjx0ZXh0IGZpbGw9IiMwMDAwMDAiIGZvbnQtZmFtaWx5PSJzYW5zLXNlcmlmIiBmb250LXNpemU9IjExIiBsZW5ndGhBZGp1c3Q9InNwYWNpbmciIHRleHRMZW5ndGg9IjEzMiIgeD0iNjcxIiB5PSIxNDQ4LjE4MzYiPkZsaWdodCBzdGF0dXMgY2hhbmdlZD88L3RleHQ+PHRleHQgZmlsbD0iIzAwMDAwMCIgZm9udC1mYW1pbHk9InNhbnMtc2VyaWYiIGZvbnQtc2l6ZT0iMTEiIGxlbmd0aEFkanVzdD0ic3BhY2luZyIgdGV4dExlbmd0aD0iMTIiIHg9IjgxNSIgeT0iMTQ0Mi4yOTY5Ij5ubzwvdGV4dD48cG9seWdvbiBmaWxsPSIjRjFGMUYxIiBwb2ludHM9IjczNywxNjM4LjIwMzEsNzQ5LDE2NTAuMjAzMSw3MzcsMTY2Mi4yMDMxLDcyNSwxNjUwLjIwMzEsNzM3LDE2MzguMjAzMSIgc3R5bGU9InN0cm9rZTojMTgxODE4O3N0cm9rZS13aWR0aDowLjU7Ii8+PGxpbmUgc3R5bGU9InN0cm9rZTojMDAwMDAwO3N0cm9rZS13aWR0aDoxLjU7IiB4MT0iNjQ0IiB4Mj0iNjQ0IiB5MT0iMTEiIHkyPSIxOTE1LjU3ODEiLz48bGluZSBzdHlsZT0ic3Ryb2tlOiMwMDAwMDA7c3Ryb2tlLXdpZHRoOjEuNTsiIHgxPSI4NTcuNSIgeDI9Ijg1Ny41IiB5MT0iMTEiIHkyPSIxOTE1LjU3ODEiLz48bGluZSBzdHlsZT0ic3Ryb2tlOiMxODE4MTg7c3Ryb2tlLXdpZHRoOjEuMDsiIHgxPSIxNjEuNSIgeDI9IjE2MS41IiB5MT0iNTUuMjY1NiIgeTI9Ijc1LjI2NTYiLz48cG9seWdvbiBmaWxsPSIjMTgxODE4IiBwb2ludHM9IjE1Ny41LDY1LjI2NTYsMTYxLjUsNzUuMjY1NiwxNjUuNSw2NS4yNjU2LDE2MS41LDY5LjI2NTYiIHN0eWxlPSJzdHJva2U6IzE4MTgxODtzdHJva2Utd2lkdGg6MS4wOyIvPjxsaW5lIHN0eWxlPSJzdHJva2U6IzE4MTgxODtzdHJva2Utd2lkdGg6MS4wOyIgeDE9IjE2MS41IiB4Mj0iMTYxLjUiIHkxPSIxMDguMTA5NCIgeTI9IjEyOC4xMDk0Ii8+PHBvbHlnb24gZmlsbD0iIzE4MTgxOCIgcG9pbnRzPSIxNTcuNSwxMTguMTA5NCwxNjEuNSwxMjguMTA5NCwxNjUuNSwxMTguMTA5NCwxNjEuNSwxMjIuMTA5NCIgc3R5bGU9InN0cm9rZTojMTgxODE4O3N0cm9rZS13aWR0aDoxLjA7Ii8+PGxpbmUgc3R5bGU9InN0cm9rZTojMTgxODE4O3N0cm9rZS13aWR0aDoxLjA7IiB4MT0iMTYxLjUiIHgyPSIxNjEuNSIgeTE9IjE2MC45NTMxIiB5Mj0iMTgwLjk1MzEiLz48cG9seWdvbiBmaWxsPSIjMTgxODE4IiBwb2ludHM9IjE1Ny41LDE3MC45NTMxLDE2MS41LDE4MC45NTMxLDE2NS41LDE3MC45NTMxLDE2MS41LDE3NC45NTMxIiBzdHlsZT0ic3Ryb2tlOiMxODE4MTg7c3Ryb2tlLXdpZHRoOjEuMDsiLz48bGluZSBzdHlsZT0ic3Ryb2tlOiMxODE4MTg7c3Ryb2tlLXdpZHRoOjEuMDsiIHgxPSIxNjEuNSIgeDI9IjE2MS41IiB5MT0iMzcyLjMyODEiIHkyPSIzOTIuMzI4MSIvPjxwb2x5Z29uIGZpbGw9IiMxODE4MTgiIHBvaW50cz0iMTU3LjUsMzgyLjMyODEsMTYxLjUsMzkyLjMyODEsMTY1LjUsMzgyLjMyODEsMTYxLjUsMzg2LjMyODEiIHN0eWxlPSJzdHJva2U6IzE4MTgxODtzdHJva2Utd2lkdGg6MS4wOyIvPjxsaW5lIHN0eWxlPSJzdHJva2U6IzE4MTgxODtzdHJva2Utd2lkdGg6MS4wOyIgeDE9IjE2MS41IiB4Mj0iMTYxLjUiIHkxPSI1ODMuNzAzMSIgeTI9IjYwMy43MDMxIi8+PHBvbHlnb24gZmlsbD0iIzE4MTgxOCIgcG9pbnRzPSIxNTcuNSw1OTMuNzAzMSwxNjEuNSw2MDMuNzAzMSwxNjUuNSw1OTMuNzAzMSwxNjEuNSw1OTcuNzAzMSIgc3R5bGU9InN0cm9rZTojMTgxODE4O3N0cm9rZS13aWR0aDoxLjA7Ii8+PGxpbmUgc3R5bGU9InN0cm9rZTojMTgxODE4O3N0cm9rZS13aWR0aDoxLjA7IiB4MT0iMTYxLjUiIHgyPSIxNjEuNSIgeTE9IjYzNi41NDY5IiB5Mj0iNjU2LjU0NjkiLz48cG9seWdvbiBmaWxsPSIjMTgxODE4IiBwb2ludHM9IjE1Ny41LDY0Ni41NDY5LDE2MS41LDY1Ni41NDY5LDE2NS41LDY0Ni41NDY5LDE2MS41LDY1MC41NDY5IiBzdHlsZT0ic3Ryb2tlOiMxODE4MTg7c3Ryb2tlLXdpZHRoOjEuMDsiLz48bGluZSBzdHlsZT0ic3Ryb2tlOiMxODE4MTg7c3Ryb2tlLXdpZHRoOjEuMDsiIHgxPSIxNjEuNSIgeDI9IjE2MS41IiB5MT0iOTM0Ljc2NTYiIHkyPSI5NTQuNzY1NiIvPjxwb2x5Z29uIGZpbGw9IiMxODE4MTgiIHBvaW50cz0iMTU3LjUsOTQ0Ljc2NTYsMTYxLjUsOTU0Ljc2NTYsMTY1LjUsOTQ0Ljc2NTYsMTYxLjUsOTQ4Ljc2NTYiIHN0eWxlPSJzdHJva2U6IzE4MTgxODtzdHJva2Utd2lkdGg6MS4wOyIvPjxsaW5lIHN0eWxlPSJzdHJva2U6IzE4MTgxODtzdHJva2Utd2lkdGg6MS4wOyIgeDE9IjE2MS41IiB4Mj0iMTYxLjUiIHkxPSIxMDMxLjYwOTQiIHkyPSIxMDU1LjYwOTQiLz48cG9seWdvbiBmaWxsPSIjMTgxODE4IiBwb2ludHM9IjE1Ny41LDEwNDUuNjA5NCwxNjEuNSwxMDU1LjYwOTQsMTY1LjUsMTA0NS42MDk0LDE2MS41LDEwNDkuNjA5NCIgc3R5bGU9InN0cm9rZTojMTgxODE4O3N0cm9rZS13aWR0aDoxLjA7Ii8+PGxpbmUgc3R5bGU9InN0cm9rZTojMTgxODE4O3N0cm9rZS13aWR0aDoxLjA7IiB4MT0iMTA0LjUiIHgyPSIzNCIgeTE9IjEwMTkuNjA5NCIgeTI9IjEwMTkuNjA5NCIvPjxwb2x5Z29uIGZpbGw9IiMxODE4MTgiIHBvaW50cz0iMzAsMTE0OC43OTY5LDM0LDExNTguNzk2OSwzOCwxMTQ4Ljc5NjksMzQsMTE1Mi43OTY5IiBzdHlsZT0ic3Ryb2tlOiMxODE4MTg7c3Ryb2tlLXdpZHRoOjEuMDsiLz48bGluZSBzdHlsZT0ic3Ryb2tlOiMxODE4MTg7c3Ryb2tlLXdpZHRoOjEuMDsiIHgxPSIzNCIgeDI9IjM0IiB5MT0iMTAxOS42MDk0IiB5Mj0iMTI5My45ODQ0Ii8+PGxpbmUgc3R5bGU9InN0cm9rZTojMTgxODE4O3N0cm9rZS13aWR0aDoxLjA7IiB4MT0iMzQiIHgyPSIxNDkuNSIgeTE9IjEyOTMuOTg0NCIgeTI9IjEyOTMuOTg0NCIvPjxwb2x5Z29uIGZpbGw9IiMxODE4MTgiIHBvaW50cz0iMTM5LjUsMTI4OS45ODQ0LDE0OS41LDEyOTMuOTg0NCwxMzkuNSwxMjk3Ljk4NDQsMTQzLjUsMTI5My45ODQ0IiBzdHlsZT0ic3Ryb2tlOiMxODE4MTg7c3Ryb2tlLXdpZHRoOjEuMDsiLz48bGluZSBzdHlsZT0ic3Ryb2tlOiMxODE4MTg7c3Ryb2tlLXdpZHRoOjEuMDsiIHgxPSIxNjEuNSIgeDI9IjE2MS41IiB5MT0iMTI2MS45ODQ0IiB5Mj0iMTI4MS45ODQ0Ii8+PHBvbHlnb24gZmlsbD0iIzE4MTgxOCIgcG9pbnRzPSIxNTcuNSwxMjcxLjk4NDQsMTYxLjUsMTI4MS45ODQ0LDE2NS41LDEyNzEuOTg0NCwxNjEuNSwxMjc1Ljk4NDQiIHN0eWxlPSJzdHJva2U6IzE4MTgxODtzdHJva2Utd2lkdGg6MS4wOyIvPjxsaW5lIHN0eWxlPSJzdHJva2U6IzE4MTgxODtzdHJva2Utd2lkdGg6MS4wOyIgeDE9IjE2MS41IiB4Mj0iMTYxLjUiIHkxPSI5ODcuNjA5NCIgeTI9IjEwMDcuNjA5NCIvPjxwb2x5Z29uIGZpbGw9IiMxODE4MTgiIHBvaW50cz0iMTU3LjUsOTk3LjYwOTQsMTYxLjUsMTAwNy42MDk0LDE2NS41LDk5Ny42MDk0LDE2MS41LDEwMDEuNjA5NCIgc3R5bGU9InN0cm9rZTojMTgxODE4O3N0cm9rZS13aWR0aDoxLjA7Ii8+PGxpbmUgc3R5bGU9InN0cm9rZTojMTgxODE4O3N0cm9rZS13aWR0aDoxLjA7IiB4MT0iNDY2Ljc1IiB4Mj0iNDY2Ljc1IiB5MT0iMjY2LjY0MDYiIHkyPSIyODYuNjQwNiIvPjxwb2x5Z29uIGZpbGw9IiMxODE4MTgiIHBvaW50cz0iNDYyLjc1LDI3Ni42NDA2LDQ2Ni43NSwyODYuNjQwNiw0NzAuNzUsMjc2LjY0MDYsNDY2Ljc1LDI4MC42NDA2IiBzdHlsZT0ic3Ryb2tlOiMxODE4MTg7c3Ryb2tlLXdpZHRoOjEuMDsiLz48bGluZSBzdHlsZT0ic3Ryb2tlOiMxODE4MTg7c3Ryb2tlLXdpZHRoOjEuMDsiIHgxPSI0NjYuNzUiIHgyPSI0NjYuNzUiIHkxPSI0NzguMDE1NiIgeTI9IjQ5OC4wMTU2Ii8+PHBvbHlnb24gZmlsbD0iIzE4MTgxOCIgcG9pbnRzPSI0NjIuNzUsNDg4LjAxNTYsNDY2Ljc1LDQ5OC4wMTU2LDQ3MC43NSw0ODguMDE1Niw0NjYuNzUsNDkyLjAxNTYiIHN0eWxlPSJzdHJva2U6IzE4MTgxODtzdHJva2Utd2lkdGg6MS4wOyIvPjxsaW5lIHN0eWxlPSJzdHJva2U6IzE4MTgxODtzdHJva2Utd2lkdGg6MS4wOyIgeDE9IjM3NCIgeDI9IjM3NCIgeTE9IjgyOS4wNzgxIiB5Mj0iODQ5LjA3ODEiLz48cG9seWdvbiBmaWxsPSIjMTgxODE4IiBwb2ludHM9IjM3MCw4MzkuMDc4MSwzNzQsODQ5LjA3ODEsMzc4LDgzOS4wNzgxLDM3NCw4NDMuMDc4MSIgc3R5bGU9InN0cm9rZTojMTgxODE4O3N0cm9rZS13aWR0aDoxLjA7Ii8+PGxpbmUgc3R5bGU9InN0cm9rZTojMTgxODE4O3N0cm9rZS13aWR0aDoxLjA7IiB4MT0iNTU5LjUiIHgyPSI1NTkuNSIgeTE9IjgyOS4wNzgxIiB5Mj0iODQ5LjA3ODEiLz48cG9seWdvbiBmaWxsPSIjMTgxODE4IiBwb2ludHM9IjU1NS41LDgzOS4wNzgxLDU1OS41LDg0OS4wNzgxLDU2My41LDgzOS4wNzgxLDU1OS41LDg0My4wNzgxIiBzdHlsZT0ic3Ryb2tlOiMxODE4MTg7c3Ryb2tlLXdpZHRoOjEuMDsiLz48bGluZSBzdHlsZT0ic3Ryb2tlOiMxODE4MTg7c3Ryb2tlLXdpZHRoOjEuMDsiIHgxPSIzOTcuNzUiIHgyPSIzNzQiIHkxPSI3NzQuMjM0NCIgeTI9Ijc3NC4yMzQ0Ii8+PGxpbmUgc3R5bGU9InN0cm9rZTojMTgxODE4O3N0cm9rZS13aWR0aDoxLjA7IiB4MT0iMzc0IiB4Mj0iMzc0IiB5MT0iNzc0LjIzNDQiIHkyPSI3OTYuMjM0NCIvPjxwb2x5Z29uIGZpbGw9IiMxODE4MTgiIHBvaW50cz0iMzcwLDc4Ni4yMzQ0LDM3NCw3OTYuMjM0NCwzNzgsNzg2LjIzNDQsMzc0LDc5MC4yMzQ0IiBzdHlsZT0ic3Ryb2tlOiMxODE4MTg7c3Ryb2tlLXdpZHRoOjEuMDsiLz48bGluZSBzdHlsZT0ic3Ryb2tlOiMxODE4MTg7c3Ryb2tlLXdpZHRoOjEuMDsiIHgxPSI1MzUuNzUiIHgyPSI1NTkuNSIgeTE9Ijc3NC4yMzQ0IiB5Mj0iNzc0LjIzNDQiLz48bGluZSBzdHlsZT0ic3Ryb2tlOiMxODE4MTg7c3Ryb2tlLXdpZHRoOjEuMDsiIHgxPSI1NTkuNSIgeDI9IjU1OS41IiB5MT0iNzc0LjIzNDQiIHkyPSI3OTYuMjM0NCIvPjxwb2x5Z29uIGZpbGw9IiMxODE4MTgiIHBvaW50cz0iNTU1LjUsNzg2LjIzNDQsNTU5LjUsNzk2LjIzNDQsNTYzLjUsNzg2LjIzNDQsNTU5LjUsNzkwLjIzNDQiIHN0eWxlPSJzdHJva2U6IzE4MTgxODtzdHJva2Utd2lkdGg6MS4wOyIvPjxsaW5lIHN0eWxlPSJzdHJva2U6IzE4MTgxODtzdHJva2Utd2lkdGg6MS4wOyIgeDE9IjM3NCIgeDI9IjM3NCIgeTE9Ijg4MS45MjE5IiB5Mj0iODg2LjkyMTkiLz48bGluZSBzdHlsZT0ic3Ryb2tlOiMxODE4MTg7c3Ryb2tlLXdpZHRoOjEuMDsiIHgxPSIzNzQiIHgyPSIxNjEuNSIgeTE9Ijg4Ni45MjE5IiB5Mj0iODg2LjkyMTkiLz48bGluZSBzdHlsZT0ic3Ryb2tlOiMxODE4MTg7c3Ryb2tlLXdpZHRoOjEuMDsiIHgxPSIxNjEuNSIgeDI9IjE2MS41IiB5MT0iODg2LjkyMTkiIHkyPSI5MDEuOTIxOSIvPjxwb2x5Z29uIGZpbGw9IiMxODE4MTgiIHBvaW50cz0iMTU3LjUsODkxLjkyMTksMTYxLjUsOTAxLjkyMTksMTY1LjUsODkxLjkyMTksMTYxLjUsODk1LjkyMTkiIHN0eWxlPSJzdHJva2U6IzE4MTgxODtzdHJva2Utd2lkdGg6MS4wOyIvPjxsaW5lIHN0eWxlPSJzdHJva2U6IzE4MTgxODtzdHJva2Utd2lkdGg6MS4wOyIgeDE9IjQ2Ni43NSIgeDI9IjQ2Ni43NSIgeTE9Ijc0Mi4yMzQ0IiB5Mj0iNzYyLjIzNDQiLz48cG9seWdvbiBmaWxsPSIjMTgxODE4IiBwb2ludHM9IjQ2Mi43NSw3NTIuMjM0NCw0NjYuNzUsNzYyLjIzNDQsNDcwLjc1LDc1Mi4yMzQ0LDQ2Ni43NSw3NTYuMjM0NCIgc3R5bGU9InN0cm9rZTojMTgxODE4O3N0cm9rZS13aWR0aDoxLjA7Ii8+PGxpbmUgc3R5bGU9InN0cm9rZTojMTgxODE4O3N0cm9rZS13aWR0aDoxLjA7IiB4MT0iNDY2Ljc1IiB4Mj0iNDY2Ljc1IiB5MT0iMTE0MS4yOTY5IiB5Mj0iMTE3Ni4yOTY5Ii8+PHBvbHlnb24gZmlsbD0iIzE4MTgxOCIgcG9pbnRzPSI0NjIuNzUsMTE2Ni4yOTY5LDQ2Ni43NSwxMTc2LjI5NjksNDcwLjc1LDExNjYuMjk2OSw0NjYuNzUsMTE3MC4yOTY5IiBzdHlsZT0ic3Ryb2tlOiMxODE4MTg7c3Ryb2tlLXdpZHRoOjEuMDsiLz48bGluZSBzdHlsZT0ic3Ryb2tlOiMxODE4MTg7c3Ryb2tlLXdpZHRoOjEuMDsiIHgxPSI0NjYuNzUiIHgyPSI0NjYuNzUiIHkxPSIxNTY1LjM1OTQiIHkyPSIxNTg1LjM1OTQiLz48cG9seWdvbiBmaWxsPSIjMTgxODE4IiBwb2ludHM9IjQ2Mi43NSwxNTc1LjM1OTQsNDY2Ljc1LDE1ODUuMzU5NCw0NzAuNzUsMTU3NS4zNTk0LDQ2Ni43NSwxNTc5LjM1OTQiIHN0eWxlPSJzdHJva2U6IzE4MTgxODtzdHJva2Utd2lkdGg6MS4wOyIvPjxsaW5lIHN0eWxlPSJzdHJva2U6IzE4MTgxODtzdHJva2Utd2lkdGg6MS4wOyIgeDE9IjQ2Ni43NSIgeDI9IjQ2Ni43NSIgeTE9IjE3MTUuMDQ2OSIgeTI9IjE3MzUuMDQ2OSIvPjxwb2x5Z29uIGZpbGw9IiMxODE4MTgiIHBvaW50cz0iNDYyLjc1LDE3MjUuMDQ2OSw0NjYuNzUsMTczNS4wNDY5LDQ3MC43NSwxNzI1LjA0NjksNDY2Ljc1LDE3MjkuMDQ2OSIgc3R5bGU9InN0cm9rZTojMTgxODE4O3N0cm9rZS13aWR0aDoxLjA7Ii8+PGxpbmUgc3R5bGU9InN0cm9rZTojMTgxODE4O3N0cm9rZS13aWR0aDoxLjA7IiB4MT0iNDY2Ljc1IiB4Mj0iNDY2Ljc1IiB5MT0iMTc2Ny44OTA2IiB5Mj0iMTc4Ny44OTA2Ii8+PHBvbHlnb24gZmlsbD0iIzE4MTgxOCIgcG9pbnRzPSI0NjIuNzUsMTc3Ny44OTA2LDQ2Ni43NSwxNzg3Ljg5MDYsNDcwLjc1LDE3NzcuODkwNiw0NjYuNzUsMTc4MS44OTA2IiBzdHlsZT0ic3Ryb2tlOiMxODE4MTg7c3Ryb2tlLXdpZHRoOjEuMDsiLz48bGluZSBzdHlsZT0ic3Ryb2tlOiMxODE4MTg7c3Ryb2tlLXdpZHRoOjEuMDsiIHgxPSI0NjYuNzUiIHgyPSI0NjYuNzUiIHkxPSIxODIwLjczNDQiIHkyPSIxODQwLjczNDQiLz48cG9seWdvbiBmaWxsPSIjMTgxODE4IiBwb2ludHM9IjQ2Mi43NSwxODMwLjczNDQsNDY2Ljc1LDE4NDAuNzM0NCw0NzAuNzUsMTgzMC43MzQ0LDQ2Ni43NSwxODM0LjczNDQiIHN0eWxlPSJzdHJva2U6IzE4MTgxODtzdHJva2Utd2lkdGg6MS4wOyIvPjxsaW5lIHN0eWxlPSJzdHJva2U6IzE4MTgxODtzdHJva2Utd2lkdGg6MS4wOyIgeDE9IjQ2Ni43NSIgeDI9IjQ2Ni43NSIgeTE9IjE4NzMuNTc4MSIgeTI9IjE4OTMuNTc4MSIvPjxwb2x5Z29uIGZpbGw9IiMxODE4MTgiIHBvaW50cz0iNDYyLjc1LDE4ODMuNTc4MSw0NjYuNzUsMTg5My41NzgxLDQ3MC43NSwxODgzLjU3ODEsNDY2Ljc1LDE4ODcuNTc4MSIgc3R5bGU9InN0cm9rZTojMTgxODE4O3N0cm9rZS13aWR0aDoxLjA7Ii8+PGxpbmUgc3R5bGU9InN0cm9rZTojMTgxODE4O3N0cm9rZS13aWR0aDoxLjA7IiB4MT0iNzM3IiB4Mj0iNzM3IiB5MT0iMTM1OC44MjgxIiB5Mj0iMTM3OC44MjgxIi8+PHBvbHlnb24gZmlsbD0iIzE4MTgxOCIgcG9pbnRzPSI3MzMsMTM2OC44MjgxLDczNywxMzc4LjgyODEsNzQxLDEzNjguODI4MSw3MzcsMTM3Mi44MjgxIiBzdHlsZT0ic3Ryb2tlOiMxODE4MTg7c3Ryb2tlLXdpZHRoOjEuMDsiLz48bGluZSBzdHlsZT0ic3Ryb2tlOiMxODE4MTg7c3Ryb2tlLXdpZHRoOjEuMDsiIHgxPSI3MzciIHgyPSI3MzciIHkxPSIxNDU1LjY3MTkiIHkyPSIxNDc5LjY3MTkiLz48cG9seWdvbiBmaWxsPSIjMTgxODE4IiBwb2ludHM9IjczMywxNDY5LjY3MTksNzM3LDE0NzkuNjcxOSw3NDEsMTQ2OS42NzE5LDczNywxNDczLjY3MTkiIHN0eWxlPSJzdHJva2U6IzE4MTgxODtzdHJva2Utd2lkdGg6MS4wOyIvPjxsaW5lIHN0eWxlPSJzdHJva2U6IzE4MTgxODtzdHJva2Utd2lkdGg6MS4wOyIgeDE9IjgxNSIgeDI9IjgzOC41IiB5MT0iMTQ0My42NzE5IiB5Mj0iMTQ0My42NzE5Ii8+PHBvbHlnb24gZmlsbD0iIzE4MTgxOCIgcG9pbnRzPSI4MzQuNSwxNTM4LjkzNzUsODM4LjUsMTU0OC45Mzc1LDg0Mi41LDE1MzguOTM3NSw4MzguNSwxNTQyLjkzNzUiIHN0eWxlPSJzdHJva2U6IzE4MTgxODtzdHJva2Utd2lkdGg6MS4wOyIvPjxsaW5lIHN0eWxlPSJzdHJva2U6IzE4MTgxODtzdHJva2Utd2lkdGg6MS4wOyIgeDE9IjgzOC41IiB4Mj0iODM4LjUiIHkxPSIxNDQzLjY3MTkiIHkyPSIxNjUwLjIwMzEiLz48bGluZSBzdHlsZT0ic3Ryb2tlOiMxODE4MTg7c3Ryb2tlLXdpZHRoOjEuMDsiIHgxPSI4MzguNSIgeDI9Ijc0OSIgeTE9IjE2NTAuMjAzMSIgeTI9IjE2NTAuMjAzMSIvPjxwb2x5Z29uIGZpbGw9IiMxODE4MTgiIHBvaW50cz0iNzU5LDE2NDYuMjAzMSw3NDksMTY1MC4yMDMxLDc1OSwxNjU0LjIwMzEsNzU1LDE2NTAuMjAzMSIgc3R5bGU9InN0cm9rZTojMTgxODE4O3N0cm9rZS13aWR0aDoxLjA7Ii8+PGxpbmUgc3R5bGU9InN0cm9rZTojMTgxODE4O3N0cm9rZS13aWR0aDoxLjA7IiB4MT0iNzM3IiB4Mj0iNzM3IiB5MT0iMTQxMS42NzE5IiB5Mj0iMTQzMS42NzE5Ii8+PHBvbHlnb24gZmlsbD0iIzE4MTgxOCIgcG9pbnRzPSI3MzMsMTQyMS42NzE5LDczNywxNDMxLjY3MTksNzQxLDE0MjEuNjcxOSw3MzcsMTQyNS42NzE5IiBzdHlsZT0ic3Ryb2tlOiMxODE4MTg7c3Ryb2tlLXdpZHRoOjEuMDsiLz48bGluZSBzdHlsZT0ic3Ryb2tlOiMxODE4MTg7c3Ryb2tlLXdpZHRoOjEuMDsiIHgxPSIxNjEuNSIgeDI9IjE2MS41IiB5MT0iMjEzLjc5NjkiIHkyPSIyMTguNzk2OSIvPjxsaW5lIHN0eWxlPSJzdHJva2U6IzE4MTgxODtzdHJva2Utd2lkdGg6MS4wOyIgeDE9IjE2MS41IiB4Mj0iNDY2Ljc1IiB5MT0iMjE4Ljc5NjkiIHkyPSIyMTguNzk2OSIvPjxsaW5lIHN0eWxlPSJzdHJva2U6IzE4MTgxODtzdHJva2Utd2lkdGg6MS4wOyIgeDE9IjQ2Ni43NSIgeDI9IjQ2Ni43NSIgeTE9IjIxOC43OTY5IiB5Mj0iMjMzLjc5NjkiLz48cG9seWdvbiBmaWxsPSIjMTgxODE4IiBwb2ludHM9IjQ2Mi43NSwyMjMuNzk2OSw0NjYuNzUsMjMzLjc5NjksNDcwLjc1LDIyMy43OTY5LDQ2Ni43NSwyMjcuNzk2OSIgc3R5bGU9InN0cm9rZTojMTgxODE4O3N0cm9rZS13aWR0aDoxLjA7Ii8+PGxpbmUgc3R5bGU9InN0cm9rZTojMTgxODE4O3N0cm9rZS13aWR0aDoxLjA7IiB4MT0iNDY2Ljc1IiB4Mj0iNDY2Ljc1IiB5MT0iMzE5LjQ4NDQiIHkyPSIzMjQuNDg0NCIvPjxsaW5lIHN0eWxlPSJzdHJva2U6IzE4MTgxODtzdHJva2Utd2lkdGg6MS4wOyIgeDE9IjQ2Ni43NSIgeDI9IjE2MS41IiB5MT0iMzI0LjQ4NDQiIHkyPSIzMjQuNDg0NCIvPjxsaW5lIHN0eWxlPSJzdHJva2U6IzE4MTgxODtzdHJva2Utd2lkdGg6MS4wOyIgeDE9IjE2MS41IiB4Mj0iMTYxLjUiIHkxPSIzMjQuNDg0NCIgeTI9IjMzOS40ODQ0Ii8+PHBvbHlnb24gZmlsbD0iIzE4MTgxOCIgcG9pbnRzPSIxNTcuNSwzMjkuNDg0NCwxNjEuNSwzMzkuNDg0NCwxNjUuNSwzMjkuNDg0NCwxNjEuNSwzMzMuNDg0NCIgc3R5bGU9InN0cm9rZTojMTgxODE4O3N0cm9rZS13aWR0aDoxLjA7Ii8+PGxpbmUgc3R5bGU9InN0cm9rZTojMTgxODE4O3N0cm9rZS13aWR0aDoxLjA7IiB4MT0iMTYxLjUiIHgyPSIxNjEuNSIgeTE9IjQyNS4xNzE5IiB5Mj0iNDMwLjE3MTkiLz48bGluZSBzdHlsZT0ic3Ryb2tlOiMxODE4MTg7c3Ryb2tlLXdpZHRoOjEuMDsiIHgxPSIxNjEuNSIgeDI9IjQ2Ni43NSIgeTE9IjQzMC4xNzE5IiB5Mj0iNDMwLjE3MTkiLz48bGluZSBzdHlsZT0ic3Ryb2tlOiMxODE4MTg7c3Ryb2tlLXdpZHRoOjEuMDsiIHgxPSI0NjYuNzUiIHgyPSI0NjYuNzUiIHkxPSI0MzAuMTcxOSIgeTI9IjQ0NS4xNzE5Ii8+PHBvbHlnb24gZmlsbD0iIzE4MTgxOCIgcG9pbnRzPSI0NjIuNzUsNDM1LjE3MTksNDY2Ljc1LDQ0NS4xNzE5LDQ3MC43NSw0MzUuMTcxOSw0NjYuNzUsNDM5LjE3MTkiIHN0eWxlPSJzdHJva2U6IzE4MTgxODtzdHJva2Utd2lkdGg6MS4wOyIvPjxsaW5lIHN0eWxlPSJzdHJva2U6IzE4MTgxODtzdHJva2Utd2lkdGg6MS4wOyIgeDE9IjQ2Ni43NSIgeDI9IjQ2Ni43NSIgeTE9IjUzMC44NTk0IiB5Mj0iNTM1Ljg1OTQiLz48bGluZSBzdHlsZT0ic3Ryb2tlOiMxODE4MTg7c3Ryb2tlLXdpZHRoOjEuMDsiIHgxPSI0NjYuNzUiIHgyPSIxNjEuNSIgeTE9IjUzNS44NTk0IiB5Mj0iNTM1Ljg1OTQiLz48bGluZSBzdHlsZT0ic3Ryb2tlOiMxODE4MTg7c3Ryb2tlLXdpZHRoOjEuMDsiIHgxPSIxNjEuNSIgeDI9IjE2MS41IiB5MT0iNTM1Ljg1OTQiIHkyPSI1NTAuODU5NCIvPjxwb2x5Z29uIGZpbGw9IiMxODE4MTgiIHBvaW50cz0iMTU3LjUsNTQwLjg1OTQsMTYxLjUsNTUwLjg1OTQsMTY1LjUsNTQwLjg1OTQsMTYxLjUsNTQ0Ljg1OTQiIHN0eWxlPSJzdHJva2U6IzE4MTgxODtzdHJva2Utd2lkdGg6MS4wOyIvPjxsaW5lIHN0eWxlPSJzdHJva2U6IzE4MTgxODtzdHJva2Utd2lkdGg6MS4wOyIgeDE9IjE2MS41IiB4Mj0iMTYxLjUiIHkxPSI2ODkuMzkwNiIgeTI9IjY5NC4zOTA2Ii8+PGxpbmUgc3R5bGU9InN0cm9rZTojMTgxODE4O3N0cm9rZS13aWR0aDoxLjA7IiB4MT0iMTYxLjUiIHgyPSI0NjYuNzUiIHkxPSI2OTQuMzkwNiIgeTI9IjY5NC4zOTA2Ii8+PGxpbmUgc3R5bGU9InN0cm9rZTojMTgxODE4O3N0cm9rZS13aWR0aDoxLjA7IiB4MT0iNDY2Ljc1IiB4Mj0iNDY2Ljc1IiB5MT0iNjk0LjM5MDYiIHkyPSI3MDkuMzkwNiIvPjxwb2x5Z29uIGZpbGw9IiMxODE4MTgiIHBvaW50cz0iNDYyLjc1LDY5OS4zOTA2LDQ2Ni43NSw3MDkuMzkwNiw0NzAuNzUsNjk5LjM5MDYsNDY2Ljc1LDcwMy4zOTA2IiBzdHlsZT0ic3Ryb2tlOiMxODE4MTg7c3Ryb2tlLXdpZHRoOjEuMDsiLz48bGluZSBzdHlsZT0ic3Ryb2tlOiMxODE4MTg7c3Ryb2tlLXdpZHRoOjEuMDsiIHgxPSIxNjEuNSIgeDI9IjE2MS41IiB5MT0iMTA4OC40NTMxIiB5Mj0iMTA5My40NTMxIi8+PGxpbmUgc3R5bGU9InN0cm9rZTojMTgxODE4O3N0cm9rZS13aWR0aDoxLjA7IiB4MT0iMTYxLjUiIHgyPSI0NjYuNzUiIHkxPSIxMDkzLjQ1MzEiIHkyPSIxMDkzLjQ1MzEiLz48bGluZSBzdHlsZT0ic3Ryb2tlOiMxODE4MTg7c3Ryb2tlLXdpZHRoOjEuMDsiIHgxPSI0NjYuNzUiIHgyPSI0NjYuNzUiIHkxPSIxMDkzLjQ1MzEiIHkyPSIxMTA4LjQ1MzEiLz48cG9seWdvbiBmaWxsPSIjMTgxODE4IiBwb2ludHM9IjQ2Mi43NSwxMDk4LjQ1MzEsNDY2Ljc1LDExMDguNDUzMSw0NzAuNzUsMTA5OC40NTMxLDQ2Ni43NSwxMTAyLjQ1MzEiIHN0eWxlPSJzdHJva2U6IzE4MTgxODtzdHJva2Utd2lkdGg6MS4wOyIvPjxsaW5lIHN0eWxlPSJzdHJva2U6IzE4MTgxODtzdHJva2Utd2lkdGg6MS4wOyIgeDE9IjQ2Ni43NSIgeDI9IjQ2Ni43NSIgeTE9IjEyMDkuMTQwNiIgeTI9IjEyMTQuMTQwNiIvPjxsaW5lIHN0eWxlPSJzdHJva2U6IzE4MTgxODtzdHJva2Utd2lkdGg6MS4wOyIgeDE9IjQ2Ni43NSIgeDI9IjE2MS41IiB5MT0iMTIxNC4xNDA2IiB5Mj0iMTIxNC4xNDA2Ii8+PGxpbmUgc3R5bGU9InN0cm9rZTojMTgxODE4O3N0cm9rZS13aWR0aDoxLjA7IiB4MT0iMTYxLjUiIHgyPSIxNjEuNSIgeTE9IjEyMTQuMTQwNiIgeTI9IjEyMjkuMTQwNiIvPjxwb2x5Z29uIGZpbGw9IiMxODE4MTgiIHBvaW50cz0iMTU3LjUsMTIxOS4xNDA2LDE2MS41LDEyMjkuMTQwNiwxNjUuNSwxMjE5LjE0MDYsMTYxLjUsMTIyMy4xNDA2IiBzdHlsZT0ic3Ryb2tlOiMxODE4MTg7c3Ryb2tlLXdpZHRoOjEuMDsiLz48bGluZSBzdHlsZT0ic3Ryb2tlOiMxODE4MTg7c3Ryb2tlLXdpZHRoOjEuMDsiIHgxPSIxNjEuNSIgeDI9IjE2MS41IiB5MT0iMTMwNS45ODQ0IiB5Mj0iMTMxMC45ODQ0Ii8+PGxpbmUgc3R5bGU9InN0cm9rZTojMTgxODE4O3N0cm9rZS13aWR0aDoxLjA7IiB4MT0iMTYxLjUiIHgyPSI3MzciIHkxPSIxMzEwLjk4NDQiIHkyPSIxMzEwLjk4NDQiLz48bGluZSBzdHlsZT0ic3Ryb2tlOiMxODE4MTg7c3Ryb2tlLXdpZHRoOjEuMDsiIHgxPSI3MzciIHgyPSI3MzciIHkxPSIxMzEwLjk4NDQiIHkyPSIxMzI1Ljk4NDQiLz48cG9seWdvbiBmaWxsPSIjMTgxODE4IiBwb2ludHM9IjczMywxMzE1Ljk4NDQsNzM3LDEzMjUuOTg0NCw3NDEsMTMxNS45ODQ0LDczNywxMzE5Ljk4NDQiIHN0eWxlPSJzdHJva2U6IzE4MTgxODtzdHJva2Utd2lkdGg6MS4wOyIvPjxsaW5lIHN0eWxlPSJzdHJva2U6IzE4MTgxODtzdHJva2Utd2lkdGg6MS4wOyIgeDE9IjczNyIgeDI9IjczNyIgeTE9IjE1MTIuNTE1NiIgeTI9IjE1MTcuNTE1NiIvPjxsaW5lIHN0eWxlPSJzdHJva2U6IzE4MTgxODtzdHJva2Utd2lkdGg6MS4wOyIgeDE9IjczNyIgeDI9IjQ2Ni43NSIgeTE9IjE1MTcuNTE1NiIgeTI9IjE1MTcuNTE1NiIvPjxsaW5lIHN0eWxlPSJzdHJva2U6IzE4MTgxODtzdHJva2Utd2lkdGg6MS4wOyIgeDE9IjQ2Ni43NSIgeDI9IjQ2Ni43NSIgeTE9IjE1MTcuNTE1NiIgeTI9IjE1MzIuNTE1NiIvPjxwb2x5Z29uIGZpbGw9IiMxODE4MTgiIHBvaW50cz0iNDYyLjc1LDE1MjIuNTE1Niw0NjYuNzUsMTUzMi41MTU2LDQ3MC43NSwxNTIyLjUxNTYsNDY2Ljc1LDE1MjYuNTE1NiIgc3R5bGU9InN0cm9rZTojMTgxODE4O3N0cm9rZS13aWR0aDoxLjA7Ii8+PGxpbmUgc3R5bGU9InN0cm9rZTojMTgxODE4O3N0cm9rZS13aWR0aDoxLjA7IiB4MT0iNDY2Ljc1IiB4Mj0iNDY2Ljc1IiB5MT0iMTYxOC4yMDMxIiB5Mj0iMTYyNi4yMDMxIi8+PGxpbmUgc3R5bGU9InN0cm9rZTojMTgxODE4O3N0cm9rZS13aWR0aDoxLjA7IiB4MT0iNDY2Ljc1IiB4Mj0iNzM3IiB5MT0iMTYyNi4yMDMxIiB5Mj0iMTYyNi4yMDMxIi8+PGxpbmUgc3R5bGU9InN0cm9rZTojMTgxODE4O3N0cm9rZS13aWR0aDoxLjA7IiB4MT0iNzM3IiB4Mj0iNzM3IiB5MT0iMTYyNi4yMDMxIiB5Mj0iMTYzOC4yMDMxIi8+PHBvbHlnb24gZmlsbD0iIzE4MTgxOCIgcG9pbnRzPSI3MzMsMTYyOC4yMDMxLDczNywxNjM4LjIwMzEsNzQxLDE2MjguMjAzMSw3MzcsMTYzMi4yMDMxIiBzdHlsZT0ic3Ryb2tlOiMxODE4MTg7c3Ryb2tlLXdpZHRoOjEuMDsiLz48bGluZSBzdHlsZT0ic3Ryb2tlOiMxODE4MTg7c3Ryb2tlLXdpZHRoOjEuMDsiIHgxPSI3MzciIHgyPSI3MzciIHkxPSIxNjYyLjIwMzEiIHkyPSIxNjY3LjIwMzEiLz48bGluZSBzdHlsZT0ic3Ryb2tlOiMxODE4MTg7c3Ryb2tlLXdpZHRoOjEuMDsiIHgxPSI3MzciIHgyPSI0NjYuNzUiIHkxPSIxNjY3LjIwMzEiIHkyPSIxNjY3LjIwMzEiLz48bGluZSBzdHlsZT0ic3Ryb2tlOiMxODE4MTg7c3Ryb2tlLXdpZHRoOjEuMDsiIHgxPSI0NjYuNzUiIHgyPSI0NjYuNzUiIHkxPSIxNjY3LjIwMzEiIHkyPSIxNjgyLjIwMzEiLz48cG9seWdvbiBmaWxsPSIjMTgxODE4IiBwb2ludHM9IjQ2Mi43NSwxNjcyLjIwMzEsNDY2Ljc1LDE2ODIuMjAzMSw0NzAuNzUsMTY3Mi4yMDMxLDQ2Ni43NSwxNjc2LjIwMzEiIHN0eWxlPSJzdHJva2U6IzE4MTgxODtzdHJva2Utd2lkdGg6MS4wOyIvPjx0ZXh0IGZpbGw9IiMwMDAwMDAiIGZvbnQtZmFtaWx5PSJzYW5zLXNlcmlmIiBmb250LXNpemU9IjE4IiBsZW5ndGhBZGp1c3Q9InNwYWNpbmciIHRleHRMZW5ndGg9IjM2IiB4PSIxMzEiIHk9IjI4LjAxNTYiPlVzZXI8L3RleHQ+PHRleHQgZmlsbD0iIzAwMDAwMCIgZm9udC1mYW1pbHk9InNhbnMtc2VyaWYiIGZvbnQtc2l6ZT0iMTgiIGxlbmd0aEFkanVzdD0ic3BhY2luZyIgdGV4dExlbmd0aD0iNTQiIHg9IjQzNi41IiB5PSIyOC4wMTU2Ij5TeXN0ZW08L3RleHQ+PHRleHQgZmlsbD0iIzAwMDAwMCIgZm9udC1mYW1pbHk9InNhbnMtc2VyaWYiIGZvbnQtc2l6ZT0iMTgiIGxlbmd0aEFkanVzdD0ic3BhY2luZyIgdGV4dExlbmd0aD0iNDUiIHg9IjcyOC4yNSIgeT0iMjguMDE1NiI+QWRtaW48L3RleHQ+PCEtLVNSQz1bVExGQlJqbW0zQnBoQXRKU184QnRLMUhELVczSThpV1l3UGNIQTVrOEIzY1lsMGkzX2xYSXljRmozTmdwSUd1dkdtdDc1eTh1MmFlR2F3V1VHc3N6SjQ3SUcwZFJld1hFMjU0cnFlR2VaUkRyYXdXNDdRZXExdXYyWkFUSUZlaGd0YkJkTzkxbTFrbFdwVTRNck9JQjk4R2FNLVdvUVhnelRDa1BORlJXNHFSUDBIN3djaHlxOWt2NWtwN1ZtQWRVR1VCczQ5NTFGejFacEZ6bDhSblJOcWxnc25SWWkxZHBaNlVCYnhMV1JMaXpuUTBHVFBSVG1UMllKclU5U3Eyc2M5Z1dUbm1BWkVZQWlLT1Vka1B3d2JMRWNqdnprUEVmR0l5RjB6QVRhRjlBRExkclplcFpzMGN6YllmdU9zQ0JvR09saU1Mc0h1NkVLMXZ5QUNYYmtHaWZaMzc0WkFTS0VpNGpoQmRBVlNyWWZuNFJoVlZYdWJxMGxHeEZmRnkyRHNGcjJocDJwdUlWeVFEN0lkRlE1TnZ2d2hlQWhiY01TTGpKX1Y4c3NRbXNla2N6QmhZOU9VY2lxOXZuWHpnak9SazBIVHpOdExlX1JobUFFUzFCeVNXQmd0dTdkaFl3VE5ia2NmSC1kdUJpempHcHNHUk9PVmdKdTlURTVzampZc3k1X21kOTZsUXZDTW1KRGFfRmNhaEgzVGZ3RmZ0X1lQYVVRTjVhbjJ4NFNXOF9tTWktZFJldW5LZHE3eHNENWxTdGlGZWU0eEo0M3ZnWHlfSmZWYlZrOFpsYTdtMDBdLS0+PC9nPjwvc3ZnPg==;" vertex="1" parent="1">
            <mxGeometry x="-240" y="1740" width="879" height="1927" as="geometry" />
          </mxCell>
        </UserObject>
      </root>
    </mxGraphModel>
  </diagram>
</mxfile>
